<svg width="38" height="38" viewBox="0 0 38 38" fill="none" xmlns="http://www.w3.org/2000/svg">
<path d="M18.5 0.000976562C20.3001 0.000976562 21.5618 -0.0815749 23 1.00098C24.9619 2.47792 24.9996 6.94965 25 7.00098H35V38.001H3V7.00098H12C12.0004 6.94965 12.0381 2.47792 14 1.00098C15.4382 -0.0815749 16.6999 0.000976562 18.5 0.000976562ZM9 34.001H28V15.001H9V34.001ZM15.1875 20.4316C16.0035 20.4317 16.7153 20.6043 17.3232 20.9482C17.9312 21.2842 18.3837 21.732 18.6797 22.292L16.8916 23.5645C16.7876 23.2845 16.6355 23.068 16.4355 22.916C16.2436 22.7641 16.0317 22.6595 15.7998 22.6035C15.5759 22.5395 15.3556 22.5078 15.1396 22.5078C14.8038 22.5078 14.5116 22.576 14.2637 22.7119C14.0237 22.8399 13.8231 23.0116 13.6631 23.2275C13.5111 23.4435 13.3954 23.6842 13.3154 23.9482C13.2435 24.2122 13.207 24.4763 13.207 24.7402C13.2071 25.0361 13.2519 25.3199 13.3398 25.5918C13.4278 25.8638 13.5556 26.1082 13.7236 26.3242C13.8916 26.532 14.0951 26.6965 14.335 26.8164C14.5829 26.9364 14.8592 26.9961 15.1631 26.9961C15.379 26.9961 15.5993 26.9643 15.8232 26.9004C16.0472 26.8284 16.2516 26.7164 16.4355 26.5645C16.6195 26.4125 16.7595 26.2081 16.8555 25.9521L18.7637 27.0918C18.5957 27.5077 18.3157 27.8642 17.9238 28.1602C17.5319 28.4561 17.0876 28.6838 16.5918 28.8438C16.0958 28.9958 15.6032 29.0723 15.1152 29.0723C14.4833 29.0722 13.903 28.9482 13.375 28.7002C12.8552 28.4443 12.4034 28.1082 12.0195 27.6924C11.6436 27.2685 11.3515 26.7962 11.1436 26.2764C10.9356 25.7484 10.8311 25.212 10.8311 24.668C10.8311 24.148 10.9271 23.6396 11.1191 23.1436C11.3191 22.6397 11.6076 22.1842 11.9834 21.7764C12.3594 21.3684 12.8156 21.0437 13.3516 20.8037C13.8955 20.5558 14.5076 20.4316 15.1875 20.4316ZM22.7041 23.7295H23.3047L23.7539 21.9004H25.2646L24.8047 23.7295H26.0742V25.0303H24.4844L24.2842 25.9004H25.5645V27.2998H23.9443L23.5342 29H22.0244L22.4443 27.2998H21.8447L21.4346 29H19.9238L20.3447 27.2998H19.2246V25.9004H20.6846L20.8838 25.0303H19.7344V23.7295H21.2041L21.6543 21.9004H23.1641L22.7041 23.7295ZM22.1846 25.9004H22.7842L22.9844 25.0303H22.3838L22.1846 25.9004ZM14.5 9.50098C14.4999 9.00142 14.3703 8.87759 14 9.00098C13.1716 9.27712 13.8732 12.001 13 12.001C12.1268 12.001 12.8284 9.27712 12 9.00098C11.6297 8.87759 11.5001 9.00142 11.5 9.50098V10.001C11.5 11.501 11.5919 12.501 13 12.501C14.4081 12.501 14.3125 12.001 14.5 10.501C14.5483 10.1138 14.5 10.0008 14.5 9.50098ZM25.5 9.50098C25.4999 9.00142 25.3703 8.87759 25 9.00098C24.1716 9.27712 24.8732 12.001 24 12.001C23.1268 12.001 23.8284 9.27712 23 9.00098C22.6297 8.87759 22.5001 9.00143 22.5 9.50098C22.5 10.0008 22.4517 9.6142 22.5 10.001C22.6746 11.3982 22.5919 12.501 24 12.501C25.4081 12.501 25.3254 11.3982 25.5 10.001C25.5483 9.61422 25.5 10.0008 25.5 9.50098ZM18.5 2.00098C17.0786 2.00098 16.0243 2.01556 15 3.00098C13.848 4.10938 13.9978 6.96011 14 7.00098H23C23.0022 6.96011 23.152 4.10938 22 3.00098C20.9757 2.01556 19.9214 2.00098 18.5 2.00098Z" fill="black"/>
</svg>
