<svg width="48" height="48" viewBox="0 0 48 48" fill="none" xmlns="http://www.w3.org/2000/svg">
<rect width="48" height="48" fill="white"/>
<rect y="36" width="48" height="12" fill="#1F1F1F"/>
<path d="M10.5503 40.5752V41.0098H9.99609V40.5752H9.92773C9.52083 40.5752 9.18473 40.4409 8.91943 40.1724C8.65413 39.9022 8.52148 39.5701 8.52148 39.1763C8.52148 38.7987 8.65088 38.4813 8.90967 38.2241C9.16846 37.9653 9.49967 37.8359 9.90332 37.8359H9.99609V37.4136H10.5503V37.8359H10.6235C11.0369 37.8359 11.373 37.9629 11.6318 38.2168C11.8923 38.4707 12.0225 38.7905 12.0225 39.1763C12.0225 39.5653 11.8898 39.8957 11.6245 40.1675C11.3592 40.4393 11.0231 40.5752 10.6162 40.5752H10.5503ZM10.5503 38.29V40.1089H10.6064C10.8538 40.1089 11.0516 40.0251 11.1997 39.8574C11.3478 39.6898 11.4219 39.466 11.4219 39.186C11.4219 38.9175 11.3478 38.701 11.1997 38.5366C11.0516 38.3722 10.8522 38.29 10.6016 38.29H10.5503ZM9.99609 40.1089V38.29H9.94238C9.69661 38.29 9.49805 38.3739 9.34668 38.5415C9.19694 38.7075 9.12207 38.9224 9.12207 39.186C9.12207 39.4676 9.19613 39.6922 9.34424 39.8599C9.49398 40.0259 9.69173 40.1089 9.9375 40.1089H9.99609ZM14.8447 41H14.332V39.1665C14.2995 39.2316 14.2498 39.3219 14.1831 39.4375L13.1309 41H12.5742V38.5H13.0942V40.2969C13.1121 40.2546 13.1504 40.1813 13.209 40.0771L14.2759 38.5H14.8447V41ZM17.8135 41H17.2446V39.9062H16.1558V41H15.5869V38.5H16.1558V39.4814H17.2446V38.5H17.8135V41ZM20.4697 41H19.9204V40.6094H19.9106C19.7381 40.9089 19.485 41.0586 19.1514 41.0586C18.9056 41.0586 18.7127 40.9919 18.5728 40.8584C18.4344 40.7249 18.3652 40.5483 18.3652 40.3286C18.3652 39.8566 18.637 39.5815 19.1807 39.5034L19.9229 39.3984C19.9229 39.042 19.7536 38.8638 19.415 38.8638C19.1172 38.8638 18.8486 38.9663 18.6094 39.1714V38.6758C18.873 38.5195 19.1774 38.4414 19.5225 38.4414C20.154 38.4414 20.4697 38.7523 20.4697 39.374V41ZM19.9229 39.772L19.3979 39.8452C19.2352 39.8664 19.1123 39.9062 19.0293 39.9648C18.9479 40.0218 18.9072 40.1227 18.9072 40.2676C18.9072 40.3734 18.9447 40.4604 19.0195 40.5288C19.096 40.5955 19.1978 40.6289 19.3247 40.6289C19.4972 40.6289 19.6396 40.5687 19.752 40.4482C19.8659 40.3262 19.9229 40.1732 19.9229 39.9893V39.772ZM23.3896 41H22.8208V39.9062H21.7319V41H21.1631V38.5H21.7319V39.4814H22.8208V38.5H23.3896V41ZM25.9165 40.8853C25.7163 41.0008 25.4795 41.0586 25.2061 41.0586C24.835 41.0586 24.5355 40.943 24.3076 40.7119C24.0798 40.4792 23.9658 40.1781 23.9658 39.8086C23.9658 39.3968 24.0879 39.0664 24.332 38.8174C24.5778 38.5667 24.9058 38.4414 25.3159 38.4414C25.5438 38.4414 25.7448 38.4813 25.9189 38.561V39.0884C25.7448 38.9582 25.5592 38.8931 25.3623 38.8931C25.123 38.8931 24.9269 38.9744 24.7739 39.1372C24.6209 39.2983 24.5444 39.5099 24.5444 39.772C24.5444 40.0308 24.616 40.235 24.7593 40.3848C24.9041 40.5345 25.0978 40.6094 25.3403 40.6094C25.5438 40.6094 25.7358 40.5369 25.9165 40.3921V40.8853ZM27.5889 41.0586C27.2031 41.0586 26.8947 40.9422 26.6636 40.7095C26.4341 40.4751 26.3193 40.165 26.3193 39.7793C26.3193 39.3594 26.439 39.0314 26.6782 38.7954C26.9191 38.5594 27.243 38.4414 27.6499 38.4414C28.0405 38.4414 28.3449 38.5562 28.563 38.7856C28.7811 39.0151 28.8901 39.3333 28.8901 39.7402C28.8901 40.139 28.7721 40.4588 28.5361 40.6997C28.3018 40.939 27.986 41.0586 27.5889 41.0586ZM27.6157 38.8931C27.3944 38.8931 27.2194 38.9704 27.0908 39.125C26.9622 39.2796 26.8979 39.4928 26.8979 39.7646C26.8979 40.0267 26.9631 40.2334 27.0933 40.3848C27.2235 40.5345 27.3976 40.6094 27.6157 40.6094C27.8387 40.6094 28.0096 40.5353 28.1284 40.3872C28.2489 40.2391 28.3091 40.0283 28.3091 39.7549C28.3091 39.4798 28.2489 39.2674 28.1284 39.1177C28.0096 38.9679 27.8387 38.8931 27.6157 38.8931ZM29.4688 41V38.5H30.6626C30.9312 38.5 31.1436 38.5545 31.2998 38.6636C31.4561 38.7726 31.5342 38.9215 31.5342 39.1104C31.5342 39.4294 31.3706 39.623 31.0435 39.6914C31.4325 39.7402 31.627 39.9323 31.627 40.2676C31.627 40.4743 31.5448 40.6484 31.3804 40.79C31.216 40.93 31.0117 41 30.7676 41H29.4688ZM30.0352 38.9004V39.5229H30.5356C30.8188 39.5229 30.9604 39.4131 30.9604 39.1934C30.9604 38.998 30.8368 38.9004 30.5894 38.9004H30.0352ZM30.0352 39.916V40.5972H30.6162C30.9059 40.5972 31.0508 40.48 31.0508 40.2456C31.0508 40.0259 30.8937 39.916 30.5796 39.916H30.0352ZM35.2769 41H34.7104V38.5H35.2769V41ZM32.2324 41V38.5H32.7988V39.4229H33.4824C33.7412 39.4229 33.9471 39.4912 34.1001 39.6279C34.2531 39.763 34.3296 39.9518 34.3296 40.1943C34.3296 40.4434 34.2498 40.6403 34.0903 40.7852C33.9325 40.9284 33.7331 41 33.4922 41H32.2324ZM32.7988 39.8306V40.5923H33.3164C33.6029 40.5923 33.7461 40.4613 33.7461 40.1992C33.7461 39.9535 33.6012 39.8306 33.3115 39.8306H32.7988ZM38.1333 39.9038H36.4292C36.4357 40.1349 36.5065 40.3132 36.6416 40.4385C36.7783 40.5638 36.9655 40.6265 37.2031 40.6265C37.4701 40.6265 37.715 40.5467 37.938 40.3872V40.8438C37.7101 40.987 37.409 41.0586 37.0347 41.0586C36.6668 41.0586 36.3779 40.9455 36.168 40.7192C35.9596 40.4914 35.8555 40.1715 35.8555 39.7598C35.8555 39.3708 35.9702 39.0542 36.1997 38.8101C36.4308 38.5643 36.7173 38.4414 37.0591 38.4414C37.4009 38.4414 37.6654 38.5513 37.8525 38.771C38.0397 38.9907 38.1333 39.2959 38.1333 39.6865V39.9038ZM37.5864 39.5034C37.5848 39.3 37.5368 39.1421 37.4424 39.0298C37.348 38.9159 37.2178 38.8589 37.0518 38.8589C36.889 38.8589 36.7507 38.9183 36.6367 39.0371C36.5244 39.1559 36.4552 39.3114 36.4292 39.5034H37.5864ZM12.3862 43.9517H11.6733V46H11.1045V43.9517H10.3867V43.5H12.3862V43.9517ZM13.4116 45.6313H13.4019V47.1499H12.8354V43.5H13.4019V43.9395H13.4116C13.6053 43.6074 13.8885 43.4414 14.2612 43.4414C14.5786 43.4414 14.826 43.5529 15.0034 43.7759C15.1808 43.9989 15.2695 44.2983 15.2695 44.6743C15.2695 45.091 15.1694 45.4246 14.9692 45.6753C14.769 45.9259 14.4956 46.0513 14.1489 46.0513C13.8299 46.0513 13.5841 45.9113 13.4116 45.6313ZM13.397 44.645V44.9551C13.397 45.1374 13.4548 45.292 13.5703 45.4189C13.6875 45.5459 13.8356 45.6094 14.0146 45.6094C14.2246 45.6094 14.389 45.528 14.5078 45.3652C14.6283 45.2008 14.6885 44.9722 14.6885 44.6792C14.6885 44.4334 14.6323 44.2414 14.52 44.103C14.4093 43.9631 14.2588 43.8931 14.0684 43.8931C13.8665 43.8931 13.7038 43.9647 13.5801 44.1079C13.458 44.2511 13.397 44.4302 13.397 44.645ZM17.7085 46H17.1592V45.6094H17.1494C16.9769 45.9089 16.7238 46.0586 16.3901 46.0586C16.1444 46.0586 15.9515 45.9919 15.8115 45.8584C15.6732 45.7249 15.604 45.5483 15.604 45.3286C15.604 44.8566 15.8758 44.5815 16.4194 44.5034L17.1616 44.3984C17.1616 44.042 16.9924 43.8638 16.6538 43.8638C16.356 43.8638 16.0874 43.9663 15.8481 44.1714V43.6758C16.1118 43.5195 16.4162 43.4414 16.7612 43.4414C17.3927 43.4414 17.7085 43.7523 17.7085 44.374V46ZM17.1616 44.772L16.6367 44.8452C16.474 44.8664 16.3511 44.9062 16.2681 44.9648C16.1867 45.0218 16.146 45.1227 16.146 45.2676C16.146 45.3734 16.1834 45.4604 16.2583 45.5288C16.3348 45.5955 16.4365 45.6289 16.5635 45.6289C16.736 45.6289 16.8784 45.5687 16.9907 45.4482C17.1047 45.3262 17.1616 45.1732 17.1616 44.9893V44.772ZM20.6284 46H20.0596V44.9062H18.9707V46H18.4019V43.5H18.9707V44.4814H20.0596V43.5H20.6284V46ZM21.1924 45.9316V45.4653C21.404 45.5825 21.6514 45.6411 21.9346 45.6411C22.3333 45.6411 22.5327 45.5207 22.5327 45.2798C22.5327 45.0389 22.2975 44.9185 21.8271 44.9185H21.5879V44.5181H21.8174C22.2357 44.5181 22.4448 44.4033 22.4448 44.1738C22.4448 44.0778 22.4001 44.0013 22.3105 43.9443C22.2227 43.8874 22.1022 43.8589 21.9492 43.8589C21.7165 43.8589 21.4837 43.9142 21.251 44.0249V43.5806C21.5326 43.4862 21.7913 43.439 22.0273 43.439C22.6898 43.439 23.021 43.6636 23.021 44.1128C23.021 44.2576 22.973 44.3822 22.877 44.4863C22.7826 44.5905 22.6491 44.6597 22.4766 44.6938V44.7061C22.667 44.7207 22.82 44.7826 22.9355 44.8916C23.0511 45.0007 23.1089 45.139 23.1089 45.3066C23.1089 45.5345 23.0096 45.716 22.811 45.8511C22.6125 45.9862 22.339 46.0537 21.9907 46.0537C21.6424 46.0537 21.3763 46.013 21.1924 45.9316ZM25.5942 46H25.0449V45.6094H25.0352C24.8626 45.9089 24.6095 46.0586 24.2759 46.0586C24.0301 46.0586 23.8372 45.9919 23.6973 45.8584C23.5589 45.7249 23.4897 45.5483 23.4897 45.3286C23.4897 44.8566 23.7616 44.5815 24.3052 44.5034L25.0474 44.3984C25.0474 44.042 24.8781 43.8638 24.5396 43.8638C24.2417 43.8638 23.9731 43.9663 23.7339 44.1714V43.6758C23.9976 43.5195 24.3019 43.4414 24.647 43.4414C25.2785 43.4414 25.5942 43.7523 25.5942 44.374V46ZM25.0474 44.772L24.5225 44.8452C24.3597 44.8664 24.2368 44.9062 24.1538 44.9648C24.0724 45.0218 24.0317 45.1227 24.0317 45.2676C24.0317 45.3734 24.0692 45.4604 24.144 45.5288C24.2205 45.5955 24.3223 45.6289 24.4492 45.6289C24.6217 45.6289 24.7642 45.5687 24.8765 45.4482C24.9904 45.3262 25.0474 45.1732 25.0474 44.9893V44.772ZM28.5581 46H27.8379L26.8662 44.7817H26.8564V46H26.2876V43.5H26.8564V44.6499H26.8662L27.7842 43.5H28.4775L27.4375 44.6914L28.5581 46ZM31.5244 46.9106H31.0508V46H28.9146V43.5H29.4834V45.5679H30.5723V43.5H31.1411V45.5679H31.5244V46.9106ZM34.3003 46H33.7876V44.1665C33.755 44.2316 33.7054 44.3219 33.6387 44.4375L32.5864 46H32.0298V43.5H32.5498V45.2969C32.5677 45.2546 32.606 45.1813 32.6646 45.0771L33.7314 43.5H34.3003V46ZM37.313 46H36.8003V44.1665C36.7677 44.2316 36.7181 44.3219 36.6514 44.4375L35.5991 46H35.0425V43.5H35.5625V45.2969C35.5804 45.2546 35.6187 45.1813 35.6772 45.0771L36.7441 43.5H37.313V46Z" fill="white"/>
<path d="M13.9336 12.2754L25.0742 5.12687C25.5265 4.83699 26.0375 4.65115 26.5703 4.58273C27.1031 4.51431 27.6445 4.56503 28.1553 4.73123L38.111 7.97546H43.4501V18.8864H41.3108C41.3108 18.8864 39.6848 22.0303 35.8558 22.0303H13.9336V12.2754Z" fill="#FCD8C0"/>
<path d="M13.9336 12.2754V22.0303H35.8558C36.3187 22.0313 36.7803 21.9828 37.2328 21.8855C40.3207 19.8205 40.2493 15.5505 40.2493 15.5505L24.4942 11.072H31.9139V10.879C31.914 10.7204 31.8829 10.5632 31.8222 10.4166C31.7615 10.2699 31.6725 10.1367 31.5603 10.0245C31.4481 9.91227 31.3149 9.82328 31.1683 9.76261C31.0216 9.70194 30.8645 9.67078 30.7058 9.6709H18L13.9336 12.2754Z" fill="#EF9E86"/>
<path d="M4.55078 12.9735L4.55078 30.5311C4.55078 31.5687 5.39195 32.4099 6.42958 32.4099H35.3507C36.3884 32.4099 37.2295 31.5687 37.2295 30.5311V12.9735C37.2295 11.9358 36.3884 11.0947 35.3507 11.0947H6.42958C5.39195 11.0947 4.55078 11.9358 4.55078 12.9735Z" fill="#FFEB99"/>
<path d="M10.1469 13.2917H22.1752C22.1751 13.8326 22.2815 14.3682 22.4884 14.868C22.6954 15.3678 22.9987 15.822 23.3812 16.2045C23.7636 16.587 24.2177 16.8905 24.7174 17.0975C25.2172 17.3046 25.7528 17.4111 26.2937 17.4111H29.1616C29.1616 17.4111 30.6573 20.3938 34.9765 20.6418V27.8521C34.9765 28.3816 35.1869 28.8894 35.5613 29.2639C35.9357 29.6383 36.4435 29.8486 36.9731 29.8486H37.2278V12.9732C37.2278 12.7265 37.1792 12.4823 37.0848 12.2544C36.9903 12.0265 36.8519 11.8194 36.6775 11.645C36.503 11.4707 36.2959 11.3324 36.0679 11.238C35.84 11.1437 35.5957 11.0952 35.349 11.0954H7.57617C7.67348 11.7074 7.98573 12.2646 8.45687 12.6671C8.92801 13.0697 9.52718 13.2911 10.1469 13.2917Z" fill="#EAB67D"/>
<path d="M4.55078 22.9318V27.6592H37.2295V22.9318H4.55078Z" fill="#999999"/>
<path d="M40.0121 15.8847C38.7287 18.3367 35.635 18.4004 35.635 18.4004C31.4857 18.4004 30.3142 15.3559 30.3142 15.3559H24.8602C24.5804 15.3559 24.3034 15.3008 24.0449 15.1937C23.7865 15.0866 23.5517 14.9297 23.3539 14.7318C23.1561 14.5339 22.9993 14.299 22.8923 14.0405C22.7853 13.782 22.7303 13.505 22.7305 13.2252C22.7305 12.6604 22.9548 12.1187 23.3542 11.7193C23.7536 11.3199 24.2953 11.0956 24.8602 11.0956H31.3708L38.4151 10.0138C38.6127 9.98334 38.8145 9.99596 39.0067 10.0508C39.199 10.1057 39.377 10.2015 39.5288 10.3317C39.6805 10.4618 39.8022 10.6233 39.8857 10.805C39.9691 10.9866 40.0123 11.1842 40.0121 11.3841V15.8847Z" fill="#FCD8C0"/>
<path d="M34.9785 22.9318V27.6592H37.2298V22.9318H34.9785Z" fill="#808080"/>
<path d="M11.2622 29.8479H4.55078V30.5311C4.55078 31.0294 4.74873 31.5073 5.10107 31.8596C5.45341 32.212 5.93129 32.4099 6.42958 32.4099H13.9264C13.8995 31.7213 13.607 31.0699 13.1103 30.5923C12.6136 30.1147 11.9513 29.8479 11.2622 29.8479Z" fill="#FFFBEE"/>
<path d="M37.7808 30.5317V22.312C39.979 21.6781 41.1958 20.1013 41.6223 19.4374H43.449C43.5951 19.4374 43.7353 19.3793 43.8386 19.276C43.9419 19.1727 44 19.0325 44 18.8864V7.97547C44 7.82933 43.9419 7.68918 43.8386 7.58585C43.7353 7.48252 43.5951 7.42447 43.449 7.42447H38.1976L28.324 4.20725C27.7353 4.01421 27.1109 3.95501 26.4964 4.03397C25.8819 4.11294 25.2928 4.32807 24.772 4.66368L18.6097 8.62007C18.4867 8.69902 18.4001 8.82359 18.369 8.96637C18.3379 9.10916 18.3647 9.25846 18.4437 9.38143C18.5226 9.5044 18.6472 9.59097 18.79 9.6221C18.9328 9.65322 19.0821 9.62636 19.2051 9.5474L25.3664 5.59102C25.7495 5.34414 26.1829 5.18588 26.635 5.12778C27.0871 5.06969 27.5464 5.11322 27.9795 5.25521L37.939 8.49848C37.9941 8.51651 38.0518 8.52563 38.1098 8.5255H42.898V18.3354H41.3097C41.2086 18.3354 41.1095 18.3632 41.0231 18.4158C40.9368 18.4684 40.8667 18.5437 40.8204 18.6336C40.1298 19.8016 39.0556 20.6941 37.7808 21.1589V18.4888C38.7534 18.1028 39.8323 17.411 40.4972 16.1391C40.5391 16.0608 40.561 15.9732 40.5608 15.8844C40.5609 15.7611 40.5197 15.6413 40.4436 15.5442C40.3676 15.4472 40.2612 15.3784 40.1415 15.3489C40.0218 15.3195 39.8956 15.331 39.7832 15.3817C39.6708 15.4324 39.5787 15.5194 39.5216 15.6287C38.409 17.7516 35.6482 17.8481 35.6327 17.8481C31.935 17.8481 30.8687 15.2649 30.8262 15.1568C30.7862 15.0528 30.7157 14.9634 30.6238 14.9004C30.532 14.8373 30.4233 14.8036 30.3119 14.8036H24.8579C24.6472 14.8088 24.4376 14.7718 24.2415 14.6948C24.0453 14.6178 23.8666 14.5023 23.7157 14.3551C23.5649 14.208 23.445 14.0321 23.3632 13.8379C23.2813 13.6438 23.2392 13.4352 23.2392 13.2244C23.2392 13.0137 23.2813 12.8051 23.3632 12.6109C23.445 12.4167 23.5649 12.2409 23.7157 12.0937C23.8666 11.9466 24.0453 11.8311 24.2415 11.7541C24.4376 11.677 24.6472 11.64 24.8579 11.6453H31.3685C31.5147 11.6453 31.6548 11.5872 31.7581 11.4839C31.8615 11.3805 31.9195 11.2404 31.9195 11.0943C31.9195 10.9481 31.8615 10.808 31.7581 10.7046C31.6548 10.6013 31.5147 10.5433 31.3685 10.5433H24.8579C24.1556 10.5566 23.4866 10.8449 22.9946 11.3463C22.5027 11.8476 22.2271 12.522 22.2271 13.2244C22.2271 13.9268 22.5027 14.6012 22.9946 15.1026C23.4866 15.6039 24.1556 15.8923 24.8579 15.9056H29.9664C30.4383 16.7789 31.9803 18.9501 35.6433 18.9491C35.9917 18.9346 36.3382 18.8897 36.6788 18.815V27.108H5.102L5.102 23.4816H34.7623C34.8366 23.4847 34.9107 23.4728 34.9802 23.4465C35.0497 23.4202 35.1131 23.3802 35.1668 23.3288C35.2204 23.2773 35.2631 23.2156 35.2922 23.1472C35.3214 23.0789 35.3364 23.0054 35.3364 22.9311C35.3364 22.8568 35.3214 22.7832 35.2922 22.7149C35.2631 22.6466 35.2204 22.5848 35.1668 22.5334C35.1131 22.482 35.0497 22.4419 34.9802 22.4157C34.9107 22.3894 34.8366 22.3775 34.7623 22.3806H5.102L5.102 12.9731C5.10251 12.6211 5.2426 12.2838 5.49152 12.0351C5.74045 11.7863 6.07789 11.6465 6.4298 11.6462H21.0211C21.1673 11.6462 21.3074 11.5882 21.4107 11.4848C21.5141 11.3815 21.5721 11.2414 21.5721 11.0952C21.5721 10.9491 21.5141 10.8089 21.4107 10.7056C21.3074 10.6023 21.1673 10.5442 21.0211 10.5442H6.4298C5.78578 10.545 5.16834 10.8011 4.71286 11.2564C4.25738 11.7117 4.00102 12.329 4 12.9731L4 30.5355C4.00077 31.1797 4.25701 31.7973 4.71252 32.2528C5.16803 32.7083 5.78561 32.9646 6.4298 32.9653H35.351C35.6703 32.9651 35.9865 32.9019 36.2814 32.7795C36.5763 32.657 36.8443 32.4777 37.0699 32.2517C37.2955 32.0257 37.4744 31.7575 37.5964 31.4624C37.7184 31.1673 37.781 30.851 37.7808 30.5317ZM6.4298 31.8595C6.07772 31.8592 5.74014 31.7192 5.49118 31.4703C5.24223 31.2213 5.10225 30.8838 5.102 30.5317V28.21H36.6788V30.5317C36.6785 30.8838 36.5385 31.2213 36.2896 31.4703C36.0406 31.7192 35.703 31.8592 35.351 31.8595H6.4298Z" fill="#4D4D4D"/>
<path d="M28.9412 19.4085C28.9409 19.2625 28.8828 19.1226 28.7795 19.0195C28.6762 18.9164 28.5361 18.8584 28.3902 18.8584H21.2127C21.1385 18.8553 21.0644 18.8673 20.9949 18.8935C20.9254 18.9198 20.8619 18.9599 20.8083 19.0113C20.7547 19.0627 20.712 19.1244 20.6828 19.1928C20.6537 19.2611 20.6387 19.3347 20.6387 19.409C20.6387 19.4833 20.6537 19.5568 20.6828 19.6251C20.712 19.6935 20.7547 19.7552 20.8083 19.8066C20.8619 19.8581 20.9254 19.8981 20.9949 19.9244C21.0644 19.9506 21.1385 19.9626 21.2127 19.9595H28.3902C28.5363 19.9595 28.6765 19.9014 28.7798 19.7981C28.8831 19.6948 28.9412 19.5546 28.9412 19.4085Z" fill="#4D4D4D"/>
<path d="M18.7791 19.9484C18.8139 19.9414 18.8479 19.9308 18.8804 19.9165C18.9144 19.9035 18.9468 19.8867 18.9769 19.8664C19.007 19.8462 19.0348 19.8229 19.0599 19.7969C19.1366 19.7201 19.189 19.6224 19.2103 19.516C19.2316 19.4096 19.2209 19.2992 19.1797 19.1989C19.1384 19.0985 19.0684 19.0126 18.9784 18.9519C18.8884 18.8912 18.7825 18.8586 18.6739 18.858C18.6376 18.8576 18.6014 18.8612 18.5658 18.8686C18.5304 18.8762 18.4955 18.8865 18.4616 18.8995C18.428 18.9135 18.3957 18.9306 18.3651 18.9506C18.3354 18.9708 18.3076 18.9937 18.2821 19.0191C18.179 19.1223 18.1211 19.2621 18.1211 19.408C18.1211 19.5539 18.179 19.6937 18.2821 19.7969C18.3071 19.8231 18.3349 19.8464 18.3651 19.8664C18.3955 19.8864 18.4278 19.9032 18.4616 19.9165C18.4952 19.9307 18.5301 19.9413 18.5658 19.9484C18.6014 19.9556 18.6376 19.9595 18.6739 19.96C18.7093 19.9592 18.7445 19.9554 18.7791 19.9484Z" fill="#4D4D4D"/>
<path d="M16.5746 19.7969C16.6777 19.6937 16.7356 19.5539 16.7356 19.408C16.7356 19.2621 16.6777 19.1223 16.5746 19.0191C16.5488 18.9937 16.5207 18.9708 16.4906 18.9506C16.4603 18.9303 16.428 18.9131 16.3941 18.8995C16.3628 18.8866 16.3306 18.8763 16.2976 18.8686C16.2618 18.8611 16.2252 18.8576 16.1886 18.858C16.1526 18.8577 16.1167 18.8612 16.0815 18.8686C16.0463 18.8761 16.0117 18.8864 15.9782 18.8995C15.9446 18.9136 15.9123 18.9307 15.8817 18.9506C15.8518 18.971 15.8238 18.9939 15.7978 19.0191C15.6946 19.1223 15.6367 19.2621 15.6367 19.408C15.6367 19.5539 15.6946 19.6937 15.7978 19.7969C15.8232 19.8229 15.8514 19.8462 15.8817 19.8664C15.9121 19.8863 15.9444 19.9032 15.9782 19.9165C16.0114 19.9308 16.046 19.9415 16.0815 19.9484C16.1167 19.9556 16.1526 19.9594 16.1886 19.96C16.3336 19.958 16.4721 19.8995 16.5746 19.7969Z" fill="#4D4D4D"/>
<path d="M14.0201 19.9165C14.054 19.9034 14.0864 19.8866 14.1166 19.8664C14.1475 19.847 14.1757 19.8236 14.2005 19.7969C14.2773 19.7201 14.3296 19.6224 14.3509 19.516C14.3722 19.4096 14.3616 19.2992 14.3203 19.1989C14.279 19.0985 14.209 19.0126 14.119 18.9519C14.029 18.8912 13.9231 18.8586 13.8145 18.858C13.7782 18.8576 13.742 18.8612 13.7065 18.8686C13.6713 18.8761 13.6367 18.8864 13.6032 18.8995C13.5696 18.9135 13.5373 18.9306 13.5067 18.9506C13.4767 18.9708 13.4486 18.9937 13.4228 19.0191C13.3196 19.1223 13.2617 19.2621 13.2617 19.408C13.2617 19.5539 13.3196 19.6937 13.4228 19.7969C13.448 19.8231 13.4762 19.8464 13.5067 19.8664C13.5371 19.8864 13.5694 19.9032 13.6032 19.9165C13.6364 19.9308 13.671 19.9415 13.7065 19.9484C13.7421 19.9556 13.7782 19.9595 13.8145 19.96C13.8505 19.9595 13.8864 19.9556 13.9217 19.9484C13.9555 19.9414 13.9885 19.9307 14.0201 19.9165Z" fill="#4D4D4D"/>
</svg>
