<svg width="49" height="48" viewBox="0 0 49 48" fill="none" xmlns="http://www.w3.org/2000/svg">
<path fill-rule="evenodd" clip-rule="evenodd" d="M24.029 0.344971C10.759 0.344971 0 11.104 0 24.378C0 34.995 6.885 44.002 16.435 47.181C17.637 47.401 18.075 46.659 18.075 46.021C18.075 45.452 18.055 43.94 18.043 41.935C11.358 43.387 9.948 38.713 9.948 38.713C8.855 35.938 7.279 35.199 7.279 35.199C5.097 33.707 7.444 33.737 7.444 33.737C9.856 33.908 11.125 36.214 11.125 36.214C13.269 39.886 16.75 38.825 18.119 38.211C18.338 36.658 18.957 35.599 19.645 34.998C14.309 34.392 8.698 32.329 8.698 23.121C8.698 20.498 9.635 18.352 11.172 16.672C10.925 16.064 10.1 13.621 11.407 10.312C11.407 10.312 13.425 9.66597 18.016 12.776C19.933 12.243 21.989 11.976 24.032 11.967C26.073 11.976 28.129 12.243 30.049 12.776C34.637 9.66597 36.651 10.312 36.651 10.312C37.962 13.621 37.137 16.064 36.89 16.672C38.43 18.352 39.361 20.498 39.361 23.121C39.361 32.353 33.741 34.384 28.387 34.979C29.251 35.721 30.019 37.187 30.019 39.43C30.019 42.642 29.99 45.234 29.99 46.021C29.99 46.665 30.422 47.413 31.642 47.178C41.184 43.993 48.063 34.992 48.063 24.378C48.063 11.104 37.303 0.344971 24.029 0.344971Z" fill="#010101"/>
</svg>
