<svg width="479" height="479" viewBox="0 0 479 479" fill="none" xmlns="http://www.w3.org/2000/svg">
<path fill-rule="evenodd" clip-rule="evenodd" d="M34.6662 86.062H398.661C417.727 86.062 433.327 101.662 433.327 120.728V242.5L415.994 232V120.728C415.994 115.528 414.261 112.061 410.795 108.595L277.329 224.727L327 267.947L314.5 280.906L263.463 236.86L216.664 276.726L169.864 236.86L43.3323 346.059L291 346.059L300 363.391H34.6662C15.5993 363.391 0 347.791 0 328.725V120.728C0 101.662 15.5993 86.062 34.6662 86.062ZM216.663 254.194L389.994 103.396H43.3323L216.663 254.194ZM17.3331 328.725C17.3331 333.926 19.0659 337.392 22.5326 340.859L155.998 224.727L22.5326 108.595C19.0669 112.062 17.3331 115.529 17.3331 120.728V328.725Z" fill="#151515"/>
<path d="M400.504 259.099C443.555 259.099 478.455 293.999 478.455 337.049C478.455 380.1 443.555 415 400.504 415C357.453 415 322.554 380.1 322.554 337.049C322.554 293.999 357.453 259.099 400.504 259.099ZM390.02 343.874L361.762 315.617L345.748 331.63L374.006 359.888V359.889L390.02 375.903L461.045 304.877L445.031 288.865L390.02 343.874Z" fill="black"/>
<path d="M400.504 250.498C443.555 250.498 478.455 285.397 478.455 328.448C478.455 371.499 443.555 406.399 400.504 406.399C357.453 406.399 322.554 371.499 322.554 328.448C322.554 285.397 357.453 250.498 400.504 250.498ZM390.02 350.326L361.762 322.068L345.748 338.082L374.006 366.339V366.34L390.02 382.354L461.045 311.329L445.031 295.315L390.02 350.326Z" fill="#151515"/>
</svg>
