<?xml version="1.0" ?><svg height="32" viewBox="0 0 32 32" width="32" xmlns="http://www.w3.org/2000/svg"><defs><style>.a{fill:#caadff;}.b{fill:#3900a3;}.c{fill:#8a4aff;}</style></defs><path class="a" d="M28.2,14.72a1.39,1.39,0,0,0-1.13-1l-2.13-.31-1-1.93a1.41,1.41,0,0,0-2.52,0l-.95,1.93-2.13.31a1.39,1.39,0,0,0-1.13,1,1.4,1.4,0,0,0,.35,1.44l1.54,1.5-.36,2.13a1.39,1.39,0,0,0,.56,1.37,1.44,1.44,0,0,0,.82.27,1.4,1.4,0,0,0,.65-.17l1.91-1,1.91,1a1.4,1.4,0,0,0,2-1.47l-.37-2.13,1.55-1.5A1.4,1.4,0,0,0,28.2,14.72Z"/><path class="b" d="M5,13A14.3,14.3,0,0,1,5.43,9.6,12.85,12.85,0,0,0,3.73,16,13,13,0,0,0,24,26.79a1,1,0,0,0,.21-.2A14.38,14.38,0,0,1,5,13Z"/><path class="c" d="M24.37,25.64a1,1,0,0,0-1-.68H23.2l-.37,0a9,9,0,1,1,0-18l.32,0h.19a1,1,0,0,0,1-.68A1,1,0,0,0,24,5.19,13,13,0,0,0,5.43,9.6a14.37,14.37,0,0,0,18.76,17A1,1,0,0,0,24.37,25.64Z"/></svg>