<svg width="96" height="96" viewBox="0 0 96 96" fill="none" xmlns="http://www.w3.org/2000/svg">
<path d="M48 4C23.7 4 4 23.699 4 48C4 72.301 23.7 92 48 92C72.3 92 92 72.301 92 48C92 23.699 72.3 4 48 4ZM48 84C28.118 84 12 67.882 12 48C12 28.118 28.118 12 48 12C67.882 12 84 28.118 84 48C84 67.882 67.882 84 48 84ZM62.143 33.859C60.581 32.297 58.046 32.297 56.485 33.859L48 42.343L39.516 33.86C37.954 32.298 35.42 32.298 33.858 33.86C32.296 35.422 32.296 37.956 33.858 39.516L42.343 48L33.858 56.484C32.296 58.046 32.296 60.58 33.858 62.14C35.42 63.702 37.954 63.702 39.516 62.14L48 53.657L56.484 62.14C58.046 63.702 60.58 63.702 62.142 62.14C63.704 60.578 63.704 58.043 62.142 56.484L53.657 48L62.142 39.516C63.704 37.953 63.704 35.42 62.143 33.859Z" fill="black"/>
</svg>
