<svg width="512" height="512" viewBox="0 0 512 512" fill="none" xmlns="http://www.w3.org/2000/svg">
<path d="M464.35 255.6C463.16 168.9 410.08 91.27 328.8 60.28C247 29.09 150.45 55.1 95.1001 122.79C40.0001 190.16 31.6601 287.19 76.5301 362.29C121.32 437.24 209.1 475.85 294.62 460.46C392.11 442.92 461.89 355.34 464.27 257.82C464.33 257.11 464.36 256.36 464.35 255.6ZM314 416.09C246.2 440.39 169.2 419.14 123.47 363.51C78.3701 308.64 73.0001 228.84 109.28 168.05C145.39 107.62 217.68 74.47 287.07 87.75C367.74 103.2 425.31 174 426.43 255.6C425.45 326.61 381.58 391.87 314 416.09Z" fill="black"/>
<path d="M332.3 175.33L236.55 297.17L188.84 265.94C168.36 252.54 149.34 285.35 169.7 298.68L231 338.84C237.31 342.97 249 342.16 254 335.84L359.11 202.14C374 183.16 347.37 156.14 332.3 175.33Z" fill="black"/>
</svg>
