<svg width="402" height="402" viewBox="0 0 402 402" fill="none" xmlns="http://www.w3.org/2000/svg">
<g clip-path="url(#clip0_48_2)">
<path d="M200.998 0C236.025 4.74358e-05 266.093 12.5635 291.217 37.6895C316.343 62.8144 328.902 92.8853 328.902 127.907V182.728H338.033C345.65 182.728 352.119 185.391 357.45 190.721C362.782 196.051 365.455 202.523 365.451 210.135V374.59C365.451 382.201 362.782 388.676 357.457 394.007C352.125 399.335 345.657 401.998 338.04 401.998H63.9561C56.3451 401.998 49.872 399.332 44.542 394.007C39.213 388.676 36.5479 382.201 36.5479 374.59V210.138C36.5479 202.52 39.2121 196.047 44.542 190.721C49.872 185.391 56.3452 182.728 63.9561 182.728H73.0908V127.907C73.0908 92.8844 85.6497 62.8144 110.775 37.6885C135.897 12.5635 165.972 0 200.998 0ZM106.926 244.352C98.222 244.352 90.926 246.101 85.0381 249.6C79.2355 253.013 74.8838 257.493 71.9824 263.04C69.0811 268.587 67.6299 274.56 67.6299 280.96H95.1504C95.1504 278.571 95.5764 276.394 96.4297 274.432C97.3683 272.469 98.6484 270.933 100.27 269.824C101.891 268.63 103.769 268.032 105.902 268.032C107.524 268.032 108.889 268.288 109.998 268.8C111.193 269.226 112.174 269.824 112.942 270.592C113.71 271.36 114.265 272.256 114.606 273.28C114.948 274.304 115.118 275.371 115.118 276.48C115.118 278.784 114.606 280.96 113.582 283.008C112.558 285.056 111.064 287.19 109.102 289.408C107.224 291.541 104.963 294.059 102.318 296.96L63.79 336H147.502V310.4H114.606L130.734 297.984C134.83 294.827 138.115 291.371 140.59 287.616C143.065 283.776 144.302 279.381 144.302 274.432C144.302 270.592 143.449 266.88 141.742 263.296C140.121 259.712 137.689 256.512 134.446 253.696C131.289 250.795 127.363 248.533 122.67 246.912C118.062 245.205 112.814 244.352 106.926 244.352ZM172.46 246.4V336H199.34V304.64H230.7V282.88H199.34V270.08H231.98V246.4H172.46ZM240.255 336H272.255L278.554 324.48H302.918L309.375 336H341.375L290.815 240L240.255 336ZM298.458 304.256H283.172L290.815 287.104L298.458 304.256ZM201.001 54.8213C180.824 54.8213 163.6 61.9574 149.323 76.2324C135.048 90.5054 127.909 107.732 127.909 127.907V182.728H274.087V127.907C274.087 107.732 266.949 90.5044 252.678 76.2324C238.4 61.9565 221.18 54.8213 201.001 54.8213Z" fill="black"/>
</g>
<defs>
<clipPath id="clip0_48_2">
<rect width="401.998" height="401.998" fill="white"/>
</clipPath>
</defs>
</svg>
