<svg width="512" height="512" viewBox="0 0 512 512" fill="none" xmlns="http://www.w3.org/2000/svg">
<path d="M233.5 61C177.141 61 123.091 83.3883 83.2398 123.24C43.3883 163.091 21 217.141 21 273.5C21 329.858 43.3883 383.909 83.2398 423.76C123.091 463.612 177.141 486 233.5 486C289.858 486 343.909 463.612 383.76 423.76C423.612 383.909 446 329.858 446 273.5C446 261.694 445.056 249.889 442.931 238.083C436.556 226.278 422.389 226.278 422.389 226.278H375.167V202.667C375.167 179.056 351.556 179.056 351.556 179.056H304.333V155.444C304.333 131.833 280.722 131.833 280.722 131.833H257.111V84.6111C257.111 61 233.5 61 233.5 61ZM174.472 131.833C183.865 131.833 192.874 135.565 199.516 142.207C206.158 148.849 209.889 157.857 209.889 167.25C209.889 176.643 206.158 185.651 199.516 192.293C192.874 198.935 183.865 202.667 174.472 202.667C165.079 202.667 156.071 198.935 149.429 192.293C142.787 185.651 139.056 176.643 139.056 167.25C139.056 157.857 142.787 148.849 149.429 142.207C156.071 135.565 165.079 131.833 174.472 131.833ZM103.639 226.278C113.032 226.278 122.04 230.009 128.682 236.651C135.324 243.293 139.056 252.301 139.056 261.694C139.056 271.088 135.324 280.096 128.682 286.738C122.04 293.38 113.032 297.111 103.639 297.111C94.2458 297.111 85.2374 293.38 78.5955 286.738C71.9536 280.096 68.2222 271.088 68.2222 261.694C68.2222 252.301 71.9536 243.293 78.5955 236.651C85.2374 230.009 94.2458 226.278 103.639 226.278ZM221.694 249.889C231.088 249.889 240.096 253.62 246.738 260.262C253.38 266.904 257.111 275.912 257.111 285.306C257.111 294.699 253.38 303.707 246.738 310.349C240.096 316.991 231.088 320.722 221.694 320.722C212.301 320.722 203.293 316.991 196.651 310.349C190.009 303.707 186.278 294.699 186.278 285.306C186.278 275.912 190.009 266.904 196.651 260.262C203.293 253.62 212.301 249.889 221.694 249.889ZM339.75 297.111C349.143 297.111 358.151 300.842 364.793 307.484C371.435 314.126 375.167 323.135 375.167 332.528C375.167 341.921 371.435 350.929 364.793 357.571C358.151 364.213 349.143 367.944 339.75 367.944C330.357 367.944 321.349 364.213 314.707 357.571C308.065 350.929 304.333 341.921 304.333 332.528C304.333 323.135 308.065 314.126 314.707 307.484C321.349 300.842 330.357 297.111 339.75 297.111ZM209.889 367.944C219.282 367.944 228.29 371.676 234.932 378.318C241.574 384.96 245.306 393.968 245.306 403.361C245.306 412.754 241.574 421.763 234.932 428.404C228.29 435.046 219.282 438.778 209.889 438.778C200.496 438.778 191.487 435.046 184.846 428.404C178.204 421.763 174.472 412.754 174.472 403.361C174.472 393.968 178.204 384.96 184.846 378.318C191.487 371.676 200.496 367.944 209.889 367.944Z" fill="black"/>
<g clip-path="url(#clip0_48_22)">
<path d="M461.508 55.8001L446.418 39.5491L464.024 23.2011L455.771 14.9489L427.746 24.9824V57.9982L340.367 141.465C338.632 143.122 334.869 146.717 343.193 155.431C351.518 164.145 355.28 160.55 357.015 158.893L444.627 75.2046H480.047L488 47.1793L479.714 38.8931L461.508 55.8001Z" fill="black"/>
<path d="M428.604 94.4504L411.557 111.497L461.236 158.475C462.664 159.827 465.763 162.757 474.124 154.078C482.483 145.4 479.383 142.469 477.954 141.117L428.604 94.4504Z" fill="black"/>
<path d="M402.453 75.4738L360.365 33.386L355.188 23.553L344.157 20.4402L339.185 25.4126L342.297 36.4434L352.13 41.6211L394.218 83.7084L402.453 75.4738Z" fill="black"/>
</g>
<defs>
<clipPath id="clip0_48_22">
<rect width="150" height="150" fill="white" transform="translate(338 13)"/>
</clipPath>
</defs>
</svg>
