<svg width="394" height="50" viewBox="0 0 394 50" fill="none" xmlns="http://www.w3.org/2000/svg">
<rect x="8" y="13" width="24" height="24" rx="4" fill="url(#paint0_linear_68_13)"/>
<path d="M13.728 25.4768C13.3259 25.0982 13.3069 24.4653 13.6856 24.0632L14.5484 23.1469C14.9271 22.7448 15.5599 22.7258 15.962 23.1044L19.6822 26.6076L17.4482 28.98L13.728 25.4768Z" fill="white"/>
<path d="M24.9882 20.7071C25.3787 20.3166 26.0119 20.3166 26.4024 20.7071L27.2924 21.5971C27.683 21.9876 27.683 22.6208 27.2924 23.0113L19.3587 30.9451L17.0545 28.6409L24.9882 20.7071Z" fill="white"/>
<path d="M43.05 22.18H38.815V29H37.88V21.3H43.985V29H43.05V22.18ZM45.2483 26.47C45.2483 25.9567 45.3619 25.502 45.5893 25.106C45.8239 24.71 46.1393 24.3983 46.5353 24.171C46.9313 23.9437 47.3749 23.83 47.8663 23.83C48.3649 23.83 48.8086 23.9437 49.1973 24.171C49.5933 24.3983 49.9049 24.71 50.1323 25.106C50.3669 25.502 50.4843 25.9567 50.4843 26.47C50.4843 26.976 50.3669 27.4307 50.1323 27.834C49.9049 28.23 49.5933 28.5417 49.1973 28.769C48.8086 28.9963 48.3649 29.11 47.8663 29.11C47.3749 29.11 46.9313 28.9963 46.5353 28.769C46.1393 28.5417 45.8239 28.23 45.5893 27.834C45.3619 27.4307 45.2483 26.976 45.2483 26.47ZM46.1393 26.47C46.1393 26.822 46.2126 27.1337 46.3593 27.405C46.5133 27.6763 46.7186 27.8927 46.9753 28.054C47.2393 28.208 47.5363 28.285 47.8663 28.285C48.1963 28.285 48.4896 28.208 48.7463 28.054C49.0103 27.8927 49.2156 27.6763 49.3623 27.405C49.5163 27.1337 49.5933 26.822 49.5933 26.47C49.5933 26.118 49.5163 25.8063 49.3623 25.535C49.2156 25.2563 49.0103 25.04 48.7463 24.886C48.4896 24.732 48.1963 24.655 47.8663 24.655C47.5363 24.655 47.2393 24.732 46.9753 24.886C46.7186 25.04 46.5133 25.2563 46.3593 25.535C46.2126 25.8063 46.1393 26.118 46.1393 26.47ZM53.8953 25.458L52.4103 28.67H51.4203L53.8953 23.555L56.3703 28.67H55.3803L53.8953 25.458ZM56.1503 29H51.6953V29.99H50.7603V28.175H57.0303V29.99H56.1503V29ZM57.5833 23.94H60.5533V24.765H57.5833V23.94ZM58.6283 24.16H59.5083V29H58.6283V24.16ZM61.9533 26.36H63.4163C63.7683 26.36 64.0837 26.3967 64.3623 26.47C64.641 26.5433 64.861 26.6717 65.0223 26.855C65.1837 27.0383 65.2643 27.295 65.2643 27.625C65.2643 28.0063 65.136 28.3327 64.8793 28.604C64.63 28.868 64.2157 29 63.6363 29H61.9533V28.23H63.4163C63.7463 28.23 63.9883 28.1603 64.1423 28.021C64.3037 27.8817 64.3843 27.713 64.3843 27.515C64.3843 27.4123 64.3623 27.3207 64.3183 27.24C64.2817 27.1593 64.223 27.086 64.1423 27.02C64.069 26.954 63.97 26.9063 63.8453 26.877C63.728 26.8403 63.585 26.822 63.4163 26.822H61.9533V26.36ZM61.9533 26.58V26.063H63.3063C63.4383 26.063 63.5557 26.0483 63.6583 26.019C63.7683 25.9823 63.86 25.931 63.9333 25.865C64.0067 25.799 64.0617 25.7257 64.0983 25.645C64.1423 25.557 64.1643 25.4653 64.1643 25.37C64.1643 25.172 64.0873 25.0143 63.9333 24.897C63.7793 24.7723 63.5703 24.71 63.3063 24.71H61.9533V23.94H63.3063C63.6217 23.94 63.9077 23.9877 64.1643 24.083C64.4283 24.171 64.641 24.3177 64.8023 24.523C64.9637 24.721 65.0443 24.985 65.0443 25.315C65.0443 25.601 64.9637 25.8393 64.8023 26.03C64.641 26.2133 64.4283 26.3527 64.1643 26.448C63.9077 26.536 63.6217 26.58 63.3063 26.58H61.9533ZM61.4363 23.94H62.3163V29H61.4363V23.94ZM66.5417 26.69V25.942H69.9187C69.8894 25.678 69.816 25.447 69.6987 25.249C69.5887 25.0437 69.431 24.886 69.2257 24.776C69.0277 24.6587 68.782 24.6 68.4887 24.6C68.1954 24.6 67.9277 24.6623 67.6857 24.787C67.4437 24.9117 67.2494 25.0913 67.1027 25.326C66.9634 25.5533 66.8937 25.8247 66.8937 26.14L66.8717 26.47C66.8717 26.8587 66.9377 27.1887 67.0697 27.46C67.2017 27.7313 67.3887 27.9367 67.6307 28.076C67.8727 28.2153 68.1587 28.285 68.4887 28.285C68.738 28.285 68.958 28.2483 69.1487 28.175C69.3467 28.0943 69.5227 27.988 69.6767 27.856C69.8307 27.7167 69.9627 27.5553 70.0727 27.372L70.7877 27.823C70.619 28.0797 70.432 28.307 70.2267 28.505C70.0214 28.6957 69.772 28.846 69.4787 28.956C69.1854 29.0587 68.8187 29.11 68.3787 29.11C67.924 29.11 67.5134 28.9963 67.1467 28.769C66.7874 28.5417 66.5014 28.23 66.2887 27.834C66.0834 27.4307 65.9807 26.976 65.9807 26.47C65.9807 26.3747 65.9844 26.283 65.9917 26.195C65.999 26.107 66.01 26.019 66.0247 25.931C66.098 25.513 66.2447 25.1463 66.4647 24.831C66.6847 24.5157 66.967 24.27 67.3117 24.094C67.6637 23.918 68.056 23.83 68.4887 23.83C68.9654 23.83 69.3834 23.9363 69.7427 24.149C70.102 24.3617 70.3807 24.6623 70.5787 25.051C70.7767 25.4323 70.8757 25.8907 70.8757 26.426C70.8757 26.47 70.8757 26.514 70.8757 26.558C70.8757 26.602 70.872 26.646 70.8647 26.69H66.5417ZM72.9068 31.42H72.0268V23.94H72.9068V31.42ZM77.1418 26.47C77.1418 27.0127 77.0282 27.482 76.8008 27.878C76.5735 28.274 76.2692 28.5783 75.8878 28.791C75.5138 29.0037 75.0958 29.11 74.6338 29.11C74.2158 29.11 73.8455 29.0037 73.5228 28.791C73.2075 28.5783 72.9582 28.274 72.7748 27.878C72.5988 27.482 72.5108 27.0127 72.5108 26.47C72.5108 25.92 72.5988 25.4507 72.7748 25.062C72.9582 24.666 73.2075 24.3617 73.5228 24.149C73.8455 23.9363 74.2158 23.83 74.6338 23.83C75.0958 23.83 75.5138 23.9363 75.8878 24.149C76.2692 24.3617 76.5735 24.666 76.8008 25.062C77.0282 25.4507 77.1418 25.92 77.1418 26.47ZM76.2508 26.47C76.2508 26.0813 76.1702 25.7513 76.0088 25.48C75.8548 25.2087 75.6458 25.0033 75.3818 24.864C75.1252 24.7247 74.8392 24.655 74.5238 24.655C74.2672 24.655 74.0142 24.7247 73.7648 24.864C73.5155 25.0033 73.3102 25.2087 73.1488 25.48C72.9875 25.7513 72.9068 26.0813 72.9068 26.47C72.9068 26.8587 72.9875 27.1887 73.1488 27.46C73.3102 27.7313 73.5155 27.9367 73.7648 28.076C74.0142 28.2153 74.2672 28.285 74.5238 28.285C74.8392 28.285 75.1252 28.2153 75.3818 28.076C75.6458 27.9367 75.8548 27.7313 76.0088 27.46C76.1702 27.1887 76.2508 26.8587 76.2508 26.47ZM83.4741 23.94H84.5741L82.2641 26.14L84.7941 29H83.6941L81.2741 26.03L83.4741 23.94ZM81.4941 23.94V29H80.6691V23.94H81.4941ZM78.6891 23.94L80.8891 26.03L78.4691 29H77.3691L79.8991 26.14L77.5891 23.94H78.6891ZM88.7 25.458L87.215 28.67H86.225L88.7 23.555L91.175 28.67H90.185L88.7 25.458ZM90.955 29H86.5V29.99H85.565V28.175H91.835V29.99H90.955V29ZM93.279 26.69V25.942H96.656C96.6267 25.678 96.5533 25.447 96.436 25.249C96.326 25.0437 96.1683 24.886 95.963 24.776C95.765 24.6587 95.5193 24.6 95.226 24.6C94.9327 24.6 94.665 24.6623 94.423 24.787C94.181 24.9117 93.9867 25.0913 93.84 25.326C93.7007 25.5533 93.631 25.8247 93.631 26.14L93.609 26.47C93.609 26.8587 93.675 27.1887 93.807 27.46C93.939 27.7313 94.126 27.9367 94.368 28.076C94.61 28.2153 94.896 28.285 95.226 28.285C95.4753 28.285 95.6953 28.2483 95.886 28.175C96.084 28.0943 96.26 27.988 96.414 27.856C96.568 27.7167 96.7 27.5553 96.81 27.372L97.525 27.823C97.3563 28.0797 97.1693 28.307 96.964 28.505C96.7587 28.6957 96.5093 28.846 96.216 28.956C95.9227 29.0587 95.556 29.11 95.116 29.11C94.6613 29.11 94.2507 28.9963 93.884 28.769C93.5247 28.5417 93.2387 28.23 93.026 27.834C92.8207 27.4307 92.718 26.976 92.718 26.47C92.718 26.3747 92.7217 26.283 92.729 26.195C92.7363 26.107 92.7473 26.019 92.762 25.931C92.8353 25.513 92.982 25.1463 93.202 24.831C93.422 24.5157 93.7043 24.27 94.049 24.094C94.401 23.918 94.7933 23.83 95.226 23.83C95.7027 23.83 96.1207 23.9363 96.48 24.149C96.8393 24.3617 97.118 24.6623 97.316 25.051C97.514 25.4323 97.613 25.8907 97.613 26.426C97.613 26.47 97.613 26.514 97.613 26.558C97.613 26.602 97.6093 26.646 97.602 26.69H93.279ZM99.3361 26.745V25.92H103.076V26.745H99.3361ZM102.504 23.94H103.384V29H102.504V23.94ZM98.8191 23.94H99.6991V29H98.8191V23.94ZM109.274 24.82L105.094 29.385L105.149 28.12L109.329 23.555L109.274 24.82ZM105.974 23.94V28.175L105.094 29.385V23.94H105.974ZM109.329 23.555V29H108.449V24.765L109.329 23.555ZM111.154 26.69V25.942H114.531C114.502 25.678 114.428 25.447 114.311 25.249C114.201 25.0437 114.043 24.886 113.838 24.776C113.64 24.6587 113.394 24.6 113.101 24.6C112.808 24.6 112.54 24.6623 112.298 24.787C112.056 24.9117 111.862 25.0913 111.715 25.326C111.576 25.5533 111.506 25.8247 111.506 26.14L111.484 26.47C111.484 26.8587 111.55 27.1887 111.682 27.46C111.814 27.7313 112.001 27.9367 112.243 28.076C112.485 28.2153 112.771 28.285 113.101 28.285C113.35 28.285 113.57 28.2483 113.761 28.175C113.959 28.0943 114.135 27.988 114.289 27.856C114.443 27.7167 114.575 27.5553 114.685 27.372L115.4 27.823C115.231 28.0797 115.044 28.307 114.839 28.505C114.634 28.6957 114.384 28.846 114.091 28.956C113.798 29.0587 113.431 29.11 112.991 29.11C112.536 29.11 112.126 28.9963 111.759 28.769C111.4 28.5417 111.114 28.23 110.901 27.834C110.696 27.4307 110.593 26.976 110.593 26.47C110.593 26.3747 110.597 26.283 110.604 26.195C110.611 26.107 110.622 26.019 110.637 25.931C110.71 25.513 110.857 25.1463 111.077 24.831C111.297 24.5157 111.579 24.27 111.924 24.094C112.276 23.918 112.668 23.83 113.101 23.83C113.578 23.83 113.996 23.9363 114.355 24.149C114.714 24.3617 114.993 24.6623 115.191 25.051C115.389 25.4323 115.488 25.8907 115.488 26.426C115.488 26.47 115.488 26.514 115.488 26.558C115.488 26.602 115.484 26.646 115.477 26.69H111.154Z" fill="white"/>
<rect x="159" y="13" width="24" height="24" rx="4" fill="url(#paint1_linear_68_13)"/>
<path d="M189.397 25.26V24.38H194.677V25.26H189.397ZM194.05 21.3H194.985V29H194.05V21.3ZM188.88 21.3H189.815V29H188.88V21.3ZM196.248 26.47C196.248 25.9567 196.362 25.502 196.589 25.106C196.824 24.71 197.139 24.3983 197.535 24.171C197.931 23.9437 198.375 23.83 198.866 23.83C199.365 23.83 199.809 23.9437 200.197 24.171C200.593 24.3983 200.905 24.71 201.132 25.106C201.367 25.502 201.484 25.9567 201.484 26.47C201.484 26.976 201.367 27.4307 201.132 27.834C200.905 28.23 200.593 28.5417 200.197 28.769C199.809 28.9963 199.365 29.11 198.866 29.11C198.375 29.11 197.931 28.9963 197.535 28.769C197.139 28.5417 196.824 28.23 196.589 27.834C196.362 27.4307 196.248 26.976 196.248 26.47ZM197.139 26.47C197.139 26.822 197.213 27.1337 197.359 27.405C197.513 27.6763 197.719 27.8927 197.975 28.054C198.239 28.208 198.536 28.285 198.866 28.285C199.196 28.285 199.49 28.208 199.746 28.054C200.01 27.8927 200.216 27.6763 200.362 27.405C200.516 27.1337 200.593 26.822 200.593 26.47C200.593 26.118 200.516 25.8063 200.362 25.535C200.216 25.2563 200.01 25.04 199.746 24.886C199.49 24.732 199.196 24.655 198.866 24.655C198.536 24.655 198.239 24.732 197.975 24.886C197.719 25.04 197.513 25.2563 197.359 25.535C197.213 25.8063 197.139 26.118 197.139 26.47ZM203.21 26.36H204.673C205.025 26.36 205.34 26.3967 205.619 26.47C205.898 26.5433 206.118 26.6717 206.279 26.855C206.44 27.0383 206.521 27.295 206.521 27.625C206.521 28.0063 206.393 28.3327 206.136 28.604C205.887 28.868 205.472 29 204.893 29H203.21V28.23H204.673C205.003 28.23 205.245 28.1603 205.399 28.021C205.56 27.8817 205.641 27.713 205.641 27.515C205.641 27.4123 205.619 27.3207 205.575 27.24C205.538 27.1593 205.48 27.086 205.399 27.02C205.326 26.954 205.227 26.9063 205.102 26.877C204.985 26.8403 204.842 26.822 204.673 26.822H203.21V26.36ZM203.21 26.58V26.063H204.563C204.695 26.063 204.812 26.0483 204.915 26.019C205.025 25.9823 205.117 25.931 205.19 25.865C205.263 25.799 205.318 25.7257 205.355 25.645C205.399 25.557 205.421 25.4653 205.421 25.37C205.421 25.172 205.344 25.0143 205.19 24.897C205.036 24.7723 204.827 24.71 204.563 24.71H203.21V23.94H204.563C204.878 23.94 205.164 23.9877 205.421 24.083C205.685 24.171 205.898 24.3177 206.059 24.523C206.22 24.721 206.301 24.985 206.301 25.315C206.301 25.601 206.22 25.8393 206.059 26.03C205.898 26.2133 205.685 26.3527 205.421 26.448C205.164 26.536 204.878 26.58 204.563 26.58H203.21ZM202.693 23.94H203.573V29H202.693V23.94ZM212.243 23.94H213.123V29H212.243V23.94ZM207.678 23.94H208.558V29H207.678V23.94ZM208.195 26.624V25.854H209.768C210.288 25.854 210.725 25.9823 211.077 26.239C211.436 26.4883 211.616 26.8843 211.616 27.427C211.616 27.7863 211.535 28.0833 211.374 28.318C211.212 28.5527 210.992 28.725 210.714 28.835C210.435 28.945 210.12 29 209.768 29H208.195V28.23H209.768C209.98 28.23 210.156 28.2007 210.296 28.142C210.442 28.076 210.552 27.9843 210.626 27.867C210.699 27.7423 210.736 27.5957 210.736 27.427C210.736 27.1703 210.655 26.9723 210.494 26.833C210.332 26.6937 210.09 26.624 209.768 26.624H208.195ZM219.002 24.82L214.822 29.385L214.877 28.12L219.057 23.555L219.002 24.82ZM215.702 23.94V28.175L214.822 29.385V23.94H215.702ZM219.057 23.555V29H218.177V24.765L219.057 23.555ZM215.229 21.355H216.01C216.01 21.4503 216.036 21.564 216.087 21.696C216.139 21.8207 216.234 21.9343 216.373 22.037C216.513 22.1323 216.711 22.18 216.967 22.18C217.224 22.18 217.422 22.1323 217.561 22.037C217.701 21.9343 217.796 21.8207 217.847 21.696C217.899 21.564 217.924 21.4503 217.924 21.355H218.705C218.705 21.6043 218.639 21.85 218.507 22.092C218.383 22.3267 218.192 22.521 217.935 22.675C217.679 22.8217 217.356 22.895 216.967 22.895C216.586 22.895 216.263 22.8217 215.999 22.675C215.743 22.521 215.548 22.3267 215.416 22.092C215.292 21.85 215.229 21.6043 215.229 21.355ZM224.631 29V28.12H228.514V29H224.631ZM224.631 22.18V21.3H228.514V22.18H224.631ZM224.631 25.26V24.38H228.294V25.26H224.631ZM224.114 21.3H225.049V29H224.114V21.3ZM237.037 25.81V29H236.157V25.92C236.157 25.4873 236.077 25.1683 235.915 24.963C235.761 24.7577 235.519 24.655 235.189 24.655C234.947 24.655 234.738 24.7063 234.562 24.809C234.386 24.9043 234.251 25.0473 234.155 25.238C234.06 25.4287 234.012 25.656 234.012 25.92V29H233.132V25.92C233.132 25.4873 233.052 25.1683 232.89 24.963C232.736 24.7577 232.494 24.655 232.164 24.655C231.922 24.655 231.713 24.7063 231.537 24.809C231.361 24.9043 231.226 25.0473 231.13 25.238C231.035 25.4287 230.987 25.656 230.987 25.92V29H230.107V23.94H230.987V24.677C231.141 24.391 231.332 24.1783 231.559 24.039C231.794 23.8997 232.069 23.83 232.384 23.83C232.736 23.83 233.037 23.9143 233.286 24.083C233.543 24.2443 233.73 24.4753 233.847 24.776C234.023 24.4607 234.243 24.226 234.507 24.072C234.771 23.9107 235.072 23.83 235.409 23.83C235.754 23.83 236.047 23.907 236.289 24.061C236.531 24.215 236.715 24.4423 236.839 24.743C236.971 25.0363 237.037 25.392 237.037 25.81ZM239.086 27.438C239.086 27.6287 239.13 27.7937 239.218 27.933C239.314 28.0723 239.442 28.1787 239.603 28.252C239.772 28.318 239.963 28.351 240.175 28.351C240.447 28.351 240.689 28.296 240.901 28.186C241.121 28.076 241.294 27.922 241.418 27.724C241.55 27.5187 241.616 27.284 241.616 27.02L241.792 27.68C241.792 28.0027 241.693 28.2703 241.495 28.483C241.305 28.6957 241.066 28.8533 240.78 28.956C240.502 29.0587 240.223 29.11 239.944 29.11C239.636 29.11 239.347 29.0477 239.075 28.923C238.811 28.791 238.599 28.604 238.437 28.362C238.276 28.12 238.195 27.8267 238.195 27.482C238.195 26.9907 238.368 26.5983 238.712 26.305C239.064 26.0043 239.552 25.854 240.175 25.854C240.542 25.854 240.846 25.898 241.088 25.986C241.338 26.0667 241.536 26.162 241.682 26.272C241.829 26.3747 241.928 26.459 241.979 26.525V27.042C241.723 26.866 241.459 26.7413 241.187 26.668C240.916 26.5873 240.626 26.547 240.318 26.547C240.032 26.547 239.798 26.5837 239.614 26.657C239.438 26.7303 239.306 26.833 239.218 26.965C239.13 27.097 239.086 27.2547 239.086 27.438ZM238.954 25.106L238.525 24.457C238.716 24.3177 238.976 24.1783 239.306 24.039C239.644 23.8997 240.047 23.83 240.516 23.83C240.912 23.83 241.257 23.8923 241.55 24.017C241.851 24.1343 242.082 24.3067 242.243 24.534C242.412 24.7613 242.496 25.04 242.496 25.37V29H241.616V25.491C241.616 25.315 241.587 25.172 241.528 25.062C241.47 24.9447 241.385 24.853 241.275 24.787C241.173 24.721 241.052 24.6733 240.912 24.644C240.773 24.6147 240.626 24.6 240.472 24.6C240.223 24.6 239.996 24.6293 239.79 24.688C239.592 24.7467 239.424 24.8163 239.284 24.897C239.145 24.9777 239.035 25.0473 238.954 25.106ZM243.986 21.85C243.986 21.6813 244.045 21.5383 244.162 21.421C244.287 21.3037 244.43 21.245 244.591 21.245C244.76 21.245 244.903 21.3037 245.02 21.421C245.137 21.5383 245.196 21.6813 245.196 21.85C245.196 22.0113 245.137 22.1543 245.02 22.279C244.903 22.3963 244.76 22.455 244.591 22.455C244.43 22.455 244.287 22.3963 244.162 22.279C244.045 22.1543 243.986 22.0113 243.986 21.85ZM244.151 23.94H245.031V29H244.151V23.94ZM246.844 20.42H247.724V29H246.844V20.42Z" fill="white"/>
<path d="M164.728 25.4768C164.326 25.0982 164.307 24.4653 164.686 24.0632L165.548 23.1469C165.927 22.7448 166.56 22.7258 166.962 23.1044L170.682 26.6076L168.448 28.98L164.728 25.4768Z" fill="white"/>
<path d="M175.988 20.7071C176.379 20.3166 177.012 20.3166 177.402 20.7071L178.292 21.5971C178.683 21.9876 178.683 22.6208 178.292 23.0113L170.359 30.9451L168.054 28.6409L175.988 20.7071Z" fill="white"/>
<rect x="295" y="13" width="24" height="24" rx="4" fill="url(#paint2_linear_68_13)"/>
<path d="M306.415 25.645V24.488C306.64 24.488 306.848 24.462 307.039 24.41C307.238 24.358 307.407 24.2843 307.546 24.189C307.693 24.0937 307.806 23.9853 307.884 23.864C307.962 23.7427 308.001 23.617 308.001 23.487C308.001 23.3743 307.971 23.2747 307.91 23.188C307.849 23.1013 307.758 23.0363 307.637 22.993C307.524 22.941 307.373 22.915 307.182 22.915C306.887 22.915 306.649 22.9973 306.467 23.162C306.285 23.3267 306.194 23.5433 306.194 23.812H303.581C303.581 23.2313 303.728 22.707 304.023 22.239C304.318 21.771 304.734 21.3983 305.271 21.121C305.817 20.8437 306.458 20.705 307.195 20.705C307.975 20.705 308.634 20.8177 309.171 21.043C309.708 21.2683 310.116 21.576 310.393 21.966C310.67 22.356 310.809 22.798 310.809 23.292C310.809 23.8727 310.61 24.3363 310.211 24.683C309.812 25.021 309.279 25.268 308.612 25.424C307.953 25.5713 307.221 25.645 306.415 25.645ZM307.065 30.26C306.45 30.26 305.899 30.1647 305.414 29.974C304.937 29.7833 304.534 29.5233 304.205 29.194C303.876 28.8647 303.624 28.4963 303.451 28.089C303.278 27.673 303.191 27.2483 303.191 26.815H305.999C305.999 27.1183 306.055 27.361 306.168 27.543C306.289 27.725 306.441 27.855 306.623 27.933C306.814 28.011 307.004 28.05 307.195 28.05C307.394 28.05 307.572 28.0283 307.728 27.985C307.893 27.933 308.023 27.8463 308.118 27.725C308.213 27.595 308.261 27.4217 308.261 27.205C308.261 27.075 308.231 26.9493 308.17 26.828C308.109 26.698 308.01 26.5853 307.871 26.49C307.732 26.386 307.542 26.308 307.299 26.256C307.065 26.1953 306.77 26.165 306.415 26.165V24.813C307.117 24.813 307.75 24.865 308.313 24.969C308.885 25.0643 309.375 25.2203 309.782 25.437C310.198 25.6537 310.514 25.931 310.731 26.269C310.956 26.5983 311.069 26.997 311.069 27.465C311.069 28.0023 310.913 28.4833 310.601 28.908C310.298 29.324 309.847 29.6533 309.249 29.896C308.66 30.1387 307.932 30.26 307.065 30.26Z" fill="white"/>
<path d="M327.212 25.227V24.534C327.593 24.534 327.916 24.4827 328.18 24.38C328.444 24.27 328.642 24.127 328.774 23.951C328.913 23.7677 328.983 23.566 328.983 23.346C328.983 23.1407 328.932 22.9573 328.829 22.796C328.734 22.6273 328.583 22.499 328.378 22.411C328.18 22.323 327.931 22.279 327.63 22.279C327.344 22.279 327.087 22.3267 326.86 22.422C326.64 22.51 326.468 22.6347 326.343 22.796C326.218 22.9573 326.156 23.1407 326.156 23.346H324.935C324.935 22.9207 325.041 22.5467 325.254 22.224C325.474 21.9013 325.786 21.6483 326.189 21.465C326.592 21.2743 327.073 21.179 327.63 21.179C328.195 21.179 328.675 21.2743 329.071 21.465C329.467 21.6557 329.768 21.9087 329.973 22.224C330.186 22.532 330.292 22.8767 330.292 23.258C330.292 23.5513 330.215 23.819 330.061 24.061C329.907 24.303 329.691 24.512 329.412 24.688C329.141 24.864 328.814 24.9997 328.433 25.095C328.059 25.183 327.652 25.227 327.212 25.227ZM327.619 29.132C327.113 29.132 326.673 29.0733 326.299 28.956C325.925 28.8313 325.61 28.6627 325.353 28.45C325.104 28.23 324.917 27.9807 324.792 27.702C324.667 27.416 324.605 27.1153 324.605 26.8H325.903C325.925 27.0493 326.002 27.2657 326.134 27.449C326.266 27.625 326.453 27.7643 326.695 27.867C326.944 27.9623 327.245 28.01 327.597 28.01C328.125 28.01 328.525 27.9037 328.796 27.691C329.067 27.4783 329.203 27.1813 329.203 26.8C329.203 26.5213 329.122 26.2867 328.961 26.096C328.8 25.9053 328.569 25.7587 328.268 25.656C327.975 25.5533 327.623 25.502 327.212 25.502V24.765C327.835 24.765 328.396 24.842 328.895 24.996C329.394 25.1427 329.786 25.3737 330.072 25.689C330.365 26.0043 330.512 26.4223 330.512 26.943C330.512 27.3757 330.398 27.757 330.171 28.087C329.951 28.417 329.625 28.6737 329.192 28.857C328.767 29.0403 328.242 29.132 327.619 29.132ZM332.446 27.504C332.446 27.658 332.487 27.7863 332.567 27.889C332.655 27.9917 332.769 28.0723 332.908 28.131C333.048 28.1823 333.205 28.208 333.381 28.208C333.638 28.208 333.869 28.1677 334.074 28.087C334.28 28.0063 334.441 27.878 334.558 27.702C334.676 27.526 334.734 27.2913 334.734 26.998L334.91 27.57C334.91 27.8927 334.826 28.1713 334.657 28.406C334.489 28.6333 334.261 28.8093 333.975 28.934C333.689 29.0513 333.37 29.11 333.018 29.11C332.688 29.11 332.388 29.0513 332.116 28.934C331.852 28.8167 331.64 28.6443 331.478 28.417C331.324 28.1823 331.247 27.8927 331.247 27.548C331.247 27.2033 331.335 26.9063 331.511 26.657C331.687 26.4077 331.937 26.217 332.259 26.085C332.589 25.953 332.974 25.887 333.414 25.887C333.708 25.887 333.968 25.9237 334.195 25.997C334.43 26.0703 334.624 26.1547 334.778 26.25C334.932 26.3453 335.039 26.4297 335.097 26.503V27.13C334.87 26.9613 334.639 26.8403 334.404 26.767C334.17 26.6863 333.898 26.646 333.59 26.646C333.341 26.646 333.128 26.6827 332.952 26.756C332.784 26.822 332.655 26.921 332.567 27.053C332.487 27.1777 332.446 27.328 332.446 27.504ZM332.182 25.271L331.709 24.424C331.937 24.2847 332.226 24.149 332.578 24.017C332.93 23.885 333.334 23.819 333.788 23.819C334.206 23.819 334.573 23.8813 334.888 24.006C335.204 24.1307 335.449 24.3103 335.625 24.545C335.809 24.7723 335.9 25.0547 335.9 25.392V29H334.734V25.524C334.734 25.2893 334.635 25.1097 334.437 24.985C334.247 24.853 334.012 24.787 333.733 24.787C333.491 24.787 333.268 24.8163 333.062 24.875C332.857 24.9337 332.677 25.0033 332.523 25.084C332.377 25.1573 332.263 25.2197 332.182 25.271ZM338.054 26.36H339.66C340.012 26.36 340.327 26.3967 340.606 26.47C340.885 26.5433 341.105 26.6717 341.266 26.855C341.427 27.0383 341.508 27.295 341.508 27.625C341.508 28.0063 341.38 28.3327 341.123 28.604C340.874 28.868 340.459 29 339.88 29H338.054V28.12H339.517C339.81 28.12 340.023 28.0577 340.155 27.933C340.287 27.8083 340.353 27.6617 340.353 27.493C340.353 27.405 340.335 27.3243 340.298 27.251C340.261 27.1777 340.21 27.1117 340.144 27.053C340.085 26.9943 340.001 26.9503 339.891 26.921C339.788 26.8917 339.664 26.877 339.517 26.877H338.054V26.36ZM338.054 26.58V26.008H339.407C339.517 26.008 339.616 25.9933 339.704 25.964C339.799 25.9347 339.876 25.8907 339.935 25.832C339.994 25.7733 340.041 25.7073 340.078 25.634C340.115 25.5607 340.133 25.4837 340.133 25.403C340.133 25.2343 340.067 25.095 339.935 24.985C339.81 24.875 339.634 24.82 339.407 24.82H338.054V23.94H339.55C339.865 23.94 340.151 23.9877 340.408 24.083C340.672 24.171 340.885 24.3177 341.046 24.523C341.207 24.721 341.288 24.985 341.288 25.315C341.288 25.601 341.207 25.8393 341.046 26.03C340.885 26.2133 340.672 26.3527 340.408 26.448C340.151 26.536 339.865 26.58 339.55 26.58H338.054ZM337.361 23.94H338.527V29H337.361V23.94ZM342.921 26.745V25.931H346.1C346.07 25.689 346.004 25.48 345.902 25.304C345.806 25.1207 345.671 24.9813 345.495 24.886C345.319 24.7833 345.102 24.732 344.846 24.732C344.582 24.732 344.343 24.7907 344.131 24.908C343.918 25.018 343.749 25.183 343.625 25.403C343.5 25.6157 343.438 25.8687 343.438 26.162L343.416 26.47C343.416 26.844 343.474 27.1557 343.592 27.405C343.716 27.647 343.885 27.8303 344.098 27.955C344.318 28.0723 344.571 28.131 344.857 28.131C345.091 28.131 345.297 28.098 345.473 28.032C345.656 27.966 345.817 27.8743 345.957 27.757C346.096 27.6323 346.213 27.4893 346.309 27.328L347.332 27.746C347.163 28.0173 346.969 28.2557 346.749 28.461C346.536 28.6663 346.272 28.8277 345.957 28.945C345.649 29.055 345.264 29.11 344.802 29.11C344.281 29.11 343.826 28.9963 343.438 28.769C343.049 28.5417 342.748 28.23 342.536 27.834C342.323 27.4307 342.217 26.976 342.217 26.47C342.217 26.3747 342.22 26.283 342.228 26.195C342.235 26.107 342.246 26.019 342.261 25.931C342.334 25.513 342.481 25.1463 342.701 24.831C342.928 24.5157 343.225 24.27 343.592 24.094C343.958 23.918 344.38 23.83 344.857 23.83C345.377 23.83 345.825 23.9363 346.199 24.149C346.58 24.3543 346.873 24.6513 347.079 25.04C347.284 25.4213 347.387 25.8797 347.387 26.415C347.387 26.459 347.387 26.5103 347.387 26.569C347.387 26.6203 347.379 26.679 347.365 26.745H342.921ZM349.686 31.42H348.487V23.94H349.686V31.42ZM353.877 26.47C353.877 27.0273 353.764 27.5077 353.536 27.911C353.309 28.307 353.008 28.6113 352.634 28.824C352.26 29.0293 351.853 29.132 351.413 29.132C350.981 29.132 350.603 29.0257 350.28 28.813C349.965 28.593 349.719 28.285 349.543 27.889C349.375 27.4857 349.29 27.0127 349.29 26.47C349.29 25.92 349.375 25.447 349.543 25.051C349.719 24.655 349.965 24.3507 350.28 24.138C350.603 23.918 350.981 23.808 351.413 23.808C351.853 23.808 352.26 23.9143 352.634 24.127C353.008 24.3323 353.309 24.633 353.536 25.029C353.764 25.425 353.877 25.9053 353.877 26.47ZM352.645 26.47C352.645 26.1327 352.576 25.8467 352.436 25.612C352.297 25.37 352.11 25.1903 351.875 25.073C351.648 24.9483 351.395 24.886 351.116 24.886C350.889 24.886 350.665 24.9483 350.445 25.073C350.225 25.1903 350.042 25.3663 349.895 25.601C349.756 25.8357 349.686 26.1253 349.686 26.47C349.686 26.8147 349.756 27.1043 349.895 27.339C350.042 27.5737 350.225 27.7533 350.445 27.878C350.665 27.9953 350.889 28.054 351.116 28.054C351.395 28.054 351.648 27.9953 351.875 27.878C352.11 27.7533 352.297 27.5737 352.436 27.339C352.576 27.097 352.645 26.8073 352.645 26.47ZM359.244 27.955H361.158V23.94H362.324V29H355.009V23.94H356.175V27.955H358.078V23.94H359.244V27.955ZM364.158 26.745V25.931H367.337C367.308 25.689 367.242 25.48 367.139 25.304C367.044 25.1207 366.908 24.9813 366.732 24.886C366.556 24.7833 366.34 24.732 366.083 24.732C365.819 24.732 365.581 24.7907 365.368 24.908C365.155 25.018 364.987 25.183 364.862 25.403C364.737 25.6157 364.675 25.8687 364.675 26.162L364.653 26.47C364.653 26.844 364.712 27.1557 364.829 27.405C364.954 27.647 365.122 27.8303 365.335 27.955C365.555 28.0723 365.808 28.131 366.094 28.131C366.329 28.131 366.534 28.098 366.71 28.032C366.893 27.966 367.055 27.8743 367.194 27.757C367.333 27.6323 367.451 27.4893 367.546 27.328L368.569 27.746C368.4 28.0173 368.206 28.2557 367.986 28.461C367.773 28.6663 367.509 28.8277 367.194 28.945C366.886 29.055 366.501 29.11 366.039 29.11C365.518 29.11 365.064 28.9963 364.675 28.769C364.286 28.5417 363.986 28.23 363.773 27.834C363.56 27.4307 363.454 26.976 363.454 26.47C363.454 26.3747 363.458 26.283 363.465 26.195C363.472 26.107 363.483 26.019 363.498 25.931C363.571 25.513 363.718 25.1463 363.938 24.831C364.165 24.5157 364.462 24.27 364.829 24.094C365.196 23.918 365.617 23.83 366.094 23.83C366.615 23.83 367.062 23.9363 367.436 24.149C367.817 24.3543 368.111 24.6513 368.316 25.04C368.521 25.4213 368.624 25.8797 368.624 26.415C368.624 26.459 368.624 26.5103 368.624 26.569C368.624 26.6203 368.617 26.679 368.602 26.745H364.158ZM370.286 26.822V25.843H374.158V26.822H370.286ZM373.52 23.94H374.686V29H373.52V23.94ZM369.769 23.94H370.935V29H369.769V23.94ZM380.79 25.04L376.247 29.385L376.302 27.9L380.845 23.555L380.79 25.04ZM377.413 23.94V28.043L376.247 29.385V23.94H377.413ZM380.845 23.555V29H379.679V24.897L380.845 23.555ZM382.731 26.745V25.931H385.91C385.881 25.689 385.815 25.48 385.712 25.304C385.617 25.1207 385.481 24.9813 385.305 24.886C385.129 24.7833 384.913 24.732 384.656 24.732C384.392 24.732 384.154 24.7907 383.941 24.908C383.729 25.018 383.56 25.183 383.435 25.403C383.311 25.6157 383.248 25.8687 383.248 26.162L383.226 26.47C383.226 26.844 383.285 27.1557 383.402 27.405C383.527 27.647 383.696 27.8303 383.908 27.955C384.128 28.0723 384.381 28.131 384.667 28.131C384.902 28.131 385.107 28.098 385.283 28.032C385.467 27.966 385.628 27.8743 385.767 27.757C385.907 27.6323 386.024 27.4893 386.119 27.328L387.142 27.746C386.974 28.0173 386.779 28.2557 386.559 28.461C386.347 28.6663 386.083 28.8277 385.767 28.945C385.459 29.055 385.074 29.11 384.612 29.11C384.092 29.11 383.637 28.9963 383.248 28.769C382.86 28.5417 382.559 28.23 382.346 27.834C382.134 27.4307 382.027 26.976 382.027 26.47C382.027 26.3747 382.031 26.283 382.038 26.195C382.046 26.107 382.057 26.019 382.071 25.931C382.145 25.513 382.291 25.1463 382.511 24.831C382.739 24.5157 383.036 24.27 383.402 24.094C383.769 23.918 384.191 23.83 384.667 23.83C385.188 23.83 385.635 23.9363 386.009 24.149C386.391 24.3543 386.684 24.6513 386.889 25.04C387.095 25.4213 387.197 25.8797 387.197 26.415C387.197 26.459 387.197 26.5103 387.197 26.569C387.197 26.6203 387.19 26.679 387.175 26.745H382.731Z" fill="white"/>
<rect x="119" y="25" width="36" height="2" fill="url(#paint3_linear_68_13)"/>
<rect x="255" y="24" width="36" height="2" fill="url(#paint4_linear_68_13)"/>
<defs>
<linearGradient id="paint0_linear_68_13" x1="8" y1="13" x2="32" y2="37" gradientUnits="userSpaceOnUse">
<stop stop-color="#1E7F34"/>
<stop offset="1" stop-color="#2ECC71"/>
</linearGradient>
<linearGradient id="paint1_linear_68_13" x1="159" y1="13" x2="183" y2="37" gradientUnits="userSpaceOnUse">
<stop stop-color="#1E7F34"/>
<stop offset="1" stop-color="#2ECC71"/>
</linearGradient>
<linearGradient id="paint2_linear_68_13" x1="295" y1="13" x2="319" y2="37" gradientUnits="userSpaceOnUse">
<stop stop-color="#DA6AD0"/>
<stop offset="1" stop-color="#9780E5"/>
</linearGradient>
<linearGradient id="paint3_linear_68_13" x1="119" y1="25" x2="155" y2="27" gradientUnits="userSpaceOnUse">
<stop stop-color="#1E7F34"/>
<stop offset="1" stop-color="#2ECC71"/>
</linearGradient>
<linearGradient id="paint4_linear_68_13" x1="255" y1="24" x2="291" y2="26" gradientUnits="userSpaceOnUse">
<stop stop-color="#9780E5"/>
<stop offset="1" stop-color="#DA6AD0"/>
</linearGradient>
</defs>
</svg>
