<svg width="394" height="50" viewBox="0 0 394 50" fill="none" xmlns="http://www.w3.org/2000/svg">
<rect x="8" y="13" width="24" height="24" rx="4" fill="url(#paint0_linear_68_13)"/>
<path d="M13.728 25.4768C13.3259 25.0982 13.3069 24.4653 13.6856 24.0632L14.5484 23.1469C14.9271 22.7448 15.5599 22.7258 15.962 23.1044L19.6822 26.6076L17.4482 28.98L13.728 25.4768Z" fill="white"/>
<path d="M24.9882 20.7071C25.3787 20.3166 26.0119 20.3166 26.4024 20.7071L27.2924 21.5971C27.683 21.9876 27.683 22.6208 27.2924 23.0113L19.3587 30.9451L17.0545 28.6409L24.9882 20.7071Z" fill="white"/>
<path d="M43.05 22.18H38.815V29H37.88V21.3H43.985V29H43.05V22.18ZM45.2483 26.47C45.2483 25.9567 45.3619 25.502 45.5893 25.106C45.8239 24.71 46.1393 24.3983 46.5353 24.171C46.9313 23.9437 47.3749 23.83 47.8663 23.83C48.3649 23.83 48.8086 23.9437 49.1973 24.171C49.5933 24.3983 49.9049 24.71 50.1323 25.106C50.3669 25.502 50.4843 25.9567 50.4843 26.47C50.4843 26.976 50.3669 27.4307 50.1323 27.834C49.9049 28.23 49.5933 28.5417 49.1973 28.769C48.8086 28.9963 48.3649 29.11 47.8663 29.11C47.3749 29.11 46.9313 28.9963 46.5353 28.769C46.1393 28.5417 45.8239 28.23 45.5893 27.834C45.3619 27.4307 45.2483 26.976 45.2483 26.47ZM46.1393 26.47C46.1393 26.822 46.2126 27.1337 46.3593 27.405C46.5133 27.6763 46.7186 27.8927 46.9753 28.054C47.2393 28.208 47.5363 28.285 47.8663 28.285C48.1963 28.285 48.4896 28.208 48.7463 28.054C49.0103 27.8927 49.2156 27.6763 49.3623 27.405C49.5163 27.1337 49.5933 26.822 49.5933 26.47C49.5933 26.118 49.5163 25.8063 49.3623 25.535C49.2156 25.2563 49.0103 25.04 48.7463 24.886C48.4896 24.732 48.1963 24.655 47.8663 24.655C47.5363 24.655 47.2393 24.732 46.9753 24.886C46.7186 25.04 46.5133 25.2563 46.3593 25.535C46.2126 25.8063 46.1393 26.118 46.1393 26.47ZM53.8953 25.458L52.4103 28.67H51.4203L53.8953 23.555L56.3703 28.67H55.3803L53.8953 25.458ZM56.1503 29H51.6953V29.99H50.7603V28.175H57.0303V29.99H56.1503V29ZM57.5833 23.94H60.5533V24.765H57.5833V23.94ZM58.6283 24.16H59.5083V29H58.6283V24.16ZM61.9533 26.36H63.4163C63.7683 26.36 64.0837 26.3967 64.3623 26.47C64.641 26.5433 64.861 26.6717 65.0223 26.855C65.1837 27.0383 65.2643 27.295 65.2643 27.625C65.2643 28.0063 65.136 28.3327 64.8793 28.604C64.63 28.868 64.2157 29 63.6363 29H61.9533V28.23H63.4163C63.7463 28.23 63.9883 28.1603 64.1423 28.021C64.3037 27.8817 64.3843 27.713 64.3843 27.515C64.3843 27.4123 64.3623 27.3207 64.3183 27.24C64.2817 27.1593 64.223 27.086 64.1423 27.02C64.069 26.954 63.97 26.9063 63.8453 26.877C63.728 26.8403 63.585 26.822 63.4163 26.822H61.9533V26.36ZM61.9533 26.58V26.063H63.3063C63.4383 26.063 63.5557 26.0483 63.6583 26.019C63.7683 25.9823 63.86 25.931 63.9333 25.865C64.0067 25.799 64.0617 25.7257 64.0983 25.645C64.1423 25.557 64.1643 25.4653 64.1643 25.37C64.1643 25.172 64.0873 25.0143 63.9333 24.897C63.7793 24.7723 63.5703 24.71 63.3063 24.71H61.9533V23.94H63.3063C63.6217 23.94 63.9077 23.9877 64.1643 24.083C64.4283 24.171 64.641 24.3177 64.8023 24.523C64.9637 24.721 65.0443 24.985 65.0443 25.315C65.0443 25.601 64.9637 25.8393 64.8023 26.03C64.641 26.2133 64.4283 26.3527 64.1643 26.448C63.9077 26.536 63.6217 26.58 63.3063 26.58H61.9533ZM61.4363 23.94H62.3163V29H61.4363V23.94ZM66.5417 26.69V25.942H69.9187C69.8894 25.678 69.816 25.447 69.6987 25.249C69.5887 25.0437 69.431 24.886 69.2257 24.776C69.0277 24.6587 68.782 24.6 68.4887 24.6C68.1954 24.6 67.9277 24.6623 67.6857 24.787C67.4437 24.9117 67.2494 25.0913 67.1027 25.326C66.9634 25.5533 66.8937 25.8247 66.8937 26.14L66.8717 26.47C66.8717 26.8587 66.9377 27.1887 67.0697 27.46C67.2017 27.7313 67.3887 27.9367 67.6307 28.076C67.8727 28.2153 68.1587 28.285 68.4887 28.285C68.738 28.285 68.958 28.2483 69.1487 28.175C69.3467 28.0943 69.5227 27.988 69.6767 27.856C69.8307 27.7167 69.9627 27.5553 70.0727 27.372L70.7877 27.823C70.619 28.0797 70.432 28.307 70.2267 28.505C70.0214 28.6957 69.772 28.846 69.4787 28.956C69.1854 29.0587 68.8187 29.11 68.3787 29.11C67.924 29.11 67.5134 28.9963 67.1467 28.769C66.7874 28.5417 66.5014 28.23 66.2887 27.834C66.0834 27.4307 65.9807 26.976 65.9807 26.47C65.9807 26.3747 65.9844 26.283 65.9917 26.195C65.999 26.107 66.01 26.019 66.0247 25.931C66.098 25.513 66.2447 25.1463 66.4647 24.831C66.6847 24.5157 66.967 24.27 67.3117 24.094C67.6637 23.918 68.056 23.83 68.4887 23.83C68.9654 23.83 69.3834 23.9363 69.7427 24.149C70.102 24.3617 70.3807 24.6623 70.5787 25.051C70.7767 25.4323 70.8757 25.8907 70.8757 26.426C70.8757 26.47 70.8757 26.514 70.8757 26.558C70.8757 26.602 70.872 26.646 70.8647 26.69H66.5417ZM72.9068 31.42H72.0268V23.94H72.9068V31.42ZM77.1418 26.47C77.1418 27.0127 77.0282 27.482 76.8008 27.878C76.5735 28.274 76.2692 28.5783 75.8878 28.791C75.5138 29.0037 75.0958 29.11 74.6338 29.11C74.2158 29.11 73.8455 29.0037 73.5228 28.791C73.2075 28.5783 72.9582 28.274 72.7748 27.878C72.5988 27.482 72.5108 27.0127 72.5108 26.47C72.5108 25.92 72.5988 25.4507 72.7748 25.062C72.9582 24.666 73.2075 24.3617 73.5228 24.149C73.8455 23.9363 74.2158 23.83 74.6338 23.83C75.0958 23.83 75.5138 23.9363 75.8878 24.149C76.2692 24.3617 76.5735 24.666 76.8008 25.062C77.0282 25.4507 77.1418 25.92 77.1418 26.47ZM76.2508 26.47C76.2508 26.0813 76.1702 25.7513 76.0088 25.48C75.8548 25.2087 75.6458 25.0033 75.3818 24.864C75.1252 24.7247 74.8392 24.655 74.5238 24.655C74.2672 24.655 74.0142 24.7247 73.7648 24.864C73.5155 25.0033 73.3102 25.2087 73.1488 25.48C72.9875 25.7513 72.9068 26.0813 72.9068 26.47C72.9068 26.8587 72.9875 27.1887 73.1488 27.46C73.3102 27.7313 73.5155 27.9367 73.7648 28.076C74.0142 28.2153 74.2672 28.285 74.5238 28.285C74.8392 28.285 75.1252 28.2153 75.3818 28.076C75.6458 27.9367 75.8548 27.7313 76.0088 27.46C76.1702 27.1887 76.2508 26.8587 76.2508 26.47ZM83.4741 23.94H84.5741L82.2641 26.14L84.7941 29H83.6941L81.2741 26.03L83.4741 23.94ZM81.4941 23.94V29H80.6691V23.94H81.4941ZM78.6891 23.94L80.8891 26.03L78.4691 29H77.3691L79.8991 26.14L77.5891 23.94H78.6891ZM88.7 25.458L87.215 28.67H86.225L88.7 23.555L91.175 28.67H90.185L88.7 25.458ZM90.955 29H86.5V29.99H85.565V28.175H91.835V29.99H90.955V29ZM93.279 26.69V25.942H96.656C96.6267 25.678 96.5533 25.447 96.436 25.249C96.326 25.0437 96.1683 24.886 95.963 24.776C95.765 24.6587 95.5193 24.6 95.226 24.6C94.9327 24.6 94.665 24.6623 94.423 24.787C94.181 24.9117 93.9867 25.0913 93.84 25.326C93.7007 25.5533 93.631 25.8247 93.631 26.14L93.609 26.47C93.609 26.8587 93.675 27.1887 93.807 27.46C93.939 27.7313 94.126 27.9367 94.368 28.076C94.61 28.2153 94.896 28.285 95.226 28.285C95.4753 28.285 95.6953 28.2483 95.886 28.175C96.084 28.0943 96.26 27.988 96.414 27.856C96.568 27.7167 96.7 27.5553 96.81 27.372L97.525 27.823C97.3563 28.0797 97.1693 28.307 96.964 28.505C96.7587 28.6957 96.5093 28.846 96.216 28.956C95.9227 29.0587 95.556 29.11 95.116 29.11C94.6613 29.11 94.2507 28.9963 93.884 28.769C93.5247 28.5417 93.2387 28.23 93.026 27.834C92.8207 27.4307 92.718 26.976 92.718 26.47C92.718 26.3747 92.7217 26.283 92.729 26.195C92.7363 26.107 92.7473 26.019 92.762 25.931C92.8353 25.513 92.982 25.1463 93.202 24.831C93.422 24.5157 93.7043 24.27 94.049 24.094C94.401 23.918 94.7933 23.83 95.226 23.83C95.7027 23.83 96.1207 23.9363 96.48 24.149C96.8393 24.3617 97.118 24.6623 97.316 25.051C97.514 25.4323 97.613 25.8907 97.613 26.426C97.613 26.47 97.613 26.514 97.613 26.558C97.613 26.602 97.6093 26.646 97.602 26.69H93.279ZM99.3361 26.745V25.92H103.076V26.745H99.3361ZM102.504 23.94H103.384V29H102.504V23.94ZM98.8191 23.94H99.6991V29H98.8191V23.94ZM109.274 24.82L105.094 29.385L105.149 28.12L109.329 23.555L109.274 24.82ZM105.974 23.94V28.175L105.094 29.385V23.94H105.974ZM109.329 23.555V29H108.449V24.765L109.329 23.555ZM111.154 26.69V25.942H114.531C114.502 25.678 114.428 25.447 114.311 25.249C114.201 25.0437 114.043 24.886 113.838 24.776C113.64 24.6587 113.394 24.6 113.101 24.6C112.808 24.6 112.54 24.6623 112.298 24.787C112.056 24.9117 111.862 25.0913 111.715 25.326C111.576 25.5533 111.506 25.8247 111.506 26.14L111.484 26.47C111.484 26.8587 111.55 27.1887 111.682 27.46C111.814 27.7313 112.001 27.9367 112.243 28.076C112.485 28.2153 112.771 28.285 113.101 28.285C113.35 28.285 113.57 28.2483 113.761 28.175C113.959 28.0943 114.135 27.988 114.289 27.856C114.443 27.7167 114.575 27.5553 114.685 27.372L115.4 27.823C115.231 28.0797 115.044 28.307 114.839 28.505C114.634 28.6957 114.384 28.846 114.091 28.956C113.798 29.0587 113.431 29.11 112.991 29.11C112.536 29.11 112.126 28.9963 111.759 28.769C111.4 28.5417 111.114 28.23 110.901 27.834C110.696 27.4307 110.593 26.976 110.593 26.47C110.593 26.3747 110.597 26.283 110.604 26.195C110.611 26.107 110.622 26.019 110.637 25.931C110.71 25.513 110.857 25.1463 111.077 24.831C111.297 24.5157 111.579 24.27 111.924 24.094C112.276 23.918 112.668 23.83 113.101 23.83C113.578 23.83 113.996 23.9363 114.355 24.149C114.714 24.3617 114.993 24.6623 115.191 25.051C115.389 25.4323 115.488 25.8907 115.488 26.426C115.488 26.47 115.488 26.514 115.488 26.558C115.488 26.602 115.484 26.646 115.477 26.69H111.154Z" fill="white"/>
<rect x="159" y="13" width="24" height="24" rx="4" fill="url(#paint1_linear_68_13)"/>
<path d="M189.397 25.26V24.38H194.677V25.26H189.397ZM194.05 21.3H194.985V29H194.05V21.3ZM188.88 21.3H189.815V29H188.88V21.3ZM196.248 26.47C196.248 25.9567 196.362 25.502 196.589 25.106C196.824 24.71 197.139 24.3983 197.535 24.171C197.931 23.9437 198.375 23.83 198.866 23.83C199.365 23.83 199.809 23.9437 200.197 24.171C200.593 24.3983 200.905 24.71 201.132 25.106C201.367 25.502 201.484 25.9567 201.484 26.47C201.484 26.976 201.367 27.4307 201.132 27.834C200.905 28.23 200.593 28.5417 200.197 28.769C199.809 28.9963 199.365 29.11 198.866 29.11C198.375 29.11 197.931 28.9963 197.535 28.769C197.139 28.5417 196.824 28.23 196.589 27.834C196.362 27.4307 196.248 26.976 196.248 26.47ZM197.139 26.47C197.139 26.822 197.213 27.1337 197.359 27.405C197.513 27.6763 197.719 27.8927 197.975 28.054C198.239 28.208 198.536 28.285 198.866 28.285C199.196 28.285 199.49 28.208 199.746 28.054C200.01 27.8927 200.216 27.6763 200.362 27.405C200.516 27.1337 200.593 26.822 200.593 26.47C200.593 26.118 200.516 25.8063 200.362 25.535C200.216 25.2563 200.01 25.04 199.746 24.886C199.49 24.732 199.196 24.655 198.866 24.655C198.536 24.655 198.239 24.732 197.975 24.886C197.719 25.04 197.513 25.2563 197.359 25.535C197.213 25.8063 197.139 26.118 197.139 26.47ZM203.21 26.36H204.673C205.025 26.36 205.34 26.3967 205.619 26.47C205.898 26.5433 206.118 26.6717 206.279 26.855C206.44 27.0383 206.521 27.295 206.521 27.625C206.521 28.0063 206.393 28.3327 206.136 28.604C205.887 28.868 205.472 29 204.893 29H203.21V28.23H204.673C205.003 28.23 205.245 28.1603 205.399 28.021C205.56 27.8817 205.641 27.713 205.641 27.515C205.641 27.4123 205.619 27.3207 205.575 27.24C205.538 27.1593 205.48 27.086 205.399 27.02C205.326 26.954 205.227 26.9063 205.102 26.877C204.985 26.8403 204.842 26.822 204.673 26.822H203.21V26.36ZM203.21 26.58V26.063H204.563C204.695 26.063 204.812 26.0483 204.915 26.019C205.025 25.9823 205.117 25.931 205.19 25.865C205.263 25.799 205.318 25.7257 205.355 25.645C205.399 25.557 205.421 25.4653 205.421 25.37C205.421 25.172 205.344 25.0143 205.19 24.897C205.036 24.7723 204.827 24.71 204.563 24.71H203.21V23.94H204.563C204.878 23.94 205.164 23.9877 205.421 24.083C205.685 24.171 205.898 24.3177 206.059 24.523C206.22 24.721 206.301 24.985 206.301 25.315C206.301 25.601 206.22 25.8393 206.059 26.03C205.898 26.2133 205.685 26.3527 205.421 26.448C205.164 26.536 204.878 26.58 204.563 26.58H203.21ZM202.693 23.94H203.573V29H202.693V23.94ZM207.238 26.47C207.238 25.9567 207.351 25.502 207.579 25.106C207.813 24.71 208.129 24.3983 208.525 24.171C208.921 23.9437 209.364 23.83 209.856 23.83C210.354 23.83 210.798 23.9437 211.187 24.171C211.583 24.3983 211.894 24.71 212.122 25.106C212.356 25.502 212.474 25.9567 212.474 26.47C212.474 26.976 212.356 27.4307 212.122 27.834C211.894 28.23 211.583 28.5417 211.187 28.769C210.798 28.9963 210.354 29.11 209.856 29.11C209.364 29.11 208.921 28.9963 208.525 28.769C208.129 28.5417 207.813 28.23 207.579 27.834C207.351 27.4307 207.238 26.976 207.238 26.47ZM208.129 26.47C208.129 26.822 208.202 27.1337 208.349 27.405C208.503 27.6763 208.708 27.8927 208.965 28.054C209.229 28.208 209.526 28.285 209.856 28.285C210.186 28.285 210.479 28.208 210.736 28.054C211 27.8927 211.205 27.6763 211.352 27.405C211.506 27.1337 211.583 26.822 211.583 26.47C211.583 26.118 211.506 25.8063 211.352 25.535C211.205 25.2563 211 25.04 210.736 24.886C210.479 24.732 210.186 24.655 209.856 24.655C209.526 24.655 209.229 24.732 208.965 24.886C208.708 25.04 208.503 25.2563 208.349 25.535C208.202 25.8063 208.129 26.118 208.129 26.47ZM213.803 26.69V25.942H217.18C217.151 25.678 217.078 25.447 216.96 25.249C216.85 25.0437 216.693 24.886 216.487 24.776C216.289 24.6587 216.044 24.6 215.75 24.6C215.457 24.6 215.189 24.6623 214.947 24.787C214.705 24.9117 214.511 25.0913 214.364 25.326C214.225 25.5533 214.155 25.8247 214.155 26.14L214.133 26.47C214.133 26.8587 214.199 27.1887 214.331 27.46C214.463 27.7313 214.65 27.9367 214.892 28.076C215.134 28.2153 215.42 28.285 215.75 28.285C216 28.285 216.22 28.2483 216.41 28.175C216.608 28.0943 216.784 27.988 216.938 27.856C217.092 27.7167 217.224 27.5553 217.334 27.372L218.049 27.823C217.881 28.0797 217.694 28.307 217.488 28.505C217.283 28.6957 217.034 28.846 216.74 28.956C216.447 29.0587 216.08 29.11 215.64 29.11C215.186 29.11 214.775 28.9963 214.408 28.769C214.049 28.5417 213.763 28.23 213.55 27.834C213.345 27.4307 213.242 26.976 213.242 26.47C213.242 26.3747 213.246 26.283 213.253 26.195C213.261 26.107 213.272 26.019 213.286 25.931C213.36 25.513 213.506 25.1463 213.726 24.831C213.946 24.5157 214.229 24.27 214.573 24.094C214.925 23.918 215.318 23.83 215.75 23.83C216.227 23.83 216.645 23.9363 217.004 24.149C217.364 24.3617 217.642 24.6623 217.84 25.051C218.038 25.4323 218.137 25.8907 218.137 26.426C218.137 26.47 218.137 26.514 218.137 26.558C218.137 26.602 218.134 26.646 218.126 26.69H213.803ZM226.876 24.82L222.696 29.385L222.751 28.12L226.931 23.555L226.876 24.82ZM223.576 23.94V28.175L222.696 29.385V23.94H223.576ZM226.931 23.555V29H226.051V24.765L226.931 23.555ZM233.443 29L232.618 24.985L233.113 23.555L234.433 29H233.443ZM230.803 28.241L233.113 23.555L233.223 25.315L231.133 29.341L230.803 28.241ZM231.133 29.341L229.076 25.315L229.186 23.555L231.463 28.241L231.133 29.341ZM227.866 29L229.186 23.555L229.681 24.985L228.856 29H227.866ZM236.043 29H235.075L236.945 26.36H237.913L236.043 29ZM239.255 29H238.375V23.94H239.255V29ZM238.738 26.206V26.976H237.165C236.821 26.976 236.505 26.9247 236.219 26.822C235.941 26.7193 235.721 26.558 235.559 26.338C235.398 26.1107 235.317 25.8173 235.317 25.458C235.317 25.0913 235.398 24.798 235.559 24.578C235.721 24.358 235.941 24.1967 236.219 24.094C236.505 23.9913 236.821 23.94 237.165 23.94H238.738V24.71H237.165C236.953 24.71 236.773 24.7393 236.626 24.798C236.487 24.8493 236.381 24.93 236.307 25.04C236.234 25.15 236.197 25.2893 236.197 25.458C236.197 25.6267 236.234 25.766 236.307 25.876C236.381 25.986 236.487 26.0703 236.626 26.129C236.773 26.1803 236.953 26.206 237.165 26.206H238.738Z" fill="white"/>
<path d="M164.728 25.4768C164.326 25.0982 164.307 24.4653 164.686 24.0632L165.548 23.1469C165.927 22.7448 166.56 22.7258 166.962 23.1044L170.682 26.6076L168.448 28.98L164.728 25.4768Z" fill="white"/>
<path d="M175.988 20.7071C176.379 20.3166 177.012 20.3166 177.402 20.7071L178.292 21.5971C178.683 21.9876 178.683 22.6208 178.292 23.0113L170.359 30.9451L168.054 28.6409L175.988 20.7071Z" fill="white"/>
<rect x="286" y="13" width="24" height="24" rx="4" fill="url(#paint2_linear_68_13)"/>
<path d="M297.37 25.31V24.064C297.613 24.064 297.837 24.036 298.042 23.98C298.257 23.924 298.439 23.8447 298.588 23.742C298.747 23.6393 298.868 23.5227 298.952 23.392C299.036 23.2613 299.078 23.126 299.078 22.986C299.078 22.8647 299.045 22.7573 298.98 22.664C298.915 22.5707 298.817 22.5007 298.686 22.454C298.565 22.398 298.401 22.37 298.196 22.37C297.879 22.37 297.622 22.4587 297.426 22.636C297.23 22.8133 297.132 23.0467 297.132 23.336H294.318C294.318 22.7107 294.477 22.146 294.794 21.642C295.111 21.138 295.559 20.7367 296.138 20.438C296.726 20.1393 297.417 19.99 298.21 19.99C299.05 19.99 299.759 20.1113 300.338 20.354C300.917 20.5967 301.355 20.928 301.654 21.348C301.953 21.768 302.102 22.244 302.102 22.776C302.102 23.4013 301.887 23.9007 301.458 24.274C301.029 24.638 300.455 24.904 299.736 25.072C299.027 25.2307 298.238 25.31 297.37 25.31ZM298.07 30.28C297.407 30.28 296.815 30.1773 296.292 29.972C295.779 29.7667 295.345 29.4867 294.99 29.132C294.635 28.7773 294.365 28.3807 294.178 27.942C293.991 27.494 293.898 27.0367 293.898 26.57H296.922C296.922 26.8967 296.983 27.158 297.104 27.354C297.235 27.55 297.398 27.69 297.594 27.774C297.799 27.858 298.005 27.9 298.21 27.9C298.425 27.9 298.616 27.8767 298.784 27.83C298.961 27.774 299.101 27.6807 299.204 27.55C299.307 27.41 299.358 27.2233 299.358 26.99C299.358 26.85 299.325 26.7147 299.26 26.584C299.195 26.444 299.087 26.3227 298.938 26.22C298.789 26.108 298.583 26.024 298.322 25.968C298.07 25.9027 297.753 25.87 297.37 25.87V24.414C298.126 24.414 298.807 24.47 299.414 24.582C300.03 24.6847 300.557 24.8527 300.996 25.086C301.444 25.3193 301.785 25.618 302.018 25.982C302.261 26.3367 302.382 26.766 302.382 27.27C302.382 27.8487 302.214 28.3667 301.878 28.824C301.551 29.272 301.066 29.6267 300.422 29.888C299.787 30.1493 299.003 30.28 298.07 30.28Z" fill="white"/>
<path d="M318.212 25.227V24.534C318.593 24.534 318.916 24.4827 319.18 24.38C319.444 24.27 319.642 24.127 319.774 23.951C319.913 23.7677 319.983 23.566 319.983 23.346C319.983 23.1407 319.932 22.9573 319.829 22.796C319.734 22.6273 319.583 22.499 319.378 22.411C319.18 22.323 318.931 22.279 318.63 22.279C318.344 22.279 318.087 22.3267 317.86 22.422C317.64 22.51 317.468 22.6347 317.343 22.796C317.218 22.9573 317.156 23.1407 317.156 23.346H315.935C315.935 22.9207 316.041 22.5467 316.254 22.224C316.474 21.9013 316.786 21.6483 317.189 21.465C317.592 21.2743 318.073 21.179 318.63 21.179C319.195 21.179 319.675 21.2743 320.071 21.465C320.467 21.6557 320.768 21.9087 320.973 22.224C321.186 22.532 321.292 22.8767 321.292 23.258C321.292 23.5513 321.215 23.819 321.061 24.061C320.907 24.303 320.691 24.512 320.412 24.688C320.141 24.864 319.814 24.9997 319.433 25.095C319.059 25.183 318.652 25.227 318.212 25.227ZM318.619 29.132C318.113 29.132 317.673 29.0733 317.299 28.956C316.925 28.8313 316.61 28.6627 316.353 28.45C316.104 28.23 315.917 27.9807 315.792 27.702C315.667 27.416 315.605 27.1153 315.605 26.8H316.903C316.925 27.0493 317.002 27.2657 317.134 27.449C317.266 27.625 317.453 27.7643 317.695 27.867C317.944 27.9623 318.245 28.01 318.597 28.01C319.125 28.01 319.525 27.9037 319.796 27.691C320.067 27.4783 320.203 27.1813 320.203 26.8C320.203 26.5213 320.122 26.2867 319.961 26.096C319.8 25.9053 319.569 25.7587 319.268 25.656C318.975 25.5533 318.623 25.502 318.212 25.502V24.765C318.835 24.765 319.396 24.842 319.895 24.996C320.394 25.1427 320.786 25.3737 321.072 25.689C321.365 26.0043 321.512 26.4223 321.512 26.943C321.512 27.3757 321.398 27.757 321.171 28.087C320.951 28.417 320.625 28.6737 320.192 28.857C319.767 29.0403 319.242 29.132 318.619 29.132ZM323.446 27.504C323.446 27.658 323.487 27.7863 323.567 27.889C323.655 27.9917 323.769 28.0723 323.908 28.131C324.048 28.1823 324.205 28.208 324.381 28.208C324.638 28.208 324.869 28.1677 325.074 28.087C325.28 28.0063 325.441 27.878 325.558 27.702C325.676 27.526 325.734 27.2913 325.734 26.998L325.91 27.57C325.91 27.8927 325.826 28.1713 325.657 28.406C325.489 28.6333 325.261 28.8093 324.975 28.934C324.689 29.0513 324.37 29.11 324.018 29.11C323.688 29.11 323.388 29.0513 323.116 28.934C322.852 28.8167 322.64 28.6443 322.478 28.417C322.324 28.1823 322.247 27.8927 322.247 27.548C322.247 27.2033 322.335 26.9063 322.511 26.657C322.687 26.4077 322.937 26.217 323.259 26.085C323.589 25.953 323.974 25.887 324.414 25.887C324.708 25.887 324.968 25.9237 325.195 25.997C325.43 26.0703 325.624 26.1547 325.778 26.25C325.932 26.3453 326.039 26.4297 326.097 26.503V27.13C325.87 26.9613 325.639 26.8403 325.404 26.767C325.17 26.6863 324.898 26.646 324.59 26.646C324.341 26.646 324.128 26.6827 323.952 26.756C323.784 26.822 323.655 26.921 323.567 27.053C323.487 27.1777 323.446 27.328 323.446 27.504ZM323.182 25.271L322.709 24.424C322.937 24.2847 323.226 24.149 323.578 24.017C323.93 23.885 324.334 23.819 324.788 23.819C325.206 23.819 325.573 23.8813 325.888 24.006C326.204 24.1307 326.449 24.3103 326.625 24.545C326.809 24.7723 326.9 25.0547 326.9 25.392V29H325.734V25.524C325.734 25.2893 325.635 25.1097 325.437 24.985C325.247 24.853 325.012 24.787 324.733 24.787C324.491 24.787 324.268 24.8163 324.062 24.875C323.857 24.9337 323.677 25.0033 323.523 25.084C323.377 25.1573 323.263 25.2197 323.182 25.271ZM329.054 26.36H330.66C331.012 26.36 331.327 26.3967 331.606 26.47C331.885 26.5433 332.105 26.6717 332.266 26.855C332.427 27.0383 332.508 27.295 332.508 27.625C332.508 28.0063 332.38 28.3327 332.123 28.604C331.874 28.868 331.459 29 330.88 29H329.054V28.12H330.517C330.81 28.12 331.023 28.0577 331.155 27.933C331.287 27.8083 331.353 27.6617 331.353 27.493C331.353 27.405 331.335 27.3243 331.298 27.251C331.261 27.1777 331.21 27.1117 331.144 27.053C331.085 26.9943 331.001 26.9503 330.891 26.921C330.788 26.8917 330.664 26.877 330.517 26.877H329.054V26.36ZM329.054 26.58V26.008H330.407C330.517 26.008 330.616 25.9933 330.704 25.964C330.799 25.9347 330.876 25.8907 330.935 25.832C330.994 25.7733 331.041 25.7073 331.078 25.634C331.115 25.5607 331.133 25.4837 331.133 25.403C331.133 25.2343 331.067 25.095 330.935 24.985C330.81 24.875 330.634 24.82 330.407 24.82H329.054V23.94H330.55C330.865 23.94 331.151 23.9877 331.408 24.083C331.672 24.171 331.885 24.3177 332.046 24.523C332.207 24.721 332.288 24.985 332.288 25.315C332.288 25.601 332.207 25.8393 332.046 26.03C331.885 26.2133 331.672 26.3527 331.408 26.448C331.151 26.536 330.865 26.58 330.55 26.58H329.054ZM328.361 23.94H329.527V29H328.361V23.94ZM333.921 26.745V25.931H337.1C337.07 25.689 337.004 25.48 336.902 25.304C336.806 25.1207 336.671 24.9813 336.495 24.886C336.319 24.7833 336.102 24.732 335.846 24.732C335.582 24.732 335.343 24.7907 335.131 24.908C334.918 25.018 334.749 25.183 334.625 25.403C334.5 25.6157 334.438 25.8687 334.438 26.162L334.416 26.47C334.416 26.844 334.474 27.1557 334.592 27.405C334.716 27.647 334.885 27.8303 335.098 27.955C335.318 28.0723 335.571 28.131 335.857 28.131C336.091 28.131 336.297 28.098 336.473 28.032C336.656 27.966 336.817 27.8743 336.957 27.757C337.096 27.6323 337.213 27.4893 337.309 27.328L338.332 27.746C338.163 28.0173 337.969 28.2557 337.749 28.461C337.536 28.6663 337.272 28.8277 336.957 28.945C336.649 29.055 336.264 29.11 335.802 29.11C335.281 29.11 334.826 28.9963 334.438 28.769C334.049 28.5417 333.748 28.23 333.536 27.834C333.323 27.4307 333.217 26.976 333.217 26.47C333.217 26.3747 333.22 26.283 333.228 26.195C333.235 26.107 333.246 26.019 333.261 25.931C333.334 25.513 333.481 25.1463 333.701 24.831C333.928 24.5157 334.225 24.27 334.592 24.094C334.958 23.918 335.38 23.83 335.857 23.83C336.377 23.83 336.825 23.9363 337.199 24.149C337.58 24.3543 337.873 24.6513 338.079 25.04C338.284 25.4213 338.387 25.8797 338.387 26.415C338.387 26.459 338.387 26.5103 338.387 26.569C338.387 26.6203 338.379 26.679 338.365 26.745H333.921ZM340.686 31.42H339.487V23.94H340.686V31.42ZM344.877 26.47C344.877 27.0273 344.764 27.5077 344.536 27.911C344.309 28.307 344.008 28.6113 343.634 28.824C343.26 29.0293 342.853 29.132 342.413 29.132C341.981 29.132 341.603 29.0257 341.28 28.813C340.965 28.593 340.719 28.285 340.543 27.889C340.375 27.4857 340.29 27.0127 340.29 26.47C340.29 25.92 340.375 25.447 340.543 25.051C340.719 24.655 340.965 24.3507 341.28 24.138C341.603 23.918 341.981 23.808 342.413 23.808C342.853 23.808 343.26 23.9143 343.634 24.127C344.008 24.3323 344.309 24.633 344.536 25.029C344.764 25.425 344.877 25.9053 344.877 26.47ZM343.645 26.47C343.645 26.1327 343.576 25.8467 343.436 25.612C343.297 25.37 343.11 25.1903 342.875 25.073C342.648 24.9483 342.395 24.886 342.116 24.886C341.889 24.886 341.665 24.9483 341.445 25.073C341.225 25.1903 341.042 25.3663 340.895 25.601C340.756 25.8357 340.686 26.1253 340.686 26.47C340.686 26.8147 340.756 27.1043 340.895 27.339C341.042 27.5737 341.225 27.7533 341.445 27.878C341.665 27.9953 341.889 28.054 342.116 28.054C342.395 28.054 342.648 27.9953 342.875 27.878C343.11 27.7533 343.297 27.5737 343.436 27.339C343.576 27.097 343.645 26.8073 343.645 26.47ZM350.244 27.955H352.158V23.94H353.324V29H346.009V23.94H347.175V27.955H349.078V23.94H350.244V27.955ZM355.158 26.745V25.931H358.337C358.308 25.689 358.242 25.48 358.139 25.304C358.044 25.1207 357.908 24.9813 357.732 24.886C357.556 24.7833 357.34 24.732 357.083 24.732C356.819 24.732 356.581 24.7907 356.368 24.908C356.155 25.018 355.987 25.183 355.862 25.403C355.737 25.6157 355.675 25.8687 355.675 26.162L355.653 26.47C355.653 26.844 355.712 27.1557 355.829 27.405C355.954 27.647 356.122 27.8303 356.335 27.955C356.555 28.0723 356.808 28.131 357.094 28.131C357.329 28.131 357.534 28.098 357.71 28.032C357.893 27.966 358.055 27.8743 358.194 27.757C358.333 27.6323 358.451 27.4893 358.546 27.328L359.569 27.746C359.4 28.0173 359.206 28.2557 358.986 28.461C358.773 28.6663 358.509 28.8277 358.194 28.945C357.886 29.055 357.501 29.11 357.039 29.11C356.518 29.11 356.064 28.9963 355.675 28.769C355.286 28.5417 354.986 28.23 354.773 27.834C354.56 27.4307 354.454 26.976 354.454 26.47C354.454 26.3747 354.458 26.283 354.465 26.195C354.472 26.107 354.483 26.019 354.498 25.931C354.571 25.513 354.718 25.1463 354.938 24.831C355.165 24.5157 355.462 24.27 355.829 24.094C356.196 23.918 356.617 23.83 357.094 23.83C357.615 23.83 358.062 23.9363 358.436 24.149C358.817 24.3543 359.111 24.6513 359.316 25.04C359.521 25.4213 359.624 25.8797 359.624 26.415C359.624 26.459 359.624 26.5103 359.624 26.569C359.624 26.6203 359.617 26.679 359.602 26.745H355.158ZM361.286 26.822V25.843H365.158V26.822H361.286ZM364.52 23.94H365.686V29H364.52V23.94ZM360.769 23.94H361.935V29H360.769V23.94ZM371.79 25.04L367.247 29.385L367.302 27.9L371.845 23.555L371.79 25.04ZM368.413 23.94V28.043L367.247 29.385V23.94H368.413ZM371.845 23.555V29H370.679V24.897L371.845 23.555ZM373.731 26.745V25.931H376.91C376.881 25.689 376.815 25.48 376.712 25.304C376.617 25.1207 376.481 24.9813 376.305 24.886C376.129 24.7833 375.913 24.732 375.656 24.732C375.392 24.732 375.154 24.7907 374.941 24.908C374.729 25.018 374.56 25.183 374.435 25.403C374.311 25.6157 374.248 25.8687 374.248 26.162L374.226 26.47C374.226 26.844 374.285 27.1557 374.402 27.405C374.527 27.647 374.696 27.8303 374.908 27.955C375.128 28.0723 375.381 28.131 375.667 28.131C375.902 28.131 376.107 28.098 376.283 28.032C376.467 27.966 376.628 27.8743 376.767 27.757C376.907 27.6323 377.024 27.4893 377.119 27.328L378.142 27.746C377.974 28.0173 377.779 28.2557 377.559 28.461C377.347 28.6663 377.083 28.8277 376.767 28.945C376.459 29.055 376.074 29.11 375.612 29.11C375.092 29.11 374.637 28.9963 374.248 28.769C373.86 28.5417 373.559 28.23 373.346 27.834C373.134 27.4307 373.027 26.976 373.027 26.47C373.027 26.3747 373.031 26.283 373.038 26.195C373.046 26.107 373.057 26.019 373.071 25.931C373.145 25.513 373.291 25.1463 373.511 24.831C373.739 24.5157 374.036 24.27 374.402 24.094C374.769 23.918 375.191 23.83 375.667 23.83C376.188 23.83 376.635 23.9363 377.009 24.149C377.391 24.3543 377.684 24.6513 377.889 25.04C378.095 25.4213 378.197 25.8797 378.197 26.415C378.197 26.459 378.197 26.5103 378.197 26.569C378.197 26.6203 378.19 26.679 378.175 26.745H373.731Z" fill="white"/>
<rect x="119" y="25" width="36" height="2" fill="url(#paint3_linear_68_13)"/>
<rect x="245" y="25" width="36" height="2" fill="url(#paint4_linear_68_13)"/>
<defs>
<linearGradient id="paint0_linear_68_13" x1="8" y1="13" x2="32" y2="37" gradientUnits="userSpaceOnUse">
<stop stop-color="#1E7F34"/>
<stop offset="1" stop-color="#2ECC71"/>
</linearGradient>
<linearGradient id="paint1_linear_68_13" x1="159" y1="13" x2="183" y2="37" gradientUnits="userSpaceOnUse">
<stop stop-color="#1E7F34"/>
<stop offset="1" stop-color="#2ECC71"/>
</linearGradient>
<linearGradient id="paint2_linear_68_13" x1="286" y1="13" x2="310" y2="37" gradientUnits="userSpaceOnUse">
<stop stop-color="#DA6AD0"/>
<stop offset="1" stop-color="#9780E5"/>
</linearGradient>
<linearGradient id="paint3_linear_68_13" x1="119" y1="25" x2="155" y2="27" gradientUnits="userSpaceOnUse">
<stop stop-color="#1E7F34"/>
<stop offset="1" stop-color="#2ECC71"/>
</linearGradient>
<linearGradient id="paint4_linear_68_13" x1="245" y1="25" x2="281" y2="27" gradientUnits="userSpaceOnUse">
<stop stop-color="#DA6AD0"/>
<stop offset="1" stop-color="#9780E5"/>
</linearGradient>
</defs>
</svg>
