<svg width="396" height="50" viewBox="0 0 396 50" fill="none" xmlns="http://www.w3.org/2000/svg">
<rect x="8" y="13" width="24" height="24" rx="4" fill="url(#paint0_linear_68_13)"/>
<path d="M17.238 24.033V21.654L22.373 20.705V30H19.643V23.5L17.238 24.033Z" fill="white"/>
<path d="M42.918 22.499H39.2V29H37.88V21.3H44.227V29H42.918V22.499ZM45.4844 26.47C45.4844 25.9493 45.6017 25.491 45.8364 25.095C46.0784 24.699 46.4047 24.391 46.8154 24.171C47.226 23.9437 47.6917 23.83 48.2124 23.83C48.733 23.83 49.195 23.9437 49.5984 24.171C50.009 24.391 50.3354 24.699 50.5774 25.095C50.8194 25.491 50.9404 25.9493 50.9404 26.47C50.9404 26.9833 50.8194 27.4417 50.5774 27.845C50.3354 28.241 50.009 28.5527 49.5984 28.78C49.195 29 48.733 29.11 48.2124 29.11C47.6917 29.11 47.226 29 46.8154 28.78C46.4047 28.5527 46.0784 28.241 45.8364 27.845C45.6017 27.4417 45.4844 26.9833 45.4844 26.47ZM46.7054 26.47C46.7054 26.7853 46.7714 27.064 46.9034 27.306C47.0354 27.5407 47.215 27.7277 47.4424 27.867C47.6697 27.999 47.9264 28.065 48.2124 28.065C48.491 28.065 48.744 27.999 48.9714 27.867C49.206 27.7277 49.3894 27.5407 49.5214 27.306C49.6534 27.064 49.7194 26.7853 49.7194 26.47C49.7194 26.1547 49.6534 25.876 49.5214 25.634C49.3894 25.392 49.206 25.205 48.9714 25.073C48.744 24.941 48.491 24.875 48.2124 24.875C47.9264 24.875 47.6697 24.941 47.4424 25.073C47.215 25.205 47.0354 25.392 46.9034 25.634C46.7714 25.876 46.7054 26.1547 46.7054 26.47ZM54.4457 25.645L53.0707 28.67L51.8387 28.538L54.4457 23.555L57.0527 28.538L55.8207 28.67L54.4457 25.645ZM56.5357 29H52.4107V29.99H51.2007V27.988H57.6907V29.99H56.5357V29ZM58.2386 23.94H61.4396V24.985H58.2386V23.94ZM59.2616 24.16H60.4276V29H59.2616V24.16ZM63.0102 26.36H64.6162C64.9682 26.36 65.2835 26.3967 65.5622 26.47C65.8409 26.5433 66.0609 26.6717 66.2222 26.855C66.3835 27.0383 66.4642 27.295 66.4642 27.625C66.4642 28.0063 66.3359 28.3327 66.0792 28.604C65.8299 28.868 65.4155 29 64.8362 29H63.0102V28.12H64.4732C64.7665 28.12 64.9792 28.0577 65.1112 27.933C65.2432 27.8083 65.3092 27.6617 65.3092 27.493C65.3092 27.405 65.2909 27.3243 65.2542 27.251C65.2175 27.1777 65.1662 27.1117 65.1002 27.053C65.0415 26.9943 64.9572 26.9503 64.8472 26.921C64.7445 26.8917 64.6199 26.877 64.4732 26.877H63.0102V26.36ZM63.0102 26.58V26.008H64.3632C64.4732 26.008 64.5722 25.9933 64.6602 25.964C64.7555 25.9347 64.8325 25.8907 64.8912 25.832C64.9499 25.7733 64.9975 25.7073 65.0342 25.634C65.0709 25.5607 65.0892 25.4837 65.0892 25.403C65.0892 25.2343 65.0232 25.095 64.8912 24.985C64.7665 24.875 64.5905 24.82 64.3632 24.82H63.0102V23.94H64.5062C64.8215 23.94 65.1075 23.9877 65.3642 24.083C65.6282 24.171 65.8409 24.3177 66.0022 24.523C66.1635 24.721 66.2442 24.985 66.2442 25.315C66.2442 25.601 66.1635 25.8393 66.0022 26.03C65.8409 26.2133 65.6282 26.3527 65.3642 26.448C65.1075 26.536 64.8215 26.58 64.5062 26.58H63.0102ZM62.3172 23.94H63.4832V29H62.3172V23.94ZM67.8768 26.745V25.931H71.0558C71.0265 25.689 70.9605 25.48 70.8578 25.304C70.7625 25.1207 70.6268 24.9813 70.4508 24.886C70.2748 24.7833 70.0585 24.732 69.8018 24.732C69.5378 24.732 69.2995 24.7907 69.0868 24.908C68.8742 25.018 68.7055 25.183 68.5808 25.403C68.4562 25.6157 68.3938 25.8687 68.3938 26.162L68.3718 26.47C68.3718 26.844 68.4305 27.1557 68.5478 27.405C68.6725 27.647 68.8412 27.8303 69.0538 27.955C69.2738 28.0723 69.5268 28.131 69.8128 28.131C70.0475 28.131 70.2528 28.098 70.4288 28.032C70.6122 27.966 70.7735 27.8743 70.9128 27.757C71.0522 27.6323 71.1695 27.4893 71.2648 27.328L72.2878 27.746C72.1192 28.0173 71.9248 28.2557 71.7048 28.461C71.4922 28.6663 71.2282 28.8277 70.9128 28.945C70.6048 29.055 70.2198 29.11 69.7578 29.11C69.2372 29.11 68.7825 28.9963 68.3938 28.769C68.0052 28.5417 67.7045 28.23 67.4918 27.834C67.2792 27.4307 67.1728 26.976 67.1728 26.47C67.1728 26.3747 67.1765 26.283 67.1838 26.195C67.1912 26.107 67.2022 26.019 67.2168 25.931C67.2902 25.513 67.4368 25.1463 67.6568 24.831C67.8842 24.5157 68.1812 24.27 68.5478 24.094C68.9145 23.918 69.3362 23.83 69.8128 23.83C70.3335 23.83 70.7808 23.9363 71.1548 24.149C71.5362 24.3543 71.8295 24.6513 72.0348 25.04C72.2402 25.4213 72.3428 25.8797 72.3428 26.415C72.3428 26.459 72.3428 26.5103 72.3428 26.569C72.3428 26.6203 72.3355 26.679 72.3208 26.745H67.8768ZM74.6425 31.42H73.4435V23.94H74.6425V31.42ZM78.8335 26.47C78.8335 27.0273 78.7198 27.5077 78.4925 27.911C78.2652 28.307 77.9645 28.6113 77.5905 28.824C77.2165 29.0293 76.8095 29.132 76.3695 29.132C75.9368 29.132 75.5592 29.0257 75.2365 28.813C74.9212 28.593 74.6755 28.285 74.4995 27.889C74.3308 27.4857 74.2465 27.0127 74.2465 26.47C74.2465 25.92 74.3308 25.447 74.4995 25.051C74.6755 24.655 74.9212 24.3507 75.2365 24.138C75.5592 23.918 75.9368 23.808 76.3695 23.808C76.8095 23.808 77.2165 23.9143 77.5905 24.127C77.9645 24.3323 78.2652 24.633 78.4925 25.029C78.7198 25.425 78.8335 25.9053 78.8335 26.47ZM77.6015 26.47C77.6015 26.1327 77.5318 25.8467 77.3925 25.612C77.2532 25.37 77.0662 25.1903 76.8315 25.073C76.6042 24.9483 76.3512 24.886 76.0725 24.886C75.8452 24.886 75.6215 24.9483 75.4015 25.073C75.1815 25.1903 74.9982 25.3663 74.8515 25.601C74.7122 25.8357 74.6425 26.1253 74.6425 26.47C74.6425 26.8147 74.7122 27.1043 74.8515 27.339C74.9982 27.5737 75.1815 27.7533 75.4015 27.878C75.6215 27.9953 75.8452 28.054 76.0725 28.054C76.3512 28.054 76.6042 27.9953 76.8315 27.878C77.0662 27.7533 77.2532 27.5737 77.3925 27.339C77.5318 27.097 77.6015 26.8073 77.6015 26.47ZM85.7219 23.94H87.1519L84.8969 26.118L87.3719 29H85.9419L83.5219 26.03L85.7219 23.94ZM83.7749 23.94V29H82.6419V23.94H83.7749ZM80.6949 23.94L82.8949 26.03L80.4749 29H79.0449L81.5199 26.118L79.2649 23.94H80.6949ZM91.3881 25.645L90.0131 28.67L88.7811 28.538L91.3881 23.555L93.9951 28.538L92.7631 28.67L91.3881 25.645ZM93.4781 29H89.3531V29.99H88.1431V27.988H94.6331V29.99H93.4781V29ZM96.204 26.745V25.931H99.383C99.3536 25.689 99.2876 25.48 99.185 25.304C99.0896 25.1207 98.954 24.9813 98.778 24.886C98.602 24.7833 98.3856 24.732 98.129 24.732C97.865 24.732 97.6266 24.7907 97.414 24.908C97.2013 25.018 97.0326 25.183 96.908 25.403C96.7833 25.6157 96.721 25.8687 96.721 26.162L96.699 26.47C96.699 26.844 96.7576 27.1557 96.875 27.405C96.9996 27.647 97.1683 27.8303 97.381 27.955C97.601 28.0723 97.854 28.131 98.14 28.131C98.3746 28.131 98.58 28.098 98.756 28.032C98.9393 27.966 99.1006 27.8743 99.24 27.757C99.3793 27.6323 99.4966 27.4893 99.592 27.328L100.615 27.746C100.446 28.0173 100.252 28.2557 100.032 28.461C99.8193 28.6663 99.5553 28.8277 99.24 28.945C98.932 29.055 98.547 29.11 98.085 29.11C97.5643 29.11 97.1096 28.9963 96.721 28.769C96.3323 28.5417 96.0316 28.23 95.819 27.834C95.6063 27.4307 95.5 26.976 95.5 26.47C95.5 26.3747 95.5036 26.283 95.511 26.195C95.5183 26.107 95.5293 26.019 95.544 25.931C95.6173 25.513 95.764 25.1463 95.984 24.831C96.2113 24.5157 96.5083 24.27 96.875 24.094C97.2416 23.918 97.6633 23.83 98.14 23.83C98.6606 23.83 99.108 23.9363 99.482 24.149C99.8633 24.3543 100.157 24.6513 100.362 25.04C100.567 25.4213 100.67 25.8797 100.67 26.415C100.67 26.459 100.67 26.5103 100.67 26.569C100.67 26.6203 100.663 26.679 100.648 26.745H96.204ZM102.332 26.822V25.843H106.204V26.822H102.332ZM105.566 23.94H106.732V29H105.566V23.94ZM101.815 23.94H102.981V29H101.815V23.94ZM112.836 25.04L108.293 29.385L108.348 27.9L112.891 23.555L112.836 25.04ZM109.459 23.94V28.043L108.293 29.385V23.94H109.459ZM112.891 23.555V29H111.725V24.897L112.891 23.555ZM114.777 26.745V25.931H117.956C117.927 25.689 117.861 25.48 117.758 25.304C117.663 25.1207 117.527 24.9813 117.351 24.886C117.175 24.7833 116.959 24.732 116.702 24.732C116.438 24.732 116.2 24.7907 115.987 24.908C115.775 25.018 115.606 25.183 115.481 25.403C115.357 25.6157 115.294 25.8687 115.294 26.162L115.272 26.47C115.272 26.844 115.331 27.1557 115.448 27.405C115.573 27.647 115.742 27.8303 115.954 27.955C116.174 28.0723 116.427 28.131 116.713 28.131C116.948 28.131 117.153 28.098 117.329 28.032C117.513 27.966 117.674 27.8743 117.813 27.757C117.953 27.6323 118.07 27.4893 118.165 27.328L119.188 27.746C119.02 28.0173 118.825 28.2557 118.605 28.461C118.393 28.6663 118.129 28.8277 117.813 28.945C117.505 29.055 117.12 29.11 116.658 29.11C116.138 29.11 115.683 28.9963 115.294 28.769C114.906 28.5417 114.605 28.23 114.392 27.834C114.18 27.4307 114.073 26.976 114.073 26.47C114.073 26.3747 114.077 26.283 114.084 26.195C114.092 26.107 114.103 26.019 114.117 25.931C114.191 25.513 114.337 25.1463 114.557 24.831C114.785 24.5157 115.082 24.27 115.448 24.094C115.815 23.918 116.237 23.83 116.713 23.83C117.234 23.83 117.681 23.9363 118.055 24.149C118.437 24.3543 118.73 24.6513 118.935 25.04C119.141 25.4213 119.243 25.8797 119.243 26.415C119.243 26.459 119.243 26.5103 119.243 26.569C119.243 26.6203 119.236 26.679 119.221 26.745H114.777Z" fill="white"/>
<rect x="163" y="13" width="24" height="24" rx="4" fill="#C3C3C3"/>
<path d="M170.652 30L174.565 26.035C174.833 25.7403 175.063 25.4847 175.254 25.268C175.453 25.0427 175.605 24.826 175.709 24.618C175.813 24.41 175.865 24.189 175.865 23.955C175.865 23.8423 175.847 23.734 175.813 23.63C175.778 23.526 175.722 23.435 175.644 23.357C175.566 23.279 175.466 23.2183 175.345 23.175C175.232 23.123 175.093 23.097 174.929 23.097C174.712 23.097 174.521 23.1577 174.357 23.279C174.192 23.3917 174.062 23.5477 173.967 23.747C173.88 23.9463 173.837 24.1673 173.837 24.41H171.042C171.042 23.76 171.189 23.1533 171.484 22.59C171.778 22.0267 172.22 21.5717 172.81 21.225C173.408 20.8697 174.149 20.692 175.033 20.692C175.631 20.692 176.164 20.7787 176.632 20.952C177.108 21.1167 177.507 21.3463 177.828 21.641C178.157 21.927 178.404 22.252 178.569 22.616C178.742 22.98 178.829 23.357 178.829 23.747C178.829 24.2497 178.703 24.696 178.452 25.086C178.2 25.4673 177.867 25.8183 177.451 26.139L175.813 27.4H179.154V30H170.652Z" fill="black"/>
<path d="M193.397 25.26V24.38H198.677V25.26H193.397ZM198.05 21.3H198.985V29H198.05V21.3ZM192.88 21.3H193.815V29H192.88V21.3ZM200.248 26.47C200.248 25.9567 200.362 25.502 200.589 25.106C200.824 24.71 201.139 24.3983 201.535 24.171C201.931 23.9437 202.375 23.83 202.866 23.83C203.365 23.83 203.809 23.9437 204.197 24.171C204.593 24.3983 204.905 24.71 205.132 25.106C205.367 25.502 205.484 25.9567 205.484 26.47C205.484 26.976 205.367 27.4307 205.132 27.834C204.905 28.23 204.593 28.5417 204.197 28.769C203.809 28.9963 203.365 29.11 202.866 29.11C202.375 29.11 201.931 28.9963 201.535 28.769C201.139 28.5417 200.824 28.23 200.589 27.834C200.362 27.4307 200.248 26.976 200.248 26.47ZM201.139 26.47C201.139 26.822 201.213 27.1337 201.359 27.405C201.513 27.6763 201.719 27.8927 201.975 28.054C202.239 28.208 202.536 28.285 202.866 28.285C203.196 28.285 203.49 28.208 203.746 28.054C204.01 27.8927 204.216 27.6763 204.362 27.405C204.516 27.1337 204.593 26.822 204.593 26.47C204.593 26.118 204.516 25.8063 204.362 25.535C204.216 25.2563 204.01 25.04 203.746 24.886C203.49 24.732 203.196 24.655 202.866 24.655C202.536 24.655 202.239 24.732 201.975 24.886C201.719 25.04 201.513 25.2563 201.359 25.535C201.213 25.8063 201.139 26.118 201.139 26.47ZM207.21 26.36H208.673C209.025 26.36 209.34 26.3967 209.619 26.47C209.898 26.5433 210.118 26.6717 210.279 26.855C210.44 27.0383 210.521 27.295 210.521 27.625C210.521 28.0063 210.393 28.3327 210.136 28.604C209.887 28.868 209.472 29 208.893 29H207.21V28.23H208.673C209.003 28.23 209.245 28.1603 209.399 28.021C209.56 27.8817 209.641 27.713 209.641 27.515C209.641 27.4123 209.619 27.3207 209.575 27.24C209.538 27.1593 209.48 27.086 209.399 27.02C209.326 26.954 209.227 26.9063 209.102 26.877C208.985 26.8403 208.842 26.822 208.673 26.822H207.21V26.36ZM207.21 26.58V26.063H208.563C208.695 26.063 208.812 26.0483 208.915 26.019C209.025 25.9823 209.117 25.931 209.19 25.865C209.263 25.799 209.318 25.7257 209.355 25.645C209.399 25.557 209.421 25.4653 209.421 25.37C209.421 25.172 209.344 25.0143 209.19 24.897C209.036 24.7723 208.827 24.71 208.563 24.71H207.21V23.94H208.563C208.878 23.94 209.164 23.9877 209.421 24.083C209.685 24.171 209.898 24.3177 210.059 24.523C210.22 24.721 210.301 24.985 210.301 25.315C210.301 25.601 210.22 25.8393 210.059 26.03C209.898 26.2133 209.685 26.3527 209.421 26.448C209.164 26.536 208.878 26.58 208.563 26.58H207.21ZM206.693 23.94H207.573V29H206.693V23.94ZM216.243 23.94H217.123V29H216.243V23.94ZM211.678 23.94H212.558V29H211.678V23.94ZM212.195 26.624V25.854H213.768C214.288 25.854 214.725 25.9823 215.077 26.239C215.436 26.4883 215.616 26.8843 215.616 27.427C215.616 27.7863 215.535 28.0833 215.374 28.318C215.212 28.5527 214.992 28.725 214.714 28.835C214.435 28.945 214.12 29 213.768 29H212.195V28.23H213.768C213.98 28.23 214.156 28.2007 214.296 28.142C214.442 28.076 214.552 27.9843 214.626 27.867C214.699 27.7423 214.736 27.5957 214.736 27.427C214.736 27.1703 214.655 26.9723 214.494 26.833C214.332 26.6937 214.09 26.624 213.768 26.624H212.195ZM223.002 24.82L218.822 29.385L218.877 28.12L223.057 23.555L223.002 24.82ZM219.702 23.94V28.175L218.822 29.385V23.94H219.702ZM223.057 23.555V29H222.177V24.765L223.057 23.555ZM219.229 21.355H220.01C220.01 21.4503 220.036 21.564 220.087 21.696C220.139 21.8207 220.234 21.9343 220.373 22.037C220.513 22.1323 220.711 22.18 220.967 22.18C221.224 22.18 221.422 22.1323 221.561 22.037C221.701 21.9343 221.796 21.8207 221.847 21.696C221.899 21.564 221.924 21.4503 221.924 21.355H222.705C222.705 21.6043 222.639 21.85 222.507 22.092C222.383 22.3267 222.192 22.521 221.935 22.675C221.679 22.8217 221.356 22.895 220.967 22.895C220.586 22.895 220.263 22.8217 219.999 22.675C219.743 22.521 219.548 22.3267 219.416 22.092C219.292 21.85 219.229 21.6043 219.229 21.355ZM228.631 29V28.12H232.514V29H228.631ZM228.631 22.18V21.3H232.514V22.18H228.631ZM228.631 25.26V24.38H232.294V25.26H228.631ZM228.114 21.3H229.049V29H228.114V21.3ZM241.037 25.81V29H240.157V25.92C240.157 25.4873 240.077 25.1683 239.915 24.963C239.761 24.7577 239.519 24.655 239.189 24.655C238.947 24.655 238.738 24.7063 238.562 24.809C238.386 24.9043 238.251 25.0473 238.155 25.238C238.06 25.4287 238.012 25.656 238.012 25.92V29H237.132V25.92C237.132 25.4873 237.052 25.1683 236.89 24.963C236.736 24.7577 236.494 24.655 236.164 24.655C235.922 24.655 235.713 24.7063 235.537 24.809C235.361 24.9043 235.226 25.0473 235.13 25.238C235.035 25.4287 234.987 25.656 234.987 25.92V29H234.107V23.94H234.987V24.677C235.141 24.391 235.332 24.1783 235.559 24.039C235.794 23.8997 236.069 23.83 236.384 23.83C236.736 23.83 237.037 23.9143 237.286 24.083C237.543 24.2443 237.73 24.4753 237.847 24.776C238.023 24.4607 238.243 24.226 238.507 24.072C238.771 23.9107 239.072 23.83 239.409 23.83C239.754 23.83 240.047 23.907 240.289 24.061C240.531 24.215 240.715 24.4423 240.839 24.743C240.971 25.0363 241.037 25.392 241.037 25.81ZM243.086 27.438C243.086 27.6287 243.13 27.7937 243.218 27.933C243.314 28.0723 243.442 28.1787 243.603 28.252C243.772 28.318 243.963 28.351 244.175 28.351C244.447 28.351 244.689 28.296 244.901 28.186C245.121 28.076 245.294 27.922 245.418 27.724C245.55 27.5187 245.616 27.284 245.616 27.02L245.792 27.68C245.792 28.0027 245.693 28.2703 245.495 28.483C245.305 28.6957 245.066 28.8533 244.78 28.956C244.502 29.0587 244.223 29.11 243.944 29.11C243.636 29.11 243.347 29.0477 243.075 28.923C242.811 28.791 242.599 28.604 242.437 28.362C242.276 28.12 242.195 27.8267 242.195 27.482C242.195 26.9907 242.368 26.5983 242.712 26.305C243.064 26.0043 243.552 25.854 244.175 25.854C244.542 25.854 244.846 25.898 245.088 25.986C245.338 26.0667 245.536 26.162 245.682 26.272C245.829 26.3747 245.928 26.459 245.979 26.525V27.042C245.723 26.866 245.459 26.7413 245.187 26.668C244.916 26.5873 244.626 26.547 244.318 26.547C244.032 26.547 243.798 26.5837 243.614 26.657C243.438 26.7303 243.306 26.833 243.218 26.965C243.13 27.097 243.086 27.2547 243.086 27.438ZM242.954 25.106L242.525 24.457C242.716 24.3177 242.976 24.1783 243.306 24.039C243.644 23.8997 244.047 23.83 244.516 23.83C244.912 23.83 245.257 23.8923 245.55 24.017C245.851 24.1343 246.082 24.3067 246.243 24.534C246.412 24.7613 246.496 25.04 246.496 25.37V29H245.616V25.491C245.616 25.315 245.587 25.172 245.528 25.062C245.47 24.9447 245.385 24.853 245.275 24.787C245.173 24.721 245.052 24.6733 244.912 24.644C244.773 24.6147 244.626 24.6 244.472 24.6C244.223 24.6 243.996 24.6293 243.79 24.688C243.592 24.7467 243.424 24.8163 243.284 24.897C243.145 24.9777 243.035 25.0473 242.954 25.106ZM247.986 21.85C247.986 21.6813 248.045 21.5383 248.162 21.421C248.287 21.3037 248.43 21.245 248.591 21.245C248.76 21.245 248.903 21.3037 249.02 21.421C249.137 21.5383 249.196 21.6813 249.196 21.85C249.196 22.0113 249.137 22.1543 249.02 22.279C248.903 22.3963 248.76 22.455 248.591 22.455C248.43 22.455 248.287 22.3963 248.162 22.279C248.045 22.1543 247.986 22.0113 247.986 21.85ZM248.151 23.94H249.031V29H248.151V23.94ZM250.844 20.42H251.724V29H250.844V20.42Z" fill="#C3C3C3"/>
<rect x="297" y="13" width="24" height="24" rx="4" fill="#C3C3C3"/>
<path d="M308.415 25.645V24.488C308.64 24.488 308.848 24.462 309.039 24.41C309.238 24.358 309.407 24.2843 309.546 24.189C309.693 24.0937 309.806 23.9853 309.884 23.864C309.962 23.7427 310.001 23.617 310.001 23.487C310.001 23.3743 309.971 23.2747 309.91 23.188C309.849 23.1013 309.758 23.0363 309.637 22.993C309.524 22.941 309.373 22.915 309.182 22.915C308.887 22.915 308.649 22.9973 308.467 23.162C308.285 23.3267 308.194 23.5433 308.194 23.812H305.581C305.581 23.2313 305.728 22.707 306.023 22.239C306.318 21.771 306.734 21.3983 307.271 21.121C307.817 20.8437 308.458 20.705 309.195 20.705C309.975 20.705 310.634 20.8177 311.171 21.043C311.708 21.2683 312.116 21.576 312.393 21.966C312.67 22.356 312.809 22.798 312.809 23.292C312.809 23.8727 312.61 24.3363 312.211 24.683C311.812 25.021 311.279 25.268 310.612 25.424C309.953 25.5713 309.221 25.645 308.415 25.645ZM309.065 30.26C308.45 30.26 307.899 30.1647 307.414 29.974C306.937 29.7833 306.534 29.5233 306.205 29.194C305.876 28.8647 305.624 28.4963 305.451 28.089C305.278 27.673 305.191 27.2483 305.191 26.815H307.999C307.999 27.1183 308.055 27.361 308.168 27.543C308.289 27.725 308.441 27.855 308.623 27.933C308.814 28.011 309.004 28.05 309.195 28.05C309.394 28.05 309.572 28.0283 309.728 27.985C309.893 27.933 310.023 27.8463 310.118 27.725C310.213 27.595 310.261 27.4217 310.261 27.205C310.261 27.075 310.231 26.9493 310.17 26.828C310.109 26.698 310.01 26.5853 309.871 26.49C309.732 26.386 309.542 26.308 309.299 26.256C309.065 26.1953 308.77 26.165 308.415 26.165V24.813C309.117 24.813 309.75 24.865 310.313 24.969C310.885 25.0643 311.375 25.2203 311.782 25.437C312.198 25.6537 312.514 25.931 312.731 26.269C312.956 26.5983 313.069 26.997 313.069 27.465C313.069 28.0023 312.913 28.4833 312.601 28.908C312.298 29.324 311.847 29.6533 311.249 29.896C310.66 30.1387 309.932 30.26 309.065 30.26Z" fill="black"/>
<path d="M329.113 25.205V24.6C329.516 24.6 329.857 24.5413 330.136 24.424C330.415 24.2993 330.627 24.138 330.774 23.94C330.921 23.7347 330.994 23.511 330.994 23.269C330.994 23.027 330.939 22.8143 330.829 22.631C330.719 22.4403 330.55 22.2937 330.323 22.191C330.103 22.0883 329.828 22.037 329.498 22.037C329.19 22.037 328.911 22.0883 328.662 22.191C328.42 22.2937 328.229 22.433 328.09 22.609C327.951 22.785 327.881 22.9867 327.881 23.214H326.99C326.99 22.8107 327.093 22.4587 327.298 22.158C327.511 21.8573 327.804 21.6227 328.178 21.454C328.559 21.278 328.996 21.19 329.487 21.19C330 21.19 330.44 21.2853 330.807 21.476C331.174 21.6667 331.456 21.916 331.654 22.224C331.852 22.532 331.951 22.8693 331.951 23.236C331.951 23.5073 331.881 23.764 331.742 24.006C331.61 24.2407 331.419 24.4497 331.17 24.633C330.921 24.809 330.62 24.9483 330.268 25.051C329.923 25.1537 329.538 25.205 329.113 25.205ZM329.443 29.11C328.988 29.11 328.589 29.055 328.244 28.945C327.899 28.835 327.61 28.6847 327.375 28.494C327.14 28.296 326.961 28.0687 326.836 27.812C326.719 27.548 326.66 27.2657 326.66 26.965H327.606C327.635 27.207 327.716 27.4233 327.848 27.614C327.987 27.8047 328.185 27.955 328.442 28.065C328.706 28.175 329.04 28.23 329.443 28.23C330.052 28.23 330.499 28.1053 330.785 27.856C331.071 27.6067 331.214 27.273 331.214 26.855C331.214 26.5397 331.122 26.2757 330.939 26.063C330.756 25.8503 330.506 25.6927 330.191 25.59C329.876 25.48 329.516 25.425 329.113 25.425V24.82C329.685 24.82 330.202 24.8933 330.664 25.04C331.126 25.1867 331.493 25.4177 331.764 25.733C332.035 26.041 332.171 26.4517 332.171 26.965C332.171 27.3977 332.061 27.7753 331.841 28.098C331.628 28.4207 331.317 28.67 330.906 28.846C330.503 29.022 330.015 29.11 329.443 29.11ZM333.892 27.515C333.892 27.691 333.94 27.8413 334.035 27.966C334.13 28.0833 334.259 28.175 334.42 28.241C334.581 28.2997 334.761 28.329 334.959 28.329C335.252 28.329 335.513 28.285 335.74 28.197C335.967 28.109 336.143 27.9697 336.268 27.779C336.4 27.5883 336.466 27.3353 336.466 27.02L336.642 27.57C336.642 27.8927 336.554 28.1713 336.378 28.406C336.209 28.6333 335.982 28.8093 335.696 28.934C335.41 29.0513 335.091 29.11 334.739 29.11C334.424 29.11 334.134 29.0513 333.87 28.934C333.606 28.8167 333.393 28.6443 333.232 28.417C333.078 28.1823 333.001 27.8927 333.001 27.548C333.001 27.1887 333.089 26.8843 333.265 26.635C333.441 26.3857 333.69 26.195 334.013 26.063C334.336 25.9237 334.717 25.854 335.157 25.854C335.48 25.854 335.755 25.898 335.982 25.986C336.217 26.0667 336.404 26.162 336.543 26.272C336.682 26.3747 336.778 26.459 336.829 26.525V27.042C336.58 26.866 336.327 26.7377 336.07 26.657C335.813 26.569 335.524 26.525 335.201 26.525C334.908 26.525 334.662 26.5653 334.464 26.646C334.273 26.7267 334.13 26.8403 334.035 26.987C333.94 27.1337 333.892 27.3097 333.892 27.515ZM333.892 25.128L333.463 24.457C333.654 24.3177 333.91 24.1783 334.233 24.039C334.556 23.8997 334.944 23.83 335.399 23.83C335.788 23.83 336.125 23.8923 336.411 24.017C336.704 24.1343 336.932 24.3067 337.093 24.534C337.262 24.7613 337.346 25.04 337.346 25.37V29H336.466V25.37C336.466 25.1133 336.356 24.9227 336.136 24.798C335.923 24.666 335.678 24.6 335.399 24.6C335.157 24.6 334.937 24.633 334.739 24.699C334.541 24.7577 334.369 24.831 334.222 24.919C334.083 24.9997 333.973 25.0693 333.892 25.128ZM339.352 26.36H340.815C341.167 26.36 341.482 26.3967 341.761 26.47C342.039 26.5433 342.259 26.6717 342.421 26.855C342.582 27.0383 342.663 27.295 342.663 27.625C342.663 28.0063 342.534 28.3327 342.278 28.604C342.028 28.868 341.614 29 341.035 29H339.352V28.23H340.815C341.145 28.23 341.387 28.1603 341.541 28.021C341.702 27.8817 341.783 27.713 341.783 27.515C341.783 27.4123 341.761 27.3207 341.717 27.24C341.68 27.1593 341.621 27.086 341.541 27.02C341.467 26.954 341.368 26.9063 341.244 26.877C341.126 26.8403 340.983 26.822 340.815 26.822H339.352V26.36ZM339.352 26.58V26.063H340.705C340.837 26.063 340.954 26.0483 341.057 26.019C341.167 25.9823 341.258 25.931 341.332 25.865C341.405 25.799 341.46 25.7257 341.497 25.645C341.541 25.557 341.563 25.4653 341.563 25.37C341.563 25.172 341.486 25.0143 341.332 24.897C341.178 24.7723 340.969 24.71 340.705 24.71H339.352V23.94H340.705C341.02 23.94 341.306 23.9877 341.563 24.083C341.827 24.171 342.039 24.3177 342.201 24.523C342.362 24.721 342.443 24.985 342.443 25.315C342.443 25.601 342.362 25.8393 342.201 26.03C342.039 26.2133 341.827 26.3527 341.563 26.448C341.306 26.536 341.02 26.58 340.705 26.58H339.352ZM338.835 23.94H339.715V29H338.835V23.94ZM343.94 26.69V25.942H347.317C347.288 25.678 347.214 25.447 347.097 25.249C346.987 25.0437 346.829 24.886 346.624 24.776C346.426 24.6587 346.18 24.6 345.887 24.6C345.594 24.6 345.326 24.6623 345.084 24.787C344.842 24.9117 344.648 25.0913 344.501 25.326C344.362 25.5533 344.292 25.8247 344.292 26.14L344.27 26.47C344.27 26.8587 344.336 27.1887 344.468 27.46C344.6 27.7313 344.787 27.9367 345.029 28.076C345.271 28.2153 345.557 28.285 345.887 28.285C346.136 28.285 346.356 28.2483 346.547 28.175C346.745 28.0943 346.921 27.988 347.075 27.856C347.229 27.7167 347.361 27.5553 347.471 27.372L348.186 27.823C348.017 28.0797 347.83 28.307 347.625 28.505C347.42 28.6957 347.17 28.846 346.877 28.956C346.584 29.0587 346.217 29.11 345.777 29.11C345.322 29.11 344.912 28.9963 344.545 28.769C344.186 28.5417 343.9 28.23 343.687 27.834C343.482 27.4307 343.379 26.976 343.379 26.47C343.379 26.3747 343.383 26.283 343.39 26.195C343.397 26.107 343.408 26.019 343.423 25.931C343.496 25.513 343.643 25.1463 343.863 24.831C344.083 24.5157 344.365 24.27 344.71 24.094C345.062 23.918 345.454 23.83 345.887 23.83C346.364 23.83 346.782 23.9363 347.141 24.149C347.5 24.3617 347.779 24.6623 347.977 25.051C348.175 25.4323 348.274 25.8907 348.274 26.426C348.274 26.47 348.274 26.514 348.274 26.558C348.274 26.602 348.27 26.646 348.263 26.69H343.94ZM350.305 31.42H349.425V23.94H350.305V31.42ZM354.54 26.47C354.54 27.0127 354.427 27.482 354.199 27.878C353.972 28.274 353.668 28.5783 353.286 28.791C352.912 29.0037 352.494 29.11 352.032 29.11C351.614 29.11 351.244 29.0037 350.921 28.791C350.606 28.5783 350.357 28.274 350.173 27.878C349.997 27.482 349.909 27.0127 349.909 26.47C349.909 25.92 349.997 25.4507 350.173 25.062C350.357 24.666 350.606 24.3617 350.921 24.149C351.244 23.9363 351.614 23.83 352.032 23.83C352.494 23.83 352.912 23.9363 353.286 24.149C353.668 24.3617 353.972 24.666 354.199 25.062C354.427 25.4507 354.54 25.92 354.54 26.47ZM353.649 26.47C353.649 26.0813 353.569 25.7513 353.407 25.48C353.253 25.2087 353.044 25.0033 352.78 24.864C352.524 24.7247 352.238 24.655 351.922 24.655C351.666 24.655 351.413 24.7247 351.163 24.864C350.914 25.0033 350.709 25.2087 350.547 25.48C350.386 25.7513 350.305 26.0813 350.305 26.47C350.305 26.8587 350.386 27.1887 350.547 27.46C350.709 27.7313 350.914 27.9367 351.163 28.076C351.413 28.2153 351.666 28.285 351.922 28.285C352.238 28.285 352.524 28.2153 352.78 28.076C353.044 27.9367 353.253 27.7313 353.407 27.46C353.569 27.1887 353.649 26.8587 353.649 26.47ZM359.659 28.175H361.804V23.94H362.684V29H355.754V23.94H356.634V28.175H358.779V23.94H359.659V28.175ZM364.458 26.69V25.942H367.835C367.805 25.678 367.732 25.447 367.615 25.249C367.505 25.0437 367.347 24.886 367.142 24.776C366.944 24.6587 366.698 24.6 366.405 24.6C366.111 24.6 365.844 24.6623 365.602 24.787C365.36 24.9117 365.165 25.0913 365.019 25.326C364.879 25.5533 364.81 25.8247 364.81 26.14L364.788 26.47C364.788 26.8587 364.854 27.1887 364.986 27.46C365.118 27.7313 365.305 27.9367 365.547 28.076C365.789 28.2153 366.075 28.285 366.405 28.285C366.654 28.285 366.874 28.2483 367.065 28.175C367.263 28.0943 367.439 27.988 367.593 27.856C367.747 27.7167 367.879 27.5553 367.989 27.372L368.704 27.823C368.535 28.0797 368.348 28.307 368.143 28.505C367.937 28.6957 367.688 28.846 367.395 28.956C367.101 29.0587 366.735 29.11 366.295 29.11C365.84 29.11 365.429 28.9963 365.063 28.769C364.703 28.5417 364.417 28.23 364.205 27.834C363.999 27.4307 363.897 26.976 363.897 26.47C363.897 26.3747 363.9 26.283 363.908 26.195C363.915 26.107 363.926 26.019 363.941 25.931C364.014 25.513 364.161 25.1463 364.381 24.831C364.601 24.5157 364.883 24.27 365.228 24.094C365.58 23.918 365.972 23.83 366.405 23.83C366.881 23.83 367.299 23.9363 367.659 24.149C368.018 24.3617 368.297 24.6623 368.495 25.051C368.693 25.4323 368.792 25.8907 368.792 26.426C368.792 26.47 368.792 26.514 368.792 26.558C368.792 26.602 368.788 26.646 368.781 26.69H364.458ZM370.515 26.745V25.92H374.255V26.745H370.515ZM373.683 23.94H374.563V29H373.683V23.94ZM369.998 23.94H370.878V29H369.998V23.94ZM380.453 24.82L376.273 29.385L376.328 28.12L380.508 23.555L380.453 24.82ZM377.153 23.94V28.175L376.273 29.385V23.94H377.153ZM380.508 23.555V29H379.628V24.765L380.508 23.555ZM382.333 26.69V25.942H385.71C385.68 25.678 385.607 25.447 385.49 25.249C385.38 25.0437 385.222 24.886 385.017 24.776C384.819 24.6587 384.573 24.6 384.28 24.6C383.986 24.6 383.719 24.6623 383.477 24.787C383.235 24.9117 383.04 25.0913 382.894 25.326C382.754 25.5533 382.685 25.8247 382.685 26.14L382.663 26.47C382.663 26.8587 382.729 27.1887 382.861 27.46C382.993 27.7313 383.18 27.9367 383.422 28.076C383.664 28.2153 383.95 28.285 384.28 28.285C384.529 28.285 384.749 28.2483 384.94 28.175C385.138 28.0943 385.314 27.988 385.468 27.856C385.622 27.7167 385.754 27.5553 385.864 27.372L386.579 27.823C386.41 28.0797 386.223 28.307 386.018 28.505C385.812 28.6957 385.563 28.846 385.27 28.956C384.976 29.0587 384.61 29.11 384.17 29.11C383.715 29.11 383.304 28.9963 382.938 28.769C382.578 28.5417 382.292 28.23 382.08 27.834C381.874 27.4307 381.772 26.976 381.772 26.47C381.772 26.3747 381.775 26.283 381.783 26.195C381.79 26.107 381.801 26.019 381.816 25.931C381.889 25.513 382.036 25.1463 382.256 24.831C382.476 24.5157 382.758 24.27 383.103 24.094C383.455 23.918 383.847 23.83 384.28 23.83C384.756 23.83 385.174 23.9363 385.534 24.149C385.893 24.3617 386.172 24.6623 386.37 25.051C386.568 25.4323 386.667 25.8907 386.667 26.426C386.667 26.47 386.667 26.514 386.667 26.558C386.667 26.602 386.663 26.646 386.656 26.69H382.333Z" fill="#C3C3C3"/>
<rect x="123" y="25" width="36" height="2" fill="#C3C3C3" fill-opacity="0.5"/>
<rect x="256" y="24" width="36" height="2" fill="#C3C3C3" fill-opacity="0.5"/>
<defs>
<linearGradient id="paint0_linear_68_13" x1="8" y1="13" x2="32" y2="37" gradientUnits="userSpaceOnUse">
<stop stop-color="#DA6AD0"/>
<stop offset="1" stop-color="#9780E5"/>
</linearGradient>
</defs>
</svg>
