<svg width="394" height="50" viewBox="0 0 394 50" fill="none" xmlns="http://www.w3.org/2000/svg">
<rect x="8" y="13" width="24" height="24" rx="4" fill="url(#paint0_linear_68_13)"/>
<path d="M13.728 25.4768C13.3259 25.0982 13.3069 24.4653 13.6856 24.0632L14.5484 23.1469C14.9271 22.7448 15.5599 22.7258 15.962 23.1044L19.6822 26.6076L17.4482 28.98L13.728 25.4768Z" fill="white"/>
<path d="M24.9882 20.7071C25.3787 20.3166 26.0119 20.3166 26.4024 20.7071L27.2924 21.5971C27.683 21.9876 27.683 22.6208 27.2924 23.0113L19.3587 30.9451L17.0545 28.6409L24.9882 20.7071Z" fill="white"/>
<path d="M43.05 22.18H38.815V29H37.88V21.3H43.985V29H43.05V22.18ZM45.2483 26.47C45.2483 25.9567 45.3619 25.502 45.5893 25.106C45.8239 24.71 46.1393 24.3983 46.5353 24.171C46.9313 23.9437 47.3749 23.83 47.8663 23.83C48.3649 23.83 48.8086 23.9437 49.1973 24.171C49.5933 24.3983 49.9049 24.71 50.1323 25.106C50.3669 25.502 50.4843 25.9567 50.4843 26.47C50.4843 26.976 50.3669 27.4307 50.1323 27.834C49.9049 28.23 49.5933 28.5417 49.1973 28.769C48.8086 28.9963 48.3649 29.11 47.8663 29.11C47.3749 29.11 46.9313 28.9963 46.5353 28.769C46.1393 28.5417 45.8239 28.23 45.5893 27.834C45.3619 27.4307 45.2483 26.976 45.2483 26.47ZM46.1393 26.47C46.1393 26.822 46.2126 27.1337 46.3593 27.405C46.5133 27.6763 46.7186 27.8927 46.9753 28.054C47.2393 28.208 47.5363 28.285 47.8663 28.285C48.1963 28.285 48.4896 28.208 48.7463 28.054C49.0103 27.8927 49.2156 27.6763 49.3623 27.405C49.5163 27.1337 49.5933 26.822 49.5933 26.47C49.5933 26.118 49.5163 25.8063 49.3623 25.535C49.2156 25.2563 49.0103 25.04 48.7463 24.886C48.4896 24.732 48.1963 24.655 47.8663 24.655C47.5363 24.655 47.2393 24.732 46.9753 24.886C46.7186 25.04 46.5133 25.2563 46.3593 25.535C46.2126 25.8063 46.1393 26.118 46.1393 26.47ZM53.8953 25.458L52.4103 28.67H51.4203L53.8953 23.555L56.3703 28.67H55.3803L53.8953 25.458ZM56.1503 29H51.6953V29.99H50.7603V28.175H57.0303V29.99H56.1503V29ZM57.5833 23.94H60.5533V24.765H57.5833V23.94ZM58.6283 24.16H59.5083V29H58.6283V24.16ZM61.9533 26.36H63.4163C63.7683 26.36 64.0837 26.3967 64.3623 26.47C64.641 26.5433 64.861 26.6717 65.0223 26.855C65.1837 27.0383 65.2643 27.295 65.2643 27.625C65.2643 28.0063 65.136 28.3327 64.8793 28.604C64.63 28.868 64.2157 29 63.6363 29H61.9533V28.23H63.4163C63.7463 28.23 63.9883 28.1603 64.1423 28.021C64.3037 27.8817 64.3843 27.713 64.3843 27.515C64.3843 27.4123 64.3623 27.3207 64.3183 27.24C64.2817 27.1593 64.223 27.086 64.1423 27.02C64.069 26.954 63.97 26.9063 63.8453 26.877C63.728 26.8403 63.585 26.822 63.4163 26.822H61.9533V26.36ZM61.9533 26.58V26.063H63.3063C63.4383 26.063 63.5557 26.0483 63.6583 26.019C63.7683 25.9823 63.86 25.931 63.9333 25.865C64.0067 25.799 64.0617 25.7257 64.0983 25.645C64.1423 25.557 64.1643 25.4653 64.1643 25.37C64.1643 25.172 64.0873 25.0143 63.9333 24.897C63.7793 24.7723 63.5703 24.71 63.3063 24.71H61.9533V23.94H63.3063C63.6217 23.94 63.9077 23.9877 64.1643 24.083C64.4283 24.171 64.641 24.3177 64.8023 24.523C64.9637 24.721 65.0443 24.985 65.0443 25.315C65.0443 25.601 64.9637 25.8393 64.8023 26.03C64.641 26.2133 64.4283 26.3527 64.1643 26.448C63.9077 26.536 63.6217 26.58 63.3063 26.58H61.9533ZM61.4363 23.94H62.3163V29H61.4363V23.94ZM66.5417 26.69V25.942H69.9187C69.8894 25.678 69.816 25.447 69.6987 25.249C69.5887 25.0437 69.431 24.886 69.2257 24.776C69.0277 24.6587 68.782 24.6 68.4887 24.6C68.1954 24.6 67.9277 24.6623 67.6857 24.787C67.4437 24.9117 67.2494 25.0913 67.1027 25.326C66.9634 25.5533 66.8937 25.8247 66.8937 26.14L66.8717 26.47C66.8717 26.8587 66.9377 27.1887 67.0697 27.46C67.2017 27.7313 67.3887 27.9367 67.6307 28.076C67.8727 28.2153 68.1587 28.285 68.4887 28.285C68.738 28.285 68.958 28.2483 69.1487 28.175C69.3467 28.0943 69.5227 27.988 69.6767 27.856C69.8307 27.7167 69.9627 27.5553 70.0727 27.372L70.7877 27.823C70.619 28.0797 70.432 28.307 70.2267 28.505C70.0214 28.6957 69.772 28.846 69.4787 28.956C69.1854 29.0587 68.8187 29.11 68.3787 29.11C67.924 29.11 67.5134 28.9963 67.1467 28.769C66.7874 28.5417 66.5014 28.23 66.2887 27.834C66.0834 27.4307 65.9807 26.976 65.9807 26.47C65.9807 26.3747 65.9844 26.283 65.9917 26.195C65.999 26.107 66.01 26.019 66.0247 25.931C66.098 25.513 66.2447 25.1463 66.4647 24.831C66.6847 24.5157 66.967 24.27 67.3117 24.094C67.6637 23.918 68.056 23.83 68.4887 23.83C68.9654 23.83 69.3834 23.9363 69.7427 24.149C70.102 24.3617 70.3807 24.6623 70.5787 25.051C70.7767 25.4323 70.8757 25.8907 70.8757 26.426C70.8757 26.47 70.8757 26.514 70.8757 26.558C70.8757 26.602 70.872 26.646 70.8647 26.69H66.5417ZM72.9068 31.42H72.0268V23.94H72.9068V31.42ZM77.1418 26.47C77.1418 27.0127 77.0282 27.482 76.8008 27.878C76.5735 28.274 76.2692 28.5783 75.8878 28.791C75.5138 29.0037 75.0958 29.11 74.6338 29.11C74.2158 29.11 73.8455 29.0037 73.5228 28.791C73.2075 28.5783 72.9582 28.274 72.7748 27.878C72.5988 27.482 72.5108 27.0127 72.5108 26.47C72.5108 25.92 72.5988 25.4507 72.7748 25.062C72.9582 24.666 73.2075 24.3617 73.5228 24.149C73.8455 23.9363 74.2158 23.83 74.6338 23.83C75.0958 23.83 75.5138 23.9363 75.8878 24.149C76.2692 24.3617 76.5735 24.666 76.8008 25.062C77.0282 25.4507 77.1418 25.92 77.1418 26.47ZM76.2508 26.47C76.2508 26.0813 76.1702 25.7513 76.0088 25.48C75.8548 25.2087 75.6458 25.0033 75.3818 24.864C75.1252 24.7247 74.8392 24.655 74.5238 24.655C74.2672 24.655 74.0142 24.7247 73.7648 24.864C73.5155 25.0033 73.3102 25.2087 73.1488 25.48C72.9875 25.7513 72.9068 26.0813 72.9068 26.47C72.9068 26.8587 72.9875 27.1887 73.1488 27.46C73.3102 27.7313 73.5155 27.9367 73.7648 28.076C74.0142 28.2153 74.2672 28.285 74.5238 28.285C74.8392 28.285 75.1252 28.2153 75.3818 28.076C75.6458 27.9367 75.8548 27.7313 76.0088 27.46C76.1702 27.1887 76.2508 26.8587 76.2508 26.47ZM83.4741 23.94H84.5741L82.2641 26.14L84.7941 29H83.6941L81.2741 26.03L83.4741 23.94ZM81.4941 23.94V29H80.6691V23.94H81.4941ZM78.6891 23.94L80.8891 26.03L78.4691 29H77.3691L79.8991 26.14L77.5891 23.94H78.6891ZM88.7 25.458L87.215 28.67H86.225L88.7 23.555L91.175 28.67H90.185L88.7 25.458ZM90.955 29H86.5V29.99H85.565V28.175H91.835V29.99H90.955V29ZM93.279 26.69V25.942H96.656C96.6267 25.678 96.5533 25.447 96.436 25.249C96.326 25.0437 96.1683 24.886 95.963 24.776C95.765 24.6587 95.5193 24.6 95.226 24.6C94.9327 24.6 94.665 24.6623 94.423 24.787C94.181 24.9117 93.9867 25.0913 93.84 25.326C93.7007 25.5533 93.631 25.8247 93.631 26.14L93.609 26.47C93.609 26.8587 93.675 27.1887 93.807 27.46C93.939 27.7313 94.126 27.9367 94.368 28.076C94.61 28.2153 94.896 28.285 95.226 28.285C95.4753 28.285 95.6953 28.2483 95.886 28.175C96.084 28.0943 96.26 27.988 96.414 27.856C96.568 27.7167 96.7 27.5553 96.81 27.372L97.525 27.823C97.3563 28.0797 97.1693 28.307 96.964 28.505C96.7587 28.6957 96.5093 28.846 96.216 28.956C95.9227 29.0587 95.556 29.11 95.116 29.11C94.6613 29.11 94.2507 28.9963 93.884 28.769C93.5247 28.5417 93.2387 28.23 93.026 27.834C92.8207 27.4307 92.718 26.976 92.718 26.47C92.718 26.3747 92.7217 26.283 92.729 26.195C92.7363 26.107 92.7473 26.019 92.762 25.931C92.8353 25.513 92.982 25.1463 93.202 24.831C93.422 24.5157 93.7043 24.27 94.049 24.094C94.401 23.918 94.7933 23.83 95.226 23.83C95.7027 23.83 96.1207 23.9363 96.48 24.149C96.8393 24.3617 97.118 24.6623 97.316 25.051C97.514 25.4323 97.613 25.8907 97.613 26.426C97.613 26.47 97.613 26.514 97.613 26.558C97.613 26.602 97.6093 26.646 97.602 26.69H93.279ZM99.3361 26.745V25.92H103.076V26.745H99.3361ZM102.504 23.94H103.384V29H102.504V23.94ZM98.8191 23.94H99.6991V29H98.8191V23.94ZM109.274 24.82L105.094 29.385L105.149 28.12L109.329 23.555L109.274 24.82ZM105.974 23.94V28.175L105.094 29.385V23.94H105.974ZM109.329 23.555V29H108.449V24.765L109.329 23.555ZM111.154 26.69V25.942H114.531C114.502 25.678 114.428 25.447 114.311 25.249C114.201 25.0437 114.043 24.886 113.838 24.776C113.64 24.6587 113.394 24.6 113.101 24.6C112.808 24.6 112.54 24.6623 112.298 24.787C112.056 24.9117 111.862 25.0913 111.715 25.326C111.576 25.5533 111.506 25.8247 111.506 26.14L111.484 26.47C111.484 26.8587 111.55 27.1887 111.682 27.46C111.814 27.7313 112.001 27.9367 112.243 28.076C112.485 28.2153 112.771 28.285 113.101 28.285C113.35 28.285 113.57 28.2483 113.761 28.175C113.959 28.0943 114.135 27.988 114.289 27.856C114.443 27.7167 114.575 27.5553 114.685 27.372L115.4 27.823C115.231 28.0797 115.044 28.307 114.839 28.505C114.634 28.6957 114.384 28.846 114.091 28.956C113.798 29.0587 113.431 29.11 112.991 29.11C112.536 29.11 112.126 28.9963 111.759 28.769C111.4 28.5417 111.114 28.23 110.901 27.834C110.696 27.4307 110.593 26.976 110.593 26.47C110.593 26.3747 110.597 26.283 110.604 26.195C110.611 26.107 110.622 26.019 110.637 25.931C110.71 25.513 110.857 25.1463 111.077 24.831C111.297 24.5157 111.579 24.27 111.924 24.094C112.276 23.918 112.668 23.83 113.101 23.83C113.578 23.83 113.996 23.9363 114.355 24.149C114.714 24.3617 114.993 24.6623 115.191 25.051C115.389 25.4323 115.488 25.8907 115.488 26.426C115.488 26.47 115.488 26.514 115.488 26.558C115.488 26.602 115.484 26.646 115.477 26.69H111.154Z" fill="white"/>
<rect x="159" y="13" width="24" height="24" rx="4" fill="url(#paint1_linear_68_13)"/>
<path d="M166.652 30L170.565 26.035C170.833 25.7403 171.063 25.4847 171.254 25.268C171.453 25.0427 171.605 24.826 171.709 24.618C171.813 24.41 171.865 24.189 171.865 23.955C171.865 23.8423 171.847 23.734 171.813 23.63C171.778 23.526 171.722 23.435 171.644 23.357C171.566 23.279 171.466 23.2183 171.345 23.175C171.232 23.123 171.093 23.097 170.929 23.097C170.712 23.097 170.521 23.1577 170.357 23.279C170.192 23.3917 170.062 23.5477 169.967 23.747C169.88 23.9463 169.837 24.1673 169.837 24.41H167.042C167.042 23.76 167.189 23.1533 167.484 22.59C167.778 22.0267 168.22 21.5717 168.81 21.225C169.408 20.8697 170.149 20.692 171.033 20.692C171.631 20.692 172.164 20.7787 172.632 20.952C173.108 21.1167 173.507 21.3463 173.828 21.641C174.157 21.927 174.404 22.252 174.569 22.616C174.742 22.98 174.829 23.357 174.829 23.747C174.829 24.2497 174.703 24.696 174.452 25.086C174.2 25.4673 173.867 25.8183 173.451 26.139L171.813 27.4H175.154V30H166.652Z" fill="white"/>
<path d="M189.375 25.469V24.27H194.864V25.469H189.375ZM194.028 21.3H195.326V29H194.028V21.3ZM188.858 21.3H190.156V29H188.858V21.3ZM196.56 26.47C196.56 25.9493 196.677 25.491 196.912 25.095C197.154 24.699 197.48 24.391 197.891 24.171C198.301 23.9437 198.767 23.83 199.288 23.83C199.808 23.83 200.27 23.9437 200.674 24.171C201.084 24.391 201.411 24.699 201.653 25.095C201.895 25.491 202.016 25.9493 202.016 26.47C202.016 26.9833 201.895 27.4417 201.653 27.845C201.411 28.241 201.084 28.5527 200.674 28.78C200.27 29 199.808 29.11 199.288 29.11C198.767 29.11 198.301 29 197.891 28.78C197.48 28.5527 197.154 28.241 196.912 27.845C196.677 27.4417 196.56 26.9833 196.56 26.47ZM197.781 26.47C197.781 26.7853 197.847 27.064 197.979 27.306C198.111 27.5407 198.29 27.7277 198.518 27.867C198.745 27.999 199.002 28.065 199.288 28.065C199.566 28.065 199.819 27.999 200.047 27.867C200.281 27.7277 200.465 27.5407 200.597 27.306C200.729 27.064 200.795 26.7853 200.795 26.47C200.795 26.1547 200.729 25.876 200.597 25.634C200.465 25.392 200.281 25.205 200.047 25.073C199.819 24.941 199.566 24.875 199.288 24.875C199.002 24.875 198.745 24.941 198.518 25.073C198.29 25.205 198.111 25.392 197.979 25.634C197.847 25.876 197.781 26.1547 197.781 26.47ZM203.902 26.36H205.508C205.86 26.36 206.175 26.3967 206.454 26.47C206.732 26.5433 206.952 26.6717 207.114 26.855C207.275 27.0383 207.356 27.295 207.356 27.625C207.356 28.0063 207.227 28.3327 206.971 28.604C206.721 28.868 206.307 29 205.728 29H203.902V28.12H205.365C205.658 28.12 205.871 28.0577 206.003 27.933C206.135 27.8083 206.201 27.6617 206.201 27.493C206.201 27.405 206.182 27.3243 206.146 27.251C206.109 27.1777 206.058 27.1117 205.992 27.053C205.933 26.9943 205.849 26.9503 205.739 26.921C205.636 26.8917 205.511 26.877 205.365 26.877H203.902V26.36ZM203.902 26.58V26.008H205.255C205.365 26.008 205.464 25.9933 205.552 25.964C205.647 25.9347 205.724 25.8907 205.783 25.832C205.841 25.7733 205.889 25.7073 205.926 25.634C205.962 25.5607 205.981 25.4837 205.981 25.403C205.981 25.2343 205.915 25.095 205.783 24.985C205.658 24.875 205.482 24.82 205.255 24.82H203.902V23.94H205.398C205.713 23.94 205.999 23.9877 206.256 24.083C206.52 24.171 206.732 24.3177 206.894 24.523C207.055 24.721 207.136 24.985 207.136 25.315C207.136 25.601 207.055 25.8393 206.894 26.03C206.732 26.2133 206.52 26.3527 206.256 26.448C205.999 26.536 205.713 26.58 205.398 26.58H203.902ZM203.209 23.94H204.375V29H203.209V23.94ZM213.355 23.94H214.554V29H213.355V23.94ZM208.449 23.94H209.637V29H208.449V23.94ZM209.274 26.668V25.777H210.847C211.368 25.777 211.804 25.9053 212.156 26.162C212.516 26.4113 212.695 26.8073 212.695 27.35C212.695 27.7093 212.615 28.0137 212.453 28.263C212.292 28.505 212.072 28.6883 211.793 28.813C211.515 28.9377 211.199 29 210.847 29H209.274V28.021H210.737C210.913 28.021 211.06 27.9953 211.177 27.944C211.295 27.8927 211.386 27.8157 211.452 27.713C211.518 27.6103 211.551 27.4893 211.551 27.35C211.551 27.13 211.482 26.9613 211.342 26.844C211.203 26.7267 211.001 26.668 210.737 26.668H209.274ZM220.653 25.04L216.11 29.385L216.165 27.9L220.708 23.555L220.653 25.04ZM217.276 23.94V28.043L216.11 29.385V23.94H217.276ZM220.708 23.555V29H219.542V24.897L220.708 23.555ZM216.693 21.355H217.595C217.595 21.465 217.62 21.5787 217.672 21.696C217.73 21.8133 217.822 21.9123 217.947 21.993C218.071 22.0737 218.24 22.114 218.453 22.114C218.665 22.114 218.834 22.0737 218.959 21.993C219.083 21.9123 219.171 21.8133 219.223 21.696C219.281 21.5787 219.311 21.465 219.311 21.355H220.224C220.224 21.619 220.154 21.872 220.015 22.114C219.883 22.356 219.685 22.5503 219.421 22.697C219.164 22.8437 218.841 22.917 218.453 22.917C218.071 22.917 217.749 22.8437 217.485 22.697C217.221 22.5503 217.023 22.356 216.891 22.114C216.759 21.872 216.693 21.619 216.693 21.355ZM226.474 29V27.856H230.357V29H226.474ZM226.474 22.444V21.3H230.357V22.444H226.474ZM226.474 25.436V24.314H230.137V25.436H226.474ZM225.671 21.3H226.947V29H225.671V21.3ZM239.095 25.788V29H237.907V25.92C237.907 25.5387 237.837 25.2563 237.698 25.073C237.566 24.8823 237.353 24.787 237.06 24.787C236.862 24.787 236.686 24.831 236.532 24.919C236.385 25.007 236.268 25.1353 236.18 25.304C236.099 25.4727 236.059 25.678 236.059 25.92V29H234.871V25.92C234.871 25.5387 234.801 25.2563 234.662 25.073C234.53 24.8823 234.317 24.787 234.024 24.787C233.818 24.787 233.639 24.831 233.485 24.919C233.338 25.007 233.224 25.1353 233.144 25.304C233.063 25.4727 233.023 25.678 233.023 25.92V29H231.857V23.94H233.023V24.677C233.169 24.3983 233.36 24.1893 233.595 24.05C233.837 23.9033 234.119 23.83 234.442 23.83C234.816 23.83 235.124 23.907 235.366 24.061C235.615 24.215 235.795 24.4387 235.905 24.732C236.081 24.4387 236.301 24.215 236.565 24.061C236.836 23.907 237.144 23.83 237.489 23.83C237.848 23.83 238.145 23.907 238.38 24.061C238.622 24.2077 238.801 24.4277 238.919 24.721C239.036 25.0143 239.095 25.37 239.095 25.788ZM241.36 27.427C241.36 27.5957 241.4 27.7423 241.481 27.867C241.561 27.9843 241.671 28.0723 241.811 28.131C241.957 28.1897 242.122 28.219 242.306 28.219C242.54 28.219 242.753 28.1713 242.944 28.076C243.142 27.9807 243.299 27.8413 243.417 27.658C243.541 27.4673 243.604 27.2473 243.604 26.998L243.78 27.658C243.78 27.9807 243.684 28.252 243.494 28.472C243.31 28.6847 243.076 28.846 242.79 28.956C242.511 29.0587 242.225 29.11 241.932 29.11C241.616 29.11 241.323 29.0477 241.052 28.923C240.78 28.7983 240.564 28.615 240.403 28.373C240.241 28.131 240.161 27.8377 240.161 27.493C240.161 27.0017 240.333 26.613 240.678 26.327C241.022 26.0337 241.51 25.887 242.141 25.887C242.478 25.887 242.768 25.9237 243.01 25.997C243.259 26.0703 243.464 26.1583 243.626 26.261C243.787 26.3563 243.901 26.4443 243.967 26.525V27.13C243.739 26.9687 243.497 26.8513 243.241 26.778C242.984 26.7047 242.713 26.668 242.427 26.668C242.177 26.668 241.976 26.701 241.822 26.767C241.668 26.8257 241.55 26.91 241.47 27.02C241.396 27.13 241.36 27.2657 241.36 27.427ZM240.986 25.26L240.502 24.424C240.729 24.2847 241.022 24.149 241.382 24.017C241.748 23.885 242.166 23.819 242.636 23.819C243.054 23.819 243.42 23.8813 243.736 24.006C244.058 24.1307 244.311 24.3103 244.495 24.545C244.678 24.7723 244.77 25.0547 244.77 25.392V29H243.604V25.623C243.604 25.4617 243.574 25.3297 243.516 25.227C243.464 25.1243 243.391 25.04 243.296 24.974C243.2 24.908 243.087 24.8603 242.955 24.831C242.823 24.8017 242.68 24.787 242.526 24.787C242.291 24.787 242.067 24.8163 241.855 24.875C241.649 24.9263 241.47 24.9923 241.316 25.073C241.169 25.1463 241.059 25.2087 240.986 25.26ZM246.111 21.927C246.111 21.7217 246.184 21.5493 246.331 21.41C246.485 21.2707 246.661 21.201 246.859 21.201C247.071 21.201 247.247 21.2707 247.387 21.41C247.533 21.5493 247.607 21.7217 247.607 21.927C247.607 22.125 247.533 22.2973 247.387 22.444C247.247 22.5833 247.071 22.653 246.859 22.653C246.661 22.653 246.485 22.5833 246.331 22.444C246.184 22.2973 246.111 22.125 246.111 21.927ZM246.276 23.94H247.442V29H246.276V23.94ZM249.076 20.42H250.264V29H249.076V20.42Z" fill="white"/>
<rect x="295" y="13" width="24" height="24" rx="4" fill="#C3C3C3"/>
<path d="M306.415 25.645V24.488C306.64 24.488 306.848 24.462 307.039 24.41C307.238 24.358 307.407 24.2843 307.546 24.189C307.693 24.0937 307.806 23.9853 307.884 23.864C307.962 23.7427 308.001 23.617 308.001 23.487C308.001 23.3743 307.971 23.2747 307.91 23.188C307.849 23.1013 307.758 23.0363 307.637 22.993C307.524 22.941 307.373 22.915 307.182 22.915C306.887 22.915 306.649 22.9973 306.467 23.162C306.285 23.3267 306.194 23.5433 306.194 23.812H303.581C303.581 23.2313 303.728 22.707 304.023 22.239C304.318 21.771 304.734 21.3983 305.271 21.121C305.817 20.8437 306.458 20.705 307.195 20.705C307.975 20.705 308.634 20.8177 309.171 21.043C309.708 21.2683 310.116 21.576 310.393 21.966C310.67 22.356 310.809 22.798 310.809 23.292C310.809 23.8727 310.61 24.3363 310.211 24.683C309.812 25.021 309.279 25.268 308.612 25.424C307.953 25.5713 307.221 25.645 306.415 25.645ZM307.065 30.26C306.45 30.26 305.899 30.1647 305.414 29.974C304.937 29.7833 304.534 29.5233 304.205 29.194C303.876 28.8647 303.624 28.4963 303.451 28.089C303.278 27.673 303.191 27.2483 303.191 26.815H305.999C305.999 27.1183 306.055 27.361 306.168 27.543C306.289 27.725 306.441 27.855 306.623 27.933C306.814 28.011 307.004 28.05 307.195 28.05C307.394 28.05 307.572 28.0283 307.728 27.985C307.893 27.933 308.023 27.8463 308.118 27.725C308.213 27.595 308.261 27.4217 308.261 27.205C308.261 27.075 308.231 26.9493 308.17 26.828C308.109 26.698 308.01 26.5853 307.871 26.49C307.732 26.386 307.542 26.308 307.299 26.256C307.065 26.1953 306.77 26.165 306.415 26.165V24.813C307.117 24.813 307.75 24.865 308.313 24.969C308.885 25.0643 309.375 25.2203 309.782 25.437C310.198 25.6537 310.514 25.931 310.731 26.269C310.956 26.5983 311.069 26.997 311.069 27.465C311.069 28.0023 310.913 28.4833 310.601 28.908C310.298 29.324 309.847 29.6533 309.249 29.896C308.66 30.1387 307.932 30.26 307.065 30.26Z" fill="black"/>
<path d="M327.113 25.205V24.6C327.516 24.6 327.857 24.5413 328.136 24.424C328.415 24.2993 328.627 24.138 328.774 23.94C328.921 23.7347 328.994 23.511 328.994 23.269C328.994 23.027 328.939 22.8143 328.829 22.631C328.719 22.4403 328.55 22.2937 328.323 22.191C328.103 22.0883 327.828 22.037 327.498 22.037C327.19 22.037 326.911 22.0883 326.662 22.191C326.42 22.2937 326.229 22.433 326.09 22.609C325.951 22.785 325.881 22.9867 325.881 23.214H324.99C324.99 22.8107 325.093 22.4587 325.298 22.158C325.511 21.8573 325.804 21.6227 326.178 21.454C326.559 21.278 326.996 21.19 327.487 21.19C328 21.19 328.44 21.2853 328.807 21.476C329.174 21.6667 329.456 21.916 329.654 22.224C329.852 22.532 329.951 22.8693 329.951 23.236C329.951 23.5073 329.881 23.764 329.742 24.006C329.61 24.2407 329.419 24.4497 329.17 24.633C328.921 24.809 328.62 24.9483 328.268 25.051C327.923 25.1537 327.538 25.205 327.113 25.205ZM327.443 29.11C326.988 29.11 326.589 29.055 326.244 28.945C325.899 28.835 325.61 28.6847 325.375 28.494C325.14 28.296 324.961 28.0687 324.836 27.812C324.719 27.548 324.66 27.2657 324.66 26.965H325.606C325.635 27.207 325.716 27.4233 325.848 27.614C325.987 27.8047 326.185 27.955 326.442 28.065C326.706 28.175 327.04 28.23 327.443 28.23C328.052 28.23 328.499 28.1053 328.785 27.856C329.071 27.6067 329.214 27.273 329.214 26.855C329.214 26.5397 329.122 26.2757 328.939 26.063C328.756 25.8503 328.506 25.6927 328.191 25.59C327.876 25.48 327.516 25.425 327.113 25.425V24.82C327.685 24.82 328.202 24.8933 328.664 25.04C329.126 25.1867 329.493 25.4177 329.764 25.733C330.035 26.041 330.171 26.4517 330.171 26.965C330.171 27.3977 330.061 27.7753 329.841 28.098C329.628 28.4207 329.317 28.67 328.906 28.846C328.503 29.022 328.015 29.11 327.443 29.11ZM331.892 27.515C331.892 27.691 331.94 27.8413 332.035 27.966C332.13 28.0833 332.259 28.175 332.42 28.241C332.581 28.2997 332.761 28.329 332.959 28.329C333.252 28.329 333.513 28.285 333.74 28.197C333.967 28.109 334.143 27.9697 334.268 27.779C334.4 27.5883 334.466 27.3353 334.466 27.02L334.642 27.57C334.642 27.8927 334.554 28.1713 334.378 28.406C334.209 28.6333 333.982 28.8093 333.696 28.934C333.41 29.0513 333.091 29.11 332.739 29.11C332.424 29.11 332.134 29.0513 331.87 28.934C331.606 28.8167 331.393 28.6443 331.232 28.417C331.078 28.1823 331.001 27.8927 331.001 27.548C331.001 27.1887 331.089 26.8843 331.265 26.635C331.441 26.3857 331.69 26.195 332.013 26.063C332.336 25.9237 332.717 25.854 333.157 25.854C333.48 25.854 333.755 25.898 333.982 25.986C334.217 26.0667 334.404 26.162 334.543 26.272C334.682 26.3747 334.778 26.459 334.829 26.525V27.042C334.58 26.866 334.327 26.7377 334.07 26.657C333.813 26.569 333.524 26.525 333.201 26.525C332.908 26.525 332.662 26.5653 332.464 26.646C332.273 26.7267 332.13 26.8403 332.035 26.987C331.94 27.1337 331.892 27.3097 331.892 27.515ZM331.892 25.128L331.463 24.457C331.654 24.3177 331.91 24.1783 332.233 24.039C332.556 23.8997 332.944 23.83 333.399 23.83C333.788 23.83 334.125 23.8923 334.411 24.017C334.704 24.1343 334.932 24.3067 335.093 24.534C335.262 24.7613 335.346 25.04 335.346 25.37V29H334.466V25.37C334.466 25.1133 334.356 24.9227 334.136 24.798C333.923 24.666 333.678 24.6 333.399 24.6C333.157 24.6 332.937 24.633 332.739 24.699C332.541 24.7577 332.369 24.831 332.222 24.919C332.083 24.9997 331.973 25.0693 331.892 25.128ZM337.352 26.36H338.815C339.167 26.36 339.482 26.3967 339.761 26.47C340.039 26.5433 340.259 26.6717 340.421 26.855C340.582 27.0383 340.663 27.295 340.663 27.625C340.663 28.0063 340.534 28.3327 340.278 28.604C340.028 28.868 339.614 29 339.035 29H337.352V28.23H338.815C339.145 28.23 339.387 28.1603 339.541 28.021C339.702 27.8817 339.783 27.713 339.783 27.515C339.783 27.4123 339.761 27.3207 339.717 27.24C339.68 27.1593 339.621 27.086 339.541 27.02C339.467 26.954 339.368 26.9063 339.244 26.877C339.126 26.8403 338.983 26.822 338.815 26.822H337.352V26.36ZM337.352 26.58V26.063H338.705C338.837 26.063 338.954 26.0483 339.057 26.019C339.167 25.9823 339.258 25.931 339.332 25.865C339.405 25.799 339.46 25.7257 339.497 25.645C339.541 25.557 339.563 25.4653 339.563 25.37C339.563 25.172 339.486 25.0143 339.332 24.897C339.178 24.7723 338.969 24.71 338.705 24.71H337.352V23.94H338.705C339.02 23.94 339.306 23.9877 339.563 24.083C339.827 24.171 340.039 24.3177 340.201 24.523C340.362 24.721 340.443 24.985 340.443 25.315C340.443 25.601 340.362 25.8393 340.201 26.03C340.039 26.2133 339.827 26.3527 339.563 26.448C339.306 26.536 339.02 26.58 338.705 26.58H337.352ZM336.835 23.94H337.715V29H336.835V23.94ZM341.94 26.69V25.942H345.317C345.288 25.678 345.214 25.447 345.097 25.249C344.987 25.0437 344.829 24.886 344.624 24.776C344.426 24.6587 344.18 24.6 343.887 24.6C343.594 24.6 343.326 24.6623 343.084 24.787C342.842 24.9117 342.648 25.0913 342.501 25.326C342.362 25.5533 342.292 25.8247 342.292 26.14L342.27 26.47C342.27 26.8587 342.336 27.1887 342.468 27.46C342.6 27.7313 342.787 27.9367 343.029 28.076C343.271 28.2153 343.557 28.285 343.887 28.285C344.136 28.285 344.356 28.2483 344.547 28.175C344.745 28.0943 344.921 27.988 345.075 27.856C345.229 27.7167 345.361 27.5553 345.471 27.372L346.186 27.823C346.017 28.0797 345.83 28.307 345.625 28.505C345.42 28.6957 345.17 28.846 344.877 28.956C344.584 29.0587 344.217 29.11 343.777 29.11C343.322 29.11 342.912 28.9963 342.545 28.769C342.186 28.5417 341.9 28.23 341.687 27.834C341.482 27.4307 341.379 26.976 341.379 26.47C341.379 26.3747 341.383 26.283 341.39 26.195C341.397 26.107 341.408 26.019 341.423 25.931C341.496 25.513 341.643 25.1463 341.863 24.831C342.083 24.5157 342.365 24.27 342.71 24.094C343.062 23.918 343.454 23.83 343.887 23.83C344.364 23.83 344.782 23.9363 345.141 24.149C345.5 24.3617 345.779 24.6623 345.977 25.051C346.175 25.4323 346.274 25.8907 346.274 26.426C346.274 26.47 346.274 26.514 346.274 26.558C346.274 26.602 346.27 26.646 346.263 26.69H341.94ZM348.305 31.42H347.425V23.94H348.305V31.42ZM352.54 26.47C352.54 27.0127 352.427 27.482 352.199 27.878C351.972 28.274 351.668 28.5783 351.286 28.791C350.912 29.0037 350.494 29.11 350.032 29.11C349.614 29.11 349.244 29.0037 348.921 28.791C348.606 28.5783 348.357 28.274 348.173 27.878C347.997 27.482 347.909 27.0127 347.909 26.47C347.909 25.92 347.997 25.4507 348.173 25.062C348.357 24.666 348.606 24.3617 348.921 24.149C349.244 23.9363 349.614 23.83 350.032 23.83C350.494 23.83 350.912 23.9363 351.286 24.149C351.668 24.3617 351.972 24.666 352.199 25.062C352.427 25.4507 352.54 25.92 352.54 26.47ZM351.649 26.47C351.649 26.0813 351.569 25.7513 351.407 25.48C351.253 25.2087 351.044 25.0033 350.78 24.864C350.524 24.7247 350.238 24.655 349.922 24.655C349.666 24.655 349.413 24.7247 349.163 24.864C348.914 25.0033 348.709 25.2087 348.547 25.48C348.386 25.7513 348.305 26.0813 348.305 26.47C348.305 26.8587 348.386 27.1887 348.547 27.46C348.709 27.7313 348.914 27.9367 349.163 28.076C349.413 28.2153 349.666 28.285 349.922 28.285C350.238 28.285 350.524 28.2153 350.78 28.076C351.044 27.9367 351.253 27.7313 351.407 27.46C351.569 27.1887 351.649 26.8587 351.649 26.47ZM357.659 28.175H359.804V23.94H360.684V29H353.754V23.94H354.634V28.175H356.779V23.94H357.659V28.175ZM362.458 26.69V25.942H365.835C365.805 25.678 365.732 25.447 365.615 25.249C365.505 25.0437 365.347 24.886 365.142 24.776C364.944 24.6587 364.698 24.6 364.405 24.6C364.111 24.6 363.844 24.6623 363.602 24.787C363.36 24.9117 363.165 25.0913 363.019 25.326C362.879 25.5533 362.81 25.8247 362.81 26.14L362.788 26.47C362.788 26.8587 362.854 27.1887 362.986 27.46C363.118 27.7313 363.305 27.9367 363.547 28.076C363.789 28.2153 364.075 28.285 364.405 28.285C364.654 28.285 364.874 28.2483 365.065 28.175C365.263 28.0943 365.439 27.988 365.593 27.856C365.747 27.7167 365.879 27.5553 365.989 27.372L366.704 27.823C366.535 28.0797 366.348 28.307 366.143 28.505C365.937 28.6957 365.688 28.846 365.395 28.956C365.101 29.0587 364.735 29.11 364.295 29.11C363.84 29.11 363.429 28.9963 363.063 28.769C362.703 28.5417 362.417 28.23 362.205 27.834C361.999 27.4307 361.897 26.976 361.897 26.47C361.897 26.3747 361.9 26.283 361.908 26.195C361.915 26.107 361.926 26.019 361.941 25.931C362.014 25.513 362.161 25.1463 362.381 24.831C362.601 24.5157 362.883 24.27 363.228 24.094C363.58 23.918 363.972 23.83 364.405 23.83C364.881 23.83 365.299 23.9363 365.659 24.149C366.018 24.3617 366.297 24.6623 366.495 25.051C366.693 25.4323 366.792 25.8907 366.792 26.426C366.792 26.47 366.792 26.514 366.792 26.558C366.792 26.602 366.788 26.646 366.781 26.69H362.458ZM368.515 26.745V25.92H372.255V26.745H368.515ZM371.683 23.94H372.563V29H371.683V23.94ZM367.998 23.94H368.878V29H367.998V23.94ZM378.453 24.82L374.273 29.385L374.328 28.12L378.508 23.555L378.453 24.82ZM375.153 23.94V28.175L374.273 29.385V23.94H375.153ZM378.508 23.555V29H377.628V24.765L378.508 23.555ZM380.333 26.69V25.942H383.71C383.68 25.678 383.607 25.447 383.49 25.249C383.38 25.0437 383.222 24.886 383.017 24.776C382.819 24.6587 382.573 24.6 382.28 24.6C381.986 24.6 381.719 24.6623 381.477 24.787C381.235 24.9117 381.04 25.0913 380.894 25.326C380.754 25.5533 380.685 25.8247 380.685 26.14L380.663 26.47C380.663 26.8587 380.729 27.1887 380.861 27.46C380.993 27.7313 381.18 27.9367 381.422 28.076C381.664 28.2153 381.95 28.285 382.28 28.285C382.529 28.285 382.749 28.2483 382.94 28.175C383.138 28.0943 383.314 27.988 383.468 27.856C383.622 27.7167 383.754 27.5553 383.864 27.372L384.579 27.823C384.41 28.0797 384.223 28.307 384.018 28.505C383.812 28.6957 383.563 28.846 383.27 28.956C382.976 29.0587 382.61 29.11 382.17 29.11C381.715 29.11 381.304 28.9963 380.938 28.769C380.578 28.5417 380.292 28.23 380.08 27.834C379.874 27.4307 379.772 26.976 379.772 26.47C379.772 26.3747 379.775 26.283 379.783 26.195C379.79 26.107 379.801 26.019 379.816 25.931C379.889 25.513 380.036 25.1463 380.256 24.831C380.476 24.5157 380.758 24.27 381.103 24.094C381.455 23.918 381.847 23.83 382.28 23.83C382.756 23.83 383.174 23.9363 383.534 24.149C383.893 24.3617 384.172 24.6623 384.37 25.051C384.568 25.4323 384.667 25.8907 384.667 26.426C384.667 26.47 384.667 26.514 384.667 26.558C384.667 26.602 384.663 26.646 384.656 26.69H380.333Z" fill="#C3C3C3"/>
<rect x="119" y="25" width="36" height="2" fill="url(#paint2_linear_68_13)"/>
<rect x="255" y="24" width="36" height="2" fill="#C3C3C3" fill-opacity="0.5"/>
<defs>
<linearGradient id="paint0_linear_68_13" x1="8" y1="13" x2="32" y2="37" gradientUnits="userSpaceOnUse">
<stop stop-color="#1E7F34"/>
<stop offset="1" stop-color="#2ECC71"/>
</linearGradient>
<linearGradient id="paint1_linear_68_13" x1="159" y1="13" x2="183" y2="37" gradientUnits="userSpaceOnUse">
<stop stop-color="#DA6AD0"/>
<stop offset="1" stop-color="#9780E5"/>
</linearGradient>
<linearGradient id="paint2_linear_68_13" x1="119" y1="25" x2="155" y2="27" gradientUnits="userSpaceOnUse">
<stop stop-color="#9780E5"/>
<stop offset="1" stop-color="#DA6AD0"/>
</linearGradient>
</defs>
</svg>
