<svg width="394" height="50" viewBox="0 0 394 50" fill="none" xmlns="http://www.w3.org/2000/svg">
<rect x="8" y="13" width="24" height="24" rx="4" fill="url(#paint0_linear_68_13)"/>
<path d="M17.0255 23.574V21.012L22.5555 19.99V30H19.6155V23L17.0255 23.574Z" fill="white"/>
<path d="M42.918 22.499H39.2V29H37.88V21.3H44.227V29H42.918V22.499ZM45.4844 26.47C45.4844 25.9493 45.6017 25.491 45.8364 25.095C46.0784 24.699 46.4047 24.391 46.8154 24.171C47.226 23.9437 47.6917 23.83 48.2124 23.83C48.733 23.83 49.195 23.9437 49.5984 24.171C50.009 24.391 50.3354 24.699 50.5774 25.095C50.8194 25.491 50.9404 25.9493 50.9404 26.47C50.9404 26.9833 50.8194 27.4417 50.5774 27.845C50.3354 28.241 50.009 28.5527 49.5984 28.78C49.195 29 48.733 29.11 48.2124 29.11C47.6917 29.11 47.226 29 46.8154 28.78C46.4047 28.5527 46.0784 28.241 45.8364 27.845C45.6017 27.4417 45.4844 26.9833 45.4844 26.47ZM46.7054 26.47C46.7054 26.7853 46.7714 27.064 46.9034 27.306C47.0354 27.5407 47.215 27.7277 47.4424 27.867C47.6697 27.999 47.9264 28.065 48.2124 28.065C48.491 28.065 48.744 27.999 48.9714 27.867C49.206 27.7277 49.3894 27.5407 49.5214 27.306C49.6534 27.064 49.7194 26.7853 49.7194 26.47C49.7194 26.1547 49.6534 25.876 49.5214 25.634C49.3894 25.392 49.206 25.205 48.9714 25.073C48.744 24.941 48.491 24.875 48.2124 24.875C47.9264 24.875 47.6697 24.941 47.4424 25.073C47.215 25.205 47.0354 25.392 46.9034 25.634C46.7714 25.876 46.7054 26.1547 46.7054 26.47ZM54.4457 25.645L53.0707 28.67L51.8387 28.538L54.4457 23.555L57.0527 28.538L55.8207 28.67L54.4457 25.645ZM56.5357 29H52.4107V29.99H51.2007V27.988H57.6907V29.99H56.5357V29ZM58.2386 23.94H61.4396V24.985H58.2386V23.94ZM59.2616 24.16H60.4276V29H59.2616V24.16ZM63.0102 26.36H64.6162C64.9682 26.36 65.2835 26.3967 65.5622 26.47C65.8409 26.5433 66.0609 26.6717 66.2222 26.855C66.3835 27.0383 66.4642 27.295 66.4642 27.625C66.4642 28.0063 66.3359 28.3327 66.0792 28.604C65.8299 28.868 65.4155 29 64.8362 29H63.0102V28.12H64.4732C64.7665 28.12 64.9792 28.0577 65.1112 27.933C65.2432 27.8083 65.3092 27.6617 65.3092 27.493C65.3092 27.405 65.2909 27.3243 65.2542 27.251C65.2175 27.1777 65.1662 27.1117 65.1002 27.053C65.0415 26.9943 64.9572 26.9503 64.8472 26.921C64.7445 26.8917 64.6199 26.877 64.4732 26.877H63.0102V26.36ZM63.0102 26.58V26.008H64.3632C64.4732 26.008 64.5722 25.9933 64.6602 25.964C64.7555 25.9347 64.8325 25.8907 64.8912 25.832C64.9499 25.7733 64.9975 25.7073 65.0342 25.634C65.0709 25.5607 65.0892 25.4837 65.0892 25.403C65.0892 25.2343 65.0232 25.095 64.8912 24.985C64.7665 24.875 64.5905 24.82 64.3632 24.82H63.0102V23.94H64.5062C64.8215 23.94 65.1075 23.9877 65.3642 24.083C65.6282 24.171 65.8409 24.3177 66.0022 24.523C66.1635 24.721 66.2442 24.985 66.2442 25.315C66.2442 25.601 66.1635 25.8393 66.0022 26.03C65.8409 26.2133 65.6282 26.3527 65.3642 26.448C65.1075 26.536 64.8215 26.58 64.5062 26.58H63.0102ZM62.3172 23.94H63.4832V29H62.3172V23.94ZM67.8768 26.745V25.931H71.0558C71.0265 25.689 70.9605 25.48 70.8578 25.304C70.7625 25.1207 70.6268 24.9813 70.4508 24.886C70.2748 24.7833 70.0585 24.732 69.8018 24.732C69.5378 24.732 69.2995 24.7907 69.0868 24.908C68.8742 25.018 68.7055 25.183 68.5808 25.403C68.4562 25.6157 68.3938 25.8687 68.3938 26.162L68.3718 26.47C68.3718 26.844 68.4305 27.1557 68.5478 27.405C68.6725 27.647 68.8412 27.8303 69.0538 27.955C69.2738 28.0723 69.5268 28.131 69.8128 28.131C70.0475 28.131 70.2528 28.098 70.4288 28.032C70.6122 27.966 70.7735 27.8743 70.9128 27.757C71.0522 27.6323 71.1695 27.4893 71.2648 27.328L72.2878 27.746C72.1192 28.0173 71.9248 28.2557 71.7048 28.461C71.4922 28.6663 71.2282 28.8277 70.9128 28.945C70.6048 29.055 70.2198 29.11 69.7578 29.11C69.2372 29.11 68.7825 28.9963 68.3938 28.769C68.0052 28.5417 67.7045 28.23 67.4918 27.834C67.2792 27.4307 67.1728 26.976 67.1728 26.47C67.1728 26.3747 67.1765 26.283 67.1838 26.195C67.1912 26.107 67.2022 26.019 67.2168 25.931C67.2902 25.513 67.4368 25.1463 67.6568 24.831C67.8842 24.5157 68.1812 24.27 68.5478 24.094C68.9145 23.918 69.3362 23.83 69.8128 23.83C70.3335 23.83 70.7808 23.9363 71.1548 24.149C71.5362 24.3543 71.8295 24.6513 72.0348 25.04C72.2402 25.4213 72.3428 25.8797 72.3428 26.415C72.3428 26.459 72.3428 26.5103 72.3428 26.569C72.3428 26.6203 72.3355 26.679 72.3208 26.745H67.8768ZM74.6425 31.42H73.4435V23.94H74.6425V31.42ZM78.8335 26.47C78.8335 27.0273 78.7198 27.5077 78.4925 27.911C78.2652 28.307 77.9645 28.6113 77.5905 28.824C77.2165 29.0293 76.8095 29.132 76.3695 29.132C75.9368 29.132 75.5592 29.0257 75.2365 28.813C74.9212 28.593 74.6755 28.285 74.4995 27.889C74.3308 27.4857 74.2465 27.0127 74.2465 26.47C74.2465 25.92 74.3308 25.447 74.4995 25.051C74.6755 24.655 74.9212 24.3507 75.2365 24.138C75.5592 23.918 75.9368 23.808 76.3695 23.808C76.8095 23.808 77.2165 23.9143 77.5905 24.127C77.9645 24.3323 78.2652 24.633 78.4925 25.029C78.7198 25.425 78.8335 25.9053 78.8335 26.47ZM77.6015 26.47C77.6015 26.1327 77.5318 25.8467 77.3925 25.612C77.2532 25.37 77.0662 25.1903 76.8315 25.073C76.6042 24.9483 76.3512 24.886 76.0725 24.886C75.8452 24.886 75.6215 24.9483 75.4015 25.073C75.1815 25.1903 74.9982 25.3663 74.8515 25.601C74.7122 25.8357 74.6425 26.1253 74.6425 26.47C74.6425 26.8147 74.7122 27.1043 74.8515 27.339C74.9982 27.5737 75.1815 27.7533 75.4015 27.878C75.6215 27.9953 75.8452 28.054 76.0725 28.054C76.3512 28.054 76.6042 27.9953 76.8315 27.878C77.0662 27.7533 77.2532 27.5737 77.3925 27.339C77.5318 27.097 77.6015 26.8073 77.6015 26.47ZM85.7219 23.94H87.1519L84.8969 26.118L87.3719 29H85.9419L83.5219 26.03L85.7219 23.94ZM83.7749 23.94V29H82.6419V23.94H83.7749ZM80.6949 23.94L82.8949 26.03L80.4749 29H79.0449L81.5199 26.118L79.2649 23.94H80.6949ZM91.3881 25.645L90.0131 28.67L88.7811 28.538L91.3881 23.555L93.9951 28.538L92.7631 28.67L91.3881 25.645ZM93.4781 29H89.3531V29.99H88.1431V27.988H94.6331V29.99H93.4781V29ZM96.204 26.745V25.931H99.383C99.3536 25.689 99.2876 25.48 99.185 25.304C99.0896 25.1207 98.954 24.9813 98.778 24.886C98.602 24.7833 98.3856 24.732 98.129 24.732C97.865 24.732 97.6266 24.7907 97.414 24.908C97.2013 25.018 97.0326 25.183 96.908 25.403C96.7833 25.6157 96.721 25.8687 96.721 26.162L96.699 26.47C96.699 26.844 96.7576 27.1557 96.875 27.405C96.9996 27.647 97.1683 27.8303 97.381 27.955C97.601 28.0723 97.854 28.131 98.14 28.131C98.3746 28.131 98.58 28.098 98.756 28.032C98.9393 27.966 99.1006 27.8743 99.24 27.757C99.3793 27.6323 99.4966 27.4893 99.592 27.328L100.615 27.746C100.446 28.0173 100.252 28.2557 100.032 28.461C99.8193 28.6663 99.5553 28.8277 99.24 28.945C98.932 29.055 98.547 29.11 98.085 29.11C97.5643 29.11 97.1096 28.9963 96.721 28.769C96.3323 28.5417 96.0316 28.23 95.819 27.834C95.6063 27.4307 95.5 26.976 95.5 26.47C95.5 26.3747 95.5036 26.283 95.511 26.195C95.5183 26.107 95.5293 26.019 95.544 25.931C95.6173 25.513 95.764 25.1463 95.984 24.831C96.2113 24.5157 96.5083 24.27 96.875 24.094C97.2416 23.918 97.6633 23.83 98.14 23.83C98.6606 23.83 99.108 23.9363 99.482 24.149C99.8633 24.3543 100.157 24.6513 100.362 25.04C100.567 25.4213 100.67 25.8797 100.67 26.415C100.67 26.459 100.67 26.5103 100.67 26.569C100.67 26.6203 100.663 26.679 100.648 26.745H96.204ZM102.332 26.822V25.843H106.204V26.822H102.332ZM105.566 23.94H106.732V29H105.566V23.94ZM101.815 23.94H102.981V29H101.815V23.94ZM112.836 25.04L108.293 29.385L108.348 27.9L112.891 23.555L112.836 25.04ZM109.459 23.94V28.043L108.293 29.385V23.94H109.459ZM112.891 23.555V29H111.725V24.897L112.891 23.555ZM114.777 26.745V25.931H117.956C117.927 25.689 117.861 25.48 117.758 25.304C117.663 25.1207 117.527 24.9813 117.351 24.886C117.175 24.7833 116.959 24.732 116.702 24.732C116.438 24.732 116.2 24.7907 115.987 24.908C115.775 25.018 115.606 25.183 115.481 25.403C115.357 25.6157 115.294 25.8687 115.294 26.162L115.272 26.47C115.272 26.844 115.331 27.1557 115.448 27.405C115.573 27.647 115.742 27.8303 115.954 27.955C116.174 28.0723 116.427 28.131 116.713 28.131C116.948 28.131 117.153 28.098 117.329 28.032C117.513 27.966 117.674 27.8743 117.813 27.757C117.953 27.6323 118.07 27.4893 118.165 27.328L119.188 27.746C119.02 28.0173 118.825 28.2557 118.605 28.461C118.393 28.6663 118.129 28.8277 117.813 28.945C117.505 29.055 117.12 29.11 116.658 29.11C116.138 29.11 115.683 28.9963 115.294 28.769C114.906 28.5417 114.605 28.23 114.392 27.834C114.18 27.4307 114.073 26.976 114.073 26.47C114.073 26.3747 114.077 26.283 114.084 26.195C114.092 26.107 114.103 26.019 114.117 25.931C114.191 25.513 114.337 25.1463 114.557 24.831C114.785 24.5157 115.082 24.27 115.448 24.094C115.815 23.918 116.237 23.83 116.713 23.83C117.234 23.83 117.681 23.9363 118.055 24.149C118.437 24.3543 118.73 24.6513 118.935 25.04C119.141 25.4213 119.243 25.8797 119.243 26.415C119.243 26.459 119.243 26.5103 119.243 26.569C119.243 26.6203 119.236 26.679 119.221 26.745H114.777Z" fill="white"/>
<rect x="166" y="13" width="24" height="24" rx="4" fill="#C3C3C3"/>
<path d="M173.317 30L177.531 25.73C177.82 25.4127 178.068 25.1373 178.273 24.904C178.488 24.6613 178.651 24.428 178.763 24.204C178.875 23.98 178.931 23.742 178.931 23.49C178.931 23.3687 178.912 23.252 178.875 23.14C178.838 23.028 178.777 22.93 178.693 22.846C178.609 22.762 178.502 22.6967 178.371 22.65C178.25 22.594 178.1 22.566 177.923 22.566C177.69 22.566 177.484 22.6313 177.307 22.762C177.13 22.8833 176.99 23.0513 176.887 23.266C176.794 23.4807 176.747 23.7187 176.747 23.98H173.737C173.737 23.28 173.896 22.6267 174.213 22.02C174.53 21.4133 175.006 20.9233 175.641 20.55C176.285 20.1673 177.083 19.976 178.035 19.976C178.679 19.976 179.253 20.0693 179.757 20.256C180.27 20.4333 180.7 20.6807 181.045 20.998C181.4 21.306 181.666 21.656 181.843 22.048C182.03 22.44 182.123 22.846 182.123 23.266C182.123 23.8073 181.988 24.288 181.717 24.708C181.446 25.1187 181.087 25.4967 180.639 25.842L178.875 27.2H182.473V30H173.317Z" fill="black"/>
<path d="M196.397 25.26V24.38H201.677V25.26H196.397ZM201.05 21.3H201.985V29H201.05V21.3ZM195.88 21.3H196.815V29H195.88V21.3ZM203.248 26.47C203.248 25.9567 203.362 25.502 203.589 25.106C203.824 24.71 204.139 24.3983 204.535 24.171C204.931 23.9437 205.375 23.83 205.866 23.83C206.365 23.83 206.809 23.9437 207.197 24.171C207.593 24.3983 207.905 24.71 208.132 25.106C208.367 25.502 208.484 25.9567 208.484 26.47C208.484 26.976 208.367 27.4307 208.132 27.834C207.905 28.23 207.593 28.5417 207.197 28.769C206.809 28.9963 206.365 29.11 205.866 29.11C205.375 29.11 204.931 28.9963 204.535 28.769C204.139 28.5417 203.824 28.23 203.589 27.834C203.362 27.4307 203.248 26.976 203.248 26.47ZM204.139 26.47C204.139 26.822 204.213 27.1337 204.359 27.405C204.513 27.6763 204.719 27.8927 204.975 28.054C205.239 28.208 205.536 28.285 205.866 28.285C206.196 28.285 206.49 28.208 206.746 28.054C207.01 27.8927 207.216 27.6763 207.362 27.405C207.516 27.1337 207.593 26.822 207.593 26.47C207.593 26.118 207.516 25.8063 207.362 25.535C207.216 25.2563 207.01 25.04 206.746 24.886C206.49 24.732 206.196 24.655 205.866 24.655C205.536 24.655 205.239 24.732 204.975 24.886C204.719 25.04 204.513 25.2563 204.359 25.535C204.213 25.8063 204.139 26.118 204.139 26.47ZM210.21 26.36H211.673C212.025 26.36 212.34 26.3967 212.619 26.47C212.898 26.5433 213.118 26.6717 213.279 26.855C213.44 27.0383 213.521 27.295 213.521 27.625C213.521 28.0063 213.393 28.3327 213.136 28.604C212.887 28.868 212.472 29 211.893 29H210.21V28.23H211.673C212.003 28.23 212.245 28.1603 212.399 28.021C212.56 27.8817 212.641 27.713 212.641 27.515C212.641 27.4123 212.619 27.3207 212.575 27.24C212.538 27.1593 212.48 27.086 212.399 27.02C212.326 26.954 212.227 26.9063 212.102 26.877C211.985 26.8403 211.842 26.822 211.673 26.822H210.21V26.36ZM210.21 26.58V26.063H211.563C211.695 26.063 211.812 26.0483 211.915 26.019C212.025 25.9823 212.117 25.931 212.19 25.865C212.263 25.799 212.318 25.7257 212.355 25.645C212.399 25.557 212.421 25.4653 212.421 25.37C212.421 25.172 212.344 25.0143 212.19 24.897C212.036 24.7723 211.827 24.71 211.563 24.71H210.21V23.94H211.563C211.878 23.94 212.164 23.9877 212.421 24.083C212.685 24.171 212.898 24.3177 213.059 24.523C213.22 24.721 213.301 24.985 213.301 25.315C213.301 25.601 213.22 25.8393 213.059 26.03C212.898 26.2133 212.685 26.3527 212.421 26.448C212.164 26.536 211.878 26.58 211.563 26.58H210.21ZM209.693 23.94H210.573V29H209.693V23.94ZM214.238 26.47C214.238 25.9567 214.351 25.502 214.579 25.106C214.813 24.71 215.129 24.3983 215.525 24.171C215.921 23.9437 216.364 23.83 216.856 23.83C217.354 23.83 217.798 23.9437 218.187 24.171C218.583 24.3983 218.894 24.71 219.122 25.106C219.356 25.502 219.474 25.9567 219.474 26.47C219.474 26.976 219.356 27.4307 219.122 27.834C218.894 28.23 218.583 28.5417 218.187 28.769C217.798 28.9963 217.354 29.11 216.856 29.11C216.364 29.11 215.921 28.9963 215.525 28.769C215.129 28.5417 214.813 28.23 214.579 27.834C214.351 27.4307 214.238 26.976 214.238 26.47ZM215.129 26.47C215.129 26.822 215.202 27.1337 215.349 27.405C215.503 27.6763 215.708 27.8927 215.965 28.054C216.229 28.208 216.526 28.285 216.856 28.285C217.186 28.285 217.479 28.208 217.736 28.054C218 27.8927 218.205 27.6763 218.352 27.405C218.506 27.1337 218.583 26.822 218.583 26.47C218.583 26.118 218.506 25.8063 218.352 25.535C218.205 25.2563 218 25.04 217.736 24.886C217.479 24.732 217.186 24.655 216.856 24.655C216.526 24.655 216.229 24.732 215.965 24.886C215.708 25.04 215.503 25.2563 215.349 25.535C215.202 25.8063 215.129 26.118 215.129 26.47ZM220.803 26.69V25.942H224.18C224.151 25.678 224.078 25.447 223.96 25.249C223.85 25.0437 223.693 24.886 223.487 24.776C223.289 24.6587 223.044 24.6 222.75 24.6C222.457 24.6 222.189 24.6623 221.947 24.787C221.705 24.9117 221.511 25.0913 221.364 25.326C221.225 25.5533 221.155 25.8247 221.155 26.14L221.133 26.47C221.133 26.8587 221.199 27.1887 221.331 27.46C221.463 27.7313 221.65 27.9367 221.892 28.076C222.134 28.2153 222.42 28.285 222.75 28.285C223 28.285 223.22 28.2483 223.41 28.175C223.608 28.0943 223.784 27.988 223.938 27.856C224.092 27.7167 224.224 27.5553 224.334 27.372L225.049 27.823C224.881 28.0797 224.694 28.307 224.488 28.505C224.283 28.6957 224.034 28.846 223.74 28.956C223.447 29.0587 223.08 29.11 222.64 29.11C222.186 29.11 221.775 28.9963 221.408 28.769C221.049 28.5417 220.763 28.23 220.55 27.834C220.345 27.4307 220.242 26.976 220.242 26.47C220.242 26.3747 220.246 26.283 220.253 26.195C220.261 26.107 220.272 26.019 220.286 25.931C220.36 25.513 220.506 25.1463 220.726 24.831C220.946 24.5157 221.229 24.27 221.573 24.094C221.925 23.918 222.318 23.83 222.75 23.83C223.227 23.83 223.645 23.9363 224.004 24.149C224.364 24.3617 224.642 24.6623 224.84 25.051C225.038 25.4323 225.137 25.8907 225.137 26.426C225.137 26.47 225.137 26.514 225.137 26.558C225.137 26.602 225.134 26.646 225.126 26.69H220.803ZM233.876 24.82L229.696 29.385L229.751 28.12L233.931 23.555L233.876 24.82ZM230.576 23.94V28.175L229.696 29.385V23.94H230.576ZM233.931 23.555V29H233.051V24.765L233.931 23.555ZM240.443 29L239.618 24.985L240.113 23.555L241.433 29H240.443ZM237.803 28.241L240.113 23.555L240.223 25.315L238.133 29.341L237.803 28.241ZM238.133 29.341L236.076 25.315L236.186 23.555L238.463 28.241L238.133 29.341ZM234.866 29L236.186 23.555L236.681 24.985L235.856 29H234.866ZM243.043 29H242.075L243.945 26.36H244.913L243.043 29ZM246.255 29H245.375V23.94H246.255V29ZM245.738 26.206V26.976H244.165C243.821 26.976 243.505 26.9247 243.219 26.822C242.941 26.7193 242.721 26.558 242.559 26.338C242.398 26.1107 242.317 25.8173 242.317 25.458C242.317 25.0913 242.398 24.798 242.559 24.578C242.721 24.358 242.941 24.1967 243.219 24.094C243.505 23.9913 243.821 23.94 244.165 23.94H245.738V24.71H244.165C243.953 24.71 243.773 24.7393 243.626 24.798C243.487 24.8493 243.381 24.93 243.307 25.04C243.234 25.15 243.197 25.2893 243.197 25.458C243.197 25.6267 243.234 25.766 243.307 25.876C243.381 25.986 243.487 26.0703 243.626 26.129C243.773 26.1803 243.953 26.206 244.165 26.206H245.738Z" fill="#C3C3C3"/>
<rect x="293" y="13" width="24" height="24" rx="4" fill="#C3C3C3"/>
<path d="M304.37 25.31V24.064C304.613 24.064 304.837 24.036 305.042 23.98C305.257 23.924 305.439 23.8447 305.588 23.742C305.747 23.6393 305.868 23.5227 305.952 23.392C306.036 23.2613 306.078 23.126 306.078 22.986C306.078 22.8647 306.045 22.7573 305.98 22.664C305.915 22.5707 305.817 22.5007 305.686 22.454C305.565 22.398 305.401 22.37 305.196 22.37C304.879 22.37 304.622 22.4587 304.426 22.636C304.23 22.8133 304.132 23.0467 304.132 23.336H301.318C301.318 22.7107 301.477 22.146 301.794 21.642C302.111 21.138 302.559 20.7367 303.138 20.438C303.726 20.1393 304.417 19.99 305.21 19.99C306.05 19.99 306.759 20.1113 307.338 20.354C307.917 20.5967 308.355 20.928 308.654 21.348C308.953 21.768 309.102 22.244 309.102 22.776C309.102 23.4013 308.887 23.9007 308.458 24.274C308.029 24.638 307.455 24.904 306.736 25.072C306.027 25.2307 305.238 25.31 304.37 25.31ZM305.07 30.28C304.407 30.28 303.815 30.1773 303.292 29.972C302.779 29.7667 302.345 29.4867 301.99 29.132C301.635 28.7773 301.365 28.3807 301.178 27.942C300.991 27.494 300.898 27.0367 300.898 26.57H303.922C303.922 26.8967 303.983 27.158 304.104 27.354C304.235 27.55 304.398 27.69 304.594 27.774C304.799 27.858 305.005 27.9 305.21 27.9C305.425 27.9 305.616 27.8767 305.784 27.83C305.961 27.774 306.101 27.6807 306.204 27.55C306.307 27.41 306.358 27.2233 306.358 26.99C306.358 26.85 306.325 26.7147 306.26 26.584C306.195 26.444 306.087 26.3227 305.938 26.22C305.789 26.108 305.583 26.024 305.322 25.968C305.07 25.9027 304.753 25.87 304.37 25.87V24.414C305.126 24.414 305.807 24.47 306.414 24.582C307.03 24.6847 307.557 24.8527 307.996 25.086C308.444 25.3193 308.785 25.618 309.018 25.982C309.261 26.3367 309.382 26.766 309.382 27.27C309.382 27.8487 309.214 28.3667 308.878 28.824C308.551 29.272 308.066 29.6267 307.422 29.888C306.787 30.1493 306.003 30.28 305.07 30.28Z" fill="black"/>
<path d="M325.113 25.205V24.6C325.516 24.6 325.857 24.5413 326.136 24.424C326.415 24.2993 326.627 24.138 326.774 23.94C326.921 23.7347 326.994 23.511 326.994 23.269C326.994 23.027 326.939 22.8143 326.829 22.631C326.719 22.4403 326.55 22.2937 326.323 22.191C326.103 22.0883 325.828 22.037 325.498 22.037C325.19 22.037 324.911 22.0883 324.662 22.191C324.42 22.2937 324.229 22.433 324.09 22.609C323.951 22.785 323.881 22.9867 323.881 23.214H322.99C322.99 22.8107 323.093 22.4587 323.298 22.158C323.511 21.8573 323.804 21.6227 324.178 21.454C324.559 21.278 324.996 21.19 325.487 21.19C326 21.19 326.44 21.2853 326.807 21.476C327.174 21.6667 327.456 21.916 327.654 22.224C327.852 22.532 327.951 22.8693 327.951 23.236C327.951 23.5073 327.881 23.764 327.742 24.006C327.61 24.2407 327.419 24.4497 327.17 24.633C326.921 24.809 326.62 24.9483 326.268 25.051C325.923 25.1537 325.538 25.205 325.113 25.205ZM325.443 29.11C324.988 29.11 324.589 29.055 324.244 28.945C323.899 28.835 323.61 28.6847 323.375 28.494C323.14 28.296 322.961 28.0687 322.836 27.812C322.719 27.548 322.66 27.2657 322.66 26.965H323.606C323.635 27.207 323.716 27.4233 323.848 27.614C323.987 27.8047 324.185 27.955 324.442 28.065C324.706 28.175 325.04 28.23 325.443 28.23C326.052 28.23 326.499 28.1053 326.785 27.856C327.071 27.6067 327.214 27.273 327.214 26.855C327.214 26.5397 327.122 26.2757 326.939 26.063C326.756 25.8503 326.506 25.6927 326.191 25.59C325.876 25.48 325.516 25.425 325.113 25.425V24.82C325.685 24.82 326.202 24.8933 326.664 25.04C327.126 25.1867 327.493 25.4177 327.764 25.733C328.035 26.041 328.171 26.4517 328.171 26.965C328.171 27.3977 328.061 27.7753 327.841 28.098C327.628 28.4207 327.317 28.67 326.906 28.846C326.503 29.022 326.015 29.11 325.443 29.11ZM329.892 27.515C329.892 27.691 329.94 27.8413 330.035 27.966C330.13 28.0833 330.259 28.175 330.42 28.241C330.581 28.2997 330.761 28.329 330.959 28.329C331.252 28.329 331.513 28.285 331.74 28.197C331.967 28.109 332.143 27.9697 332.268 27.779C332.4 27.5883 332.466 27.3353 332.466 27.02L332.642 27.57C332.642 27.8927 332.554 28.1713 332.378 28.406C332.209 28.6333 331.982 28.8093 331.696 28.934C331.41 29.0513 331.091 29.11 330.739 29.11C330.424 29.11 330.134 29.0513 329.87 28.934C329.606 28.8167 329.393 28.6443 329.232 28.417C329.078 28.1823 329.001 27.8927 329.001 27.548C329.001 27.1887 329.089 26.8843 329.265 26.635C329.441 26.3857 329.69 26.195 330.013 26.063C330.336 25.9237 330.717 25.854 331.157 25.854C331.48 25.854 331.755 25.898 331.982 25.986C332.217 26.0667 332.404 26.162 332.543 26.272C332.682 26.3747 332.778 26.459 332.829 26.525V27.042C332.58 26.866 332.327 26.7377 332.07 26.657C331.813 26.569 331.524 26.525 331.201 26.525C330.908 26.525 330.662 26.5653 330.464 26.646C330.273 26.7267 330.13 26.8403 330.035 26.987C329.94 27.1337 329.892 27.3097 329.892 27.515ZM329.892 25.128L329.463 24.457C329.654 24.3177 329.91 24.1783 330.233 24.039C330.556 23.8997 330.944 23.83 331.399 23.83C331.788 23.83 332.125 23.8923 332.411 24.017C332.704 24.1343 332.932 24.3067 333.093 24.534C333.262 24.7613 333.346 25.04 333.346 25.37V29H332.466V25.37C332.466 25.1133 332.356 24.9227 332.136 24.798C331.923 24.666 331.678 24.6 331.399 24.6C331.157 24.6 330.937 24.633 330.739 24.699C330.541 24.7577 330.369 24.831 330.222 24.919C330.083 24.9997 329.973 25.0693 329.892 25.128ZM335.352 26.36H336.815C337.167 26.36 337.482 26.3967 337.761 26.47C338.039 26.5433 338.259 26.6717 338.421 26.855C338.582 27.0383 338.663 27.295 338.663 27.625C338.663 28.0063 338.534 28.3327 338.278 28.604C338.028 28.868 337.614 29 337.035 29H335.352V28.23H336.815C337.145 28.23 337.387 28.1603 337.541 28.021C337.702 27.8817 337.783 27.713 337.783 27.515C337.783 27.4123 337.761 27.3207 337.717 27.24C337.68 27.1593 337.621 27.086 337.541 27.02C337.467 26.954 337.368 26.9063 337.244 26.877C337.126 26.8403 336.983 26.822 336.815 26.822H335.352V26.36ZM335.352 26.58V26.063H336.705C336.837 26.063 336.954 26.0483 337.057 26.019C337.167 25.9823 337.258 25.931 337.332 25.865C337.405 25.799 337.46 25.7257 337.497 25.645C337.541 25.557 337.563 25.4653 337.563 25.37C337.563 25.172 337.486 25.0143 337.332 24.897C337.178 24.7723 336.969 24.71 336.705 24.71H335.352V23.94H336.705C337.02 23.94 337.306 23.9877 337.563 24.083C337.827 24.171 338.039 24.3177 338.201 24.523C338.362 24.721 338.443 24.985 338.443 25.315C338.443 25.601 338.362 25.8393 338.201 26.03C338.039 26.2133 337.827 26.3527 337.563 26.448C337.306 26.536 337.02 26.58 336.705 26.58H335.352ZM334.835 23.94H335.715V29H334.835V23.94ZM339.94 26.69V25.942H343.317C343.288 25.678 343.214 25.447 343.097 25.249C342.987 25.0437 342.829 24.886 342.624 24.776C342.426 24.6587 342.18 24.6 341.887 24.6C341.594 24.6 341.326 24.6623 341.084 24.787C340.842 24.9117 340.648 25.0913 340.501 25.326C340.362 25.5533 340.292 25.8247 340.292 26.14L340.27 26.47C340.27 26.8587 340.336 27.1887 340.468 27.46C340.6 27.7313 340.787 27.9367 341.029 28.076C341.271 28.2153 341.557 28.285 341.887 28.285C342.136 28.285 342.356 28.2483 342.547 28.175C342.745 28.0943 342.921 27.988 343.075 27.856C343.229 27.7167 343.361 27.5553 343.471 27.372L344.186 27.823C344.017 28.0797 343.83 28.307 343.625 28.505C343.42 28.6957 343.17 28.846 342.877 28.956C342.584 29.0587 342.217 29.11 341.777 29.11C341.322 29.11 340.912 28.9963 340.545 28.769C340.186 28.5417 339.9 28.23 339.687 27.834C339.482 27.4307 339.379 26.976 339.379 26.47C339.379 26.3747 339.383 26.283 339.39 26.195C339.397 26.107 339.408 26.019 339.423 25.931C339.496 25.513 339.643 25.1463 339.863 24.831C340.083 24.5157 340.365 24.27 340.71 24.094C341.062 23.918 341.454 23.83 341.887 23.83C342.364 23.83 342.782 23.9363 343.141 24.149C343.5 24.3617 343.779 24.6623 343.977 25.051C344.175 25.4323 344.274 25.8907 344.274 26.426C344.274 26.47 344.274 26.514 344.274 26.558C344.274 26.602 344.27 26.646 344.263 26.69H339.94ZM346.305 31.42H345.425V23.94H346.305V31.42ZM350.54 26.47C350.54 27.0127 350.427 27.482 350.199 27.878C349.972 28.274 349.668 28.5783 349.286 28.791C348.912 29.0037 348.494 29.11 348.032 29.11C347.614 29.11 347.244 29.0037 346.921 28.791C346.606 28.5783 346.357 28.274 346.173 27.878C345.997 27.482 345.909 27.0127 345.909 26.47C345.909 25.92 345.997 25.4507 346.173 25.062C346.357 24.666 346.606 24.3617 346.921 24.149C347.244 23.9363 347.614 23.83 348.032 23.83C348.494 23.83 348.912 23.9363 349.286 24.149C349.668 24.3617 349.972 24.666 350.199 25.062C350.427 25.4507 350.54 25.92 350.54 26.47ZM349.649 26.47C349.649 26.0813 349.569 25.7513 349.407 25.48C349.253 25.2087 349.044 25.0033 348.78 24.864C348.524 24.7247 348.238 24.655 347.922 24.655C347.666 24.655 347.413 24.7247 347.163 24.864C346.914 25.0033 346.709 25.2087 346.547 25.48C346.386 25.7513 346.305 26.0813 346.305 26.47C346.305 26.8587 346.386 27.1887 346.547 27.46C346.709 27.7313 346.914 27.9367 347.163 28.076C347.413 28.2153 347.666 28.285 347.922 28.285C348.238 28.285 348.524 28.2153 348.78 28.076C349.044 27.9367 349.253 27.7313 349.407 27.46C349.569 27.1887 349.649 26.8587 349.649 26.47ZM355.659 28.175H357.804V23.94H358.684V29H351.754V23.94H352.634V28.175H354.779V23.94H355.659V28.175ZM360.458 26.69V25.942H363.835C363.805 25.678 363.732 25.447 363.615 25.249C363.505 25.0437 363.347 24.886 363.142 24.776C362.944 24.6587 362.698 24.6 362.405 24.6C362.111 24.6 361.844 24.6623 361.602 24.787C361.36 24.9117 361.165 25.0913 361.019 25.326C360.879 25.5533 360.81 25.8247 360.81 26.14L360.788 26.47C360.788 26.8587 360.854 27.1887 360.986 27.46C361.118 27.7313 361.305 27.9367 361.547 28.076C361.789 28.2153 362.075 28.285 362.405 28.285C362.654 28.285 362.874 28.2483 363.065 28.175C363.263 28.0943 363.439 27.988 363.593 27.856C363.747 27.7167 363.879 27.5553 363.989 27.372L364.704 27.823C364.535 28.0797 364.348 28.307 364.143 28.505C363.937 28.6957 363.688 28.846 363.395 28.956C363.101 29.0587 362.735 29.11 362.295 29.11C361.84 29.11 361.429 28.9963 361.063 28.769C360.703 28.5417 360.417 28.23 360.205 27.834C359.999 27.4307 359.897 26.976 359.897 26.47C359.897 26.3747 359.9 26.283 359.908 26.195C359.915 26.107 359.926 26.019 359.941 25.931C360.014 25.513 360.161 25.1463 360.381 24.831C360.601 24.5157 360.883 24.27 361.228 24.094C361.58 23.918 361.972 23.83 362.405 23.83C362.881 23.83 363.299 23.9363 363.659 24.149C364.018 24.3617 364.297 24.6623 364.495 25.051C364.693 25.4323 364.792 25.8907 364.792 26.426C364.792 26.47 364.792 26.514 364.792 26.558C364.792 26.602 364.788 26.646 364.781 26.69H360.458ZM366.515 26.745V25.92H370.255V26.745H366.515ZM369.683 23.94H370.563V29H369.683V23.94ZM365.998 23.94H366.878V29H365.998V23.94ZM376.453 24.82L372.273 29.385L372.328 28.12L376.508 23.555L376.453 24.82ZM373.153 23.94V28.175L372.273 29.385V23.94H373.153ZM376.508 23.555V29H375.628V24.765L376.508 23.555ZM378.333 26.69V25.942H381.71C381.68 25.678 381.607 25.447 381.49 25.249C381.38 25.0437 381.222 24.886 381.017 24.776C380.819 24.6587 380.573 24.6 380.28 24.6C379.986 24.6 379.719 24.6623 379.477 24.787C379.235 24.9117 379.04 25.0913 378.894 25.326C378.754 25.5533 378.685 25.8247 378.685 26.14L378.663 26.47C378.663 26.8587 378.729 27.1887 378.861 27.46C378.993 27.7313 379.18 27.9367 379.422 28.076C379.664 28.2153 379.95 28.285 380.28 28.285C380.529 28.285 380.749 28.2483 380.94 28.175C381.138 28.0943 381.314 27.988 381.468 27.856C381.622 27.7167 381.754 27.5553 381.864 27.372L382.579 27.823C382.41 28.0797 382.223 28.307 382.018 28.505C381.812 28.6957 381.563 28.846 381.27 28.956C380.976 29.0587 380.61 29.11 380.17 29.11C379.715 29.11 379.304 28.9963 378.938 28.769C378.578 28.5417 378.292 28.23 378.08 27.834C377.874 27.4307 377.772 26.976 377.772 26.47C377.772 26.3747 377.775 26.283 377.783 26.195C377.79 26.107 377.801 26.019 377.816 25.931C377.889 25.513 378.036 25.1463 378.256 24.831C378.476 24.5157 378.758 24.27 379.103 24.094C379.455 23.918 379.847 23.83 380.28 23.83C380.756 23.83 381.174 23.9363 381.534 24.149C381.893 24.3617 382.172 24.6623 382.37 25.051C382.568 25.4323 382.667 25.8907 382.667 26.426C382.667 26.47 382.667 26.514 382.667 26.558C382.667 26.602 382.663 26.646 382.656 26.69H378.333Z" fill="#C3C3C3"/>
<rect x="125" y="25" width="36" height="2" fill="#C3C3C3"/>
<rect x="252" y="25" width="36" height="2" fill="#C3C3C3" fill-opacity="0.5"/>
<defs>
<linearGradient id="paint0_linear_68_13" x1="8" y1="13" x2="32" y2="37" gradientUnits="userSpaceOnUse">
<stop stop-color="#DA6AD0"/>
<stop offset="1" stop-color="#9780E5"/>
</linearGradient>
</defs>
</svg>
