<svg width="394" height="50" viewBox="0 0 394 50" fill="none" xmlns="http://www.w3.org/2000/svg">
<rect x="8" y="13" width="24" height="24" rx="4" fill="url(#paint0_linear_68_13)"/>
<path d="M13.728 25.4768C13.3259 25.0982 13.3069 24.4653 13.6856 24.0632L14.5484 23.1469C14.9271 22.7448 15.5599 22.7258 15.962 23.1044L19.6822 26.6076L17.4482 28.98L13.728 25.4768Z" fill="white"/>
<path d="M24.9882 20.7071C25.3787 20.3166 26.0119 20.3166 26.4024 20.7071L27.2924 21.5971C27.683 21.9876 27.683 22.6208 27.2924 23.0113L19.3587 30.9451L17.0545 28.6409L24.9882 20.7071Z" fill="white"/>
<path d="M43.05 22.18H38.815V29H37.88V21.3H43.985V29H43.05V22.18ZM45.2483 26.47C45.2483 25.9567 45.3619 25.502 45.5893 25.106C45.8239 24.71 46.1393 24.3983 46.5353 24.171C46.9313 23.9437 47.3749 23.83 47.8663 23.83C48.3649 23.83 48.8086 23.9437 49.1973 24.171C49.5933 24.3983 49.9049 24.71 50.1323 25.106C50.3669 25.502 50.4843 25.9567 50.4843 26.47C50.4843 26.976 50.3669 27.4307 50.1323 27.834C49.9049 28.23 49.5933 28.5417 49.1973 28.769C48.8086 28.9963 48.3649 29.11 47.8663 29.11C47.3749 29.11 46.9313 28.9963 46.5353 28.769C46.1393 28.5417 45.8239 28.23 45.5893 27.834C45.3619 27.4307 45.2483 26.976 45.2483 26.47ZM46.1393 26.47C46.1393 26.822 46.2126 27.1337 46.3593 27.405C46.5133 27.6763 46.7186 27.8927 46.9753 28.054C47.2393 28.208 47.5363 28.285 47.8663 28.285C48.1963 28.285 48.4896 28.208 48.7463 28.054C49.0103 27.8927 49.2156 27.6763 49.3623 27.405C49.5163 27.1337 49.5933 26.822 49.5933 26.47C49.5933 26.118 49.5163 25.8063 49.3623 25.535C49.2156 25.2563 49.0103 25.04 48.7463 24.886C48.4896 24.732 48.1963 24.655 47.8663 24.655C47.5363 24.655 47.2393 24.732 46.9753 24.886C46.7186 25.04 46.5133 25.2563 46.3593 25.535C46.2126 25.8063 46.1393 26.118 46.1393 26.47ZM53.8953 25.458L52.4103 28.67H51.4203L53.8953 23.555L56.3703 28.67H55.3803L53.8953 25.458ZM56.1503 29H51.6953V29.99H50.7603V28.175H57.0303V29.99H56.1503V29ZM57.5833 23.94H60.5533V24.765H57.5833V23.94ZM58.6283 24.16H59.5083V29H58.6283V24.16ZM61.9533 26.36H63.4163C63.7683 26.36 64.0837 26.3967 64.3623 26.47C64.641 26.5433 64.861 26.6717 65.0223 26.855C65.1837 27.0383 65.2643 27.295 65.2643 27.625C65.2643 28.0063 65.136 28.3327 64.8793 28.604C64.63 28.868 64.2157 29 63.6363 29H61.9533V28.23H63.4163C63.7463 28.23 63.9883 28.1603 64.1423 28.021C64.3037 27.8817 64.3843 27.713 64.3843 27.515C64.3843 27.4123 64.3623 27.3207 64.3183 27.24C64.2817 27.1593 64.223 27.086 64.1423 27.02C64.069 26.954 63.97 26.9063 63.8453 26.877C63.728 26.8403 63.585 26.822 63.4163 26.822H61.9533V26.36ZM61.9533 26.58V26.063H63.3063C63.4383 26.063 63.5557 26.0483 63.6583 26.019C63.7683 25.9823 63.86 25.931 63.9333 25.865C64.0067 25.799 64.0617 25.7257 64.0983 25.645C64.1423 25.557 64.1643 25.4653 64.1643 25.37C64.1643 25.172 64.0873 25.0143 63.9333 24.897C63.7793 24.7723 63.5703 24.71 63.3063 24.71H61.9533V23.94H63.3063C63.6217 23.94 63.9077 23.9877 64.1643 24.083C64.4283 24.171 64.641 24.3177 64.8023 24.523C64.9637 24.721 65.0443 24.985 65.0443 25.315C65.0443 25.601 64.9637 25.8393 64.8023 26.03C64.641 26.2133 64.4283 26.3527 64.1643 26.448C63.9077 26.536 63.6217 26.58 63.3063 26.58H61.9533ZM61.4363 23.94H62.3163V29H61.4363V23.94ZM66.5417 26.69V25.942H69.9187C69.8894 25.678 69.816 25.447 69.6987 25.249C69.5887 25.0437 69.431 24.886 69.2257 24.776C69.0277 24.6587 68.782 24.6 68.4887 24.6C68.1954 24.6 67.9277 24.6623 67.6857 24.787C67.4437 24.9117 67.2494 25.0913 67.1027 25.326C66.9634 25.5533 66.8937 25.8247 66.8937 26.14L66.8717 26.47C66.8717 26.8587 66.9377 27.1887 67.0697 27.46C67.2017 27.7313 67.3887 27.9367 67.6307 28.076C67.8727 28.2153 68.1587 28.285 68.4887 28.285C68.738 28.285 68.958 28.2483 69.1487 28.175C69.3467 28.0943 69.5227 27.988 69.6767 27.856C69.8307 27.7167 69.9627 27.5553 70.0727 27.372L70.7877 27.823C70.619 28.0797 70.432 28.307 70.2267 28.505C70.0214 28.6957 69.772 28.846 69.4787 28.956C69.1854 29.0587 68.8187 29.11 68.3787 29.11C67.924 29.11 67.5134 28.9963 67.1467 28.769C66.7874 28.5417 66.5014 28.23 66.2887 27.834C66.0834 27.4307 65.9807 26.976 65.9807 26.47C65.9807 26.3747 65.9844 26.283 65.9917 26.195C65.999 26.107 66.01 26.019 66.0247 25.931C66.098 25.513 66.2447 25.1463 66.4647 24.831C66.6847 24.5157 66.967 24.27 67.3117 24.094C67.6637 23.918 68.056 23.83 68.4887 23.83C68.9654 23.83 69.3834 23.9363 69.7427 24.149C70.102 24.3617 70.3807 24.6623 70.5787 25.051C70.7767 25.4323 70.8757 25.8907 70.8757 26.426C70.8757 26.47 70.8757 26.514 70.8757 26.558C70.8757 26.602 70.872 26.646 70.8647 26.69H66.5417ZM72.9068 31.42H72.0268V23.94H72.9068V31.42ZM77.1418 26.47C77.1418 27.0127 77.0282 27.482 76.8008 27.878C76.5735 28.274 76.2692 28.5783 75.8878 28.791C75.5138 29.0037 75.0958 29.11 74.6338 29.11C74.2158 29.11 73.8455 29.0037 73.5228 28.791C73.2075 28.5783 72.9582 28.274 72.7748 27.878C72.5988 27.482 72.5108 27.0127 72.5108 26.47C72.5108 25.92 72.5988 25.4507 72.7748 25.062C72.9582 24.666 73.2075 24.3617 73.5228 24.149C73.8455 23.9363 74.2158 23.83 74.6338 23.83C75.0958 23.83 75.5138 23.9363 75.8878 24.149C76.2692 24.3617 76.5735 24.666 76.8008 25.062C77.0282 25.4507 77.1418 25.92 77.1418 26.47ZM76.2508 26.47C76.2508 26.0813 76.1702 25.7513 76.0088 25.48C75.8548 25.2087 75.6458 25.0033 75.3818 24.864C75.1252 24.7247 74.8392 24.655 74.5238 24.655C74.2672 24.655 74.0142 24.7247 73.7648 24.864C73.5155 25.0033 73.3102 25.2087 73.1488 25.48C72.9875 25.7513 72.9068 26.0813 72.9068 26.47C72.9068 26.8587 72.9875 27.1887 73.1488 27.46C73.3102 27.7313 73.5155 27.9367 73.7648 28.076C74.0142 28.2153 74.2672 28.285 74.5238 28.285C74.8392 28.285 75.1252 28.2153 75.3818 28.076C75.6458 27.9367 75.8548 27.7313 76.0088 27.46C76.1702 27.1887 76.2508 26.8587 76.2508 26.47ZM83.4741 23.94H84.5741L82.2641 26.14L84.7941 29H83.6941L81.2741 26.03L83.4741 23.94ZM81.4941 23.94V29H80.6691V23.94H81.4941ZM78.6891 23.94L80.8891 26.03L78.4691 29H77.3691L79.8991 26.14L77.5891 23.94H78.6891ZM88.7 25.458L87.215 28.67H86.225L88.7 23.555L91.175 28.67H90.185L88.7 25.458ZM90.955 29H86.5V29.99H85.565V28.175H91.835V29.99H90.955V29ZM93.279 26.69V25.942H96.656C96.6267 25.678 96.5533 25.447 96.436 25.249C96.326 25.0437 96.1683 24.886 95.963 24.776C95.765 24.6587 95.5193 24.6 95.226 24.6C94.9327 24.6 94.665 24.6623 94.423 24.787C94.181 24.9117 93.9867 25.0913 93.84 25.326C93.7007 25.5533 93.631 25.8247 93.631 26.14L93.609 26.47C93.609 26.8587 93.675 27.1887 93.807 27.46C93.939 27.7313 94.126 27.9367 94.368 28.076C94.61 28.2153 94.896 28.285 95.226 28.285C95.4753 28.285 95.6953 28.2483 95.886 28.175C96.084 28.0943 96.26 27.988 96.414 27.856C96.568 27.7167 96.7 27.5553 96.81 27.372L97.525 27.823C97.3563 28.0797 97.1693 28.307 96.964 28.505C96.7587 28.6957 96.5093 28.846 96.216 28.956C95.9227 29.0587 95.556 29.11 95.116 29.11C94.6613 29.11 94.2507 28.9963 93.884 28.769C93.5247 28.5417 93.2387 28.23 93.026 27.834C92.8207 27.4307 92.718 26.976 92.718 26.47C92.718 26.3747 92.7217 26.283 92.729 26.195C92.7363 26.107 92.7473 26.019 92.762 25.931C92.8353 25.513 92.982 25.1463 93.202 24.831C93.422 24.5157 93.7043 24.27 94.049 24.094C94.401 23.918 94.7933 23.83 95.226 23.83C95.7027 23.83 96.1207 23.9363 96.48 24.149C96.8393 24.3617 97.118 24.6623 97.316 25.051C97.514 25.4323 97.613 25.8907 97.613 26.426C97.613 26.47 97.613 26.514 97.613 26.558C97.613 26.602 97.6093 26.646 97.602 26.69H93.279ZM99.3361 26.745V25.92H103.076V26.745H99.3361ZM102.504 23.94H103.384V29H102.504V23.94ZM98.8191 23.94H99.6991V29H98.8191V23.94ZM109.274 24.82L105.094 29.385L105.149 28.12L109.329 23.555L109.274 24.82ZM105.974 23.94V28.175L105.094 29.385V23.94H105.974ZM109.329 23.555V29H108.449V24.765L109.329 23.555ZM111.154 26.69V25.942H114.531C114.502 25.678 114.428 25.447 114.311 25.249C114.201 25.0437 114.043 24.886 113.838 24.776C113.64 24.6587 113.394 24.6 113.101 24.6C112.808 24.6 112.54 24.6623 112.298 24.787C112.056 24.9117 111.862 25.0913 111.715 25.326C111.576 25.5533 111.506 25.8247 111.506 26.14L111.484 26.47C111.484 26.8587 111.55 27.1887 111.682 27.46C111.814 27.7313 112.001 27.9367 112.243 28.076C112.485 28.2153 112.771 28.285 113.101 28.285C113.35 28.285 113.57 28.2483 113.761 28.175C113.959 28.0943 114.135 27.988 114.289 27.856C114.443 27.7167 114.575 27.5553 114.685 27.372L115.4 27.823C115.231 28.0797 115.044 28.307 114.839 28.505C114.634 28.6957 114.384 28.846 114.091 28.956C113.798 29.0587 113.431 29.11 112.991 29.11C112.536 29.11 112.126 28.9963 111.759 28.769C111.4 28.5417 111.114 28.23 110.901 27.834C110.696 27.4307 110.593 26.976 110.593 26.47C110.593 26.3747 110.597 26.283 110.604 26.195C110.611 26.107 110.622 26.019 110.637 25.931C110.71 25.513 110.857 25.1463 111.077 24.831C111.297 24.5157 111.579 24.27 111.924 24.094C112.276 23.918 112.668 23.83 113.101 23.83C113.578 23.83 113.996 23.9363 114.355 24.149C114.714 24.3617 114.993 24.6623 115.191 25.051C115.389 25.4323 115.488 25.8907 115.488 26.426C115.488 26.47 115.488 26.514 115.488 26.558C115.488 26.602 115.484 26.646 115.477 26.69H111.154Z" fill="white"/>
<rect x="159" y="13" width="24" height="24" rx="4" fill="url(#paint1_linear_68_13)"/>
<path d="M166.317 30L170.531 25.73C170.82 25.4127 171.068 25.1373 171.273 24.904C171.488 24.6613 171.651 24.428 171.763 24.204C171.875 23.98 171.931 23.742 171.931 23.49C171.931 23.3687 171.912 23.252 171.875 23.14C171.838 23.028 171.777 22.93 171.693 22.846C171.609 22.762 171.502 22.6967 171.371 22.65C171.25 22.594 171.1 22.566 170.923 22.566C170.69 22.566 170.484 22.6313 170.307 22.762C170.13 22.8833 169.99 23.0513 169.887 23.266C169.794 23.4807 169.747 23.7187 169.747 23.98H166.737C166.737 23.28 166.896 22.6267 167.213 22.02C167.53 21.4133 168.006 20.9233 168.641 20.55C169.285 20.1673 170.083 19.976 171.035 19.976C171.679 19.976 172.253 20.0693 172.757 20.256C173.27 20.4333 173.7 20.6807 174.045 20.998C174.4 21.306 174.666 21.656 174.843 22.048C175.03 22.44 175.123 22.846 175.123 23.266C175.123 23.8073 174.988 24.288 174.717 24.708C174.446 25.1187 174.087 25.4967 173.639 25.842L171.875 27.2H175.473V30H166.317Z" fill="white"/>
<path d="M189.375 25.469V24.27H194.864V25.469H189.375ZM194.028 21.3H195.326V29H194.028V21.3ZM188.858 21.3H190.156V29H188.858V21.3ZM196.56 26.47C196.56 25.9493 196.677 25.491 196.912 25.095C197.154 24.699 197.48 24.391 197.891 24.171C198.301 23.9437 198.767 23.83 199.288 23.83C199.808 23.83 200.27 23.9437 200.674 24.171C201.084 24.391 201.411 24.699 201.653 25.095C201.895 25.491 202.016 25.9493 202.016 26.47C202.016 26.9833 201.895 27.4417 201.653 27.845C201.411 28.241 201.084 28.5527 200.674 28.78C200.27 29 199.808 29.11 199.288 29.11C198.767 29.11 198.301 29 197.891 28.78C197.48 28.5527 197.154 28.241 196.912 27.845C196.677 27.4417 196.56 26.9833 196.56 26.47ZM197.781 26.47C197.781 26.7853 197.847 27.064 197.979 27.306C198.111 27.5407 198.29 27.7277 198.518 27.867C198.745 27.999 199.002 28.065 199.288 28.065C199.566 28.065 199.819 27.999 200.047 27.867C200.281 27.7277 200.465 27.5407 200.597 27.306C200.729 27.064 200.795 26.7853 200.795 26.47C200.795 26.1547 200.729 25.876 200.597 25.634C200.465 25.392 200.281 25.205 200.047 25.073C199.819 24.941 199.566 24.875 199.288 24.875C199.002 24.875 198.745 24.941 198.518 25.073C198.29 25.205 198.111 25.392 197.979 25.634C197.847 25.876 197.781 26.1547 197.781 26.47ZM203.902 26.36H205.508C205.86 26.36 206.175 26.3967 206.454 26.47C206.732 26.5433 206.952 26.6717 207.114 26.855C207.275 27.0383 207.356 27.295 207.356 27.625C207.356 28.0063 207.227 28.3327 206.971 28.604C206.721 28.868 206.307 29 205.728 29H203.902V28.12H205.365C205.658 28.12 205.871 28.0577 206.003 27.933C206.135 27.8083 206.201 27.6617 206.201 27.493C206.201 27.405 206.182 27.3243 206.146 27.251C206.109 27.1777 206.058 27.1117 205.992 27.053C205.933 26.9943 205.849 26.9503 205.739 26.921C205.636 26.8917 205.511 26.877 205.365 26.877H203.902V26.36ZM203.902 26.58V26.008H205.255C205.365 26.008 205.464 25.9933 205.552 25.964C205.647 25.9347 205.724 25.8907 205.783 25.832C205.841 25.7733 205.889 25.7073 205.926 25.634C205.962 25.5607 205.981 25.4837 205.981 25.403C205.981 25.2343 205.915 25.095 205.783 24.985C205.658 24.875 205.482 24.82 205.255 24.82H203.902V23.94H205.398C205.713 23.94 205.999 23.9877 206.256 24.083C206.52 24.171 206.732 24.3177 206.894 24.523C207.055 24.721 207.136 24.985 207.136 25.315C207.136 25.601 207.055 25.8393 206.894 26.03C206.732 26.2133 206.52 26.3527 206.256 26.448C205.999 26.536 205.713 26.58 205.398 26.58H203.902ZM203.209 23.94H204.375V29H203.209V23.94ZM208.064 26.47C208.064 25.9493 208.182 25.491 208.416 25.095C208.658 24.699 208.985 24.391 209.395 24.171C209.806 23.9437 210.272 23.83 210.792 23.83C211.313 23.83 211.775 23.9437 212.178 24.171C212.589 24.391 212.915 24.699 213.157 25.095C213.399 25.491 213.52 25.9493 213.52 26.47C213.52 26.9833 213.399 27.4417 213.157 27.845C212.915 28.241 212.589 28.5527 212.178 28.78C211.775 29 211.313 29.11 210.792 29.11C210.272 29.11 209.806 29 209.395 28.78C208.985 28.5527 208.658 28.241 208.416 27.845C208.182 27.4417 208.064 26.9833 208.064 26.47ZM209.285 26.47C209.285 26.7853 209.351 27.064 209.483 27.306C209.615 27.5407 209.795 27.7277 210.022 27.867C210.25 27.999 210.506 28.065 210.792 28.065C211.071 28.065 211.324 27.999 211.551 27.867C211.786 27.7277 211.969 27.5407 212.101 27.306C212.233 27.064 212.299 26.7853 212.299 26.47C212.299 26.1547 212.233 25.876 212.101 25.634C211.969 25.392 211.786 25.205 211.551 25.073C211.324 24.941 211.071 24.875 210.792 24.875C210.506 24.875 210.25 24.941 210.022 25.073C209.795 25.205 209.615 25.392 209.483 25.634C209.351 25.876 209.285 26.1547 209.285 26.47ZM214.967 26.745V25.931H218.146C218.116 25.689 218.05 25.48 217.948 25.304C217.852 25.1207 217.717 24.9813 217.541 24.886C217.365 24.7833 217.148 24.732 216.892 24.732C216.628 24.732 216.389 24.7907 216.177 24.908C215.964 25.018 215.795 25.183 215.671 25.403C215.546 25.6157 215.484 25.8687 215.484 26.162L215.462 26.47C215.462 26.844 215.52 27.1557 215.638 27.405C215.762 27.647 215.931 27.8303 216.144 27.955C216.364 28.0723 216.617 28.131 216.903 28.131C217.137 28.131 217.343 28.098 217.519 28.032C217.702 27.966 217.863 27.8743 218.003 27.757C218.142 27.6323 218.259 27.4893 218.355 27.328L219.378 27.746C219.209 28.0173 219.015 28.2557 218.795 28.461C218.582 28.6663 218.318 28.8277 218.003 28.945C217.695 29.055 217.31 29.11 216.848 29.11C216.327 29.11 215.872 28.9963 215.484 28.769C215.095 28.5417 214.794 28.23 214.582 27.834C214.369 27.4307 214.263 26.976 214.263 26.47C214.263 26.3747 214.266 26.283 214.274 26.195C214.281 26.107 214.292 26.019 214.307 25.931C214.38 25.513 214.527 25.1463 214.747 24.831C214.974 24.5157 215.271 24.27 215.638 24.094C216.004 23.918 216.426 23.83 216.903 23.83C217.423 23.83 217.871 23.9363 218.245 24.149C218.626 24.3543 218.919 24.6513 219.125 25.04C219.33 25.4213 219.433 25.8797 219.433 26.415C219.433 26.459 219.433 26.5103 219.433 26.569C219.433 26.6203 219.425 26.679 219.411 26.745H214.967ZM228.462 25.04L223.919 29.385L223.974 27.9L228.517 23.555L228.462 25.04ZM225.085 23.94V28.043L223.919 29.385V23.94H225.085ZM228.517 23.555V29H227.351V24.897L228.517 23.555ZM234.902 29L234.132 25.205L234.759 23.555L236.167 29H234.902ZM232.427 27.966L234.759 23.555L234.869 25.502L232.757 29.341L232.427 27.966ZM232.757 29.341L230.667 25.502L230.777 23.555L233.087 27.966L232.757 29.341ZM229.38 29L230.777 23.555L231.415 25.205L230.645 29H229.38ZM238.015 29H236.75L238.488 26.492H239.698L238.015 29ZM241.304 29H240.105V23.94H241.304V29ZM240.545 26.151V27.053H238.972C238.627 27.053 238.308 27.0017 238.015 26.899C237.721 26.789 237.487 26.6203 237.311 26.393C237.135 26.1583 237.047 25.854 237.047 25.48C237.047 25.106 237.135 24.809 237.311 24.589C237.487 24.3617 237.721 24.1967 238.015 24.094C238.308 23.9913 238.627 23.94 238.972 23.94H240.545V24.93H239.071C238.887 24.93 238.733 24.952 238.609 24.996C238.484 25.04 238.389 25.106 238.323 25.194C238.257 25.282 238.224 25.3957 238.224 25.535C238.224 25.6817 238.257 25.799 238.323 25.887C238.389 25.975 238.484 26.041 238.609 26.085C238.733 26.129 238.887 26.151 239.071 26.151H240.545Z" fill="white"/>
<rect x="286" y="13" width="24" height="24" rx="4" fill="#C3C3C3"/>
<path d="M297.37 25.31V24.064C297.613 24.064 297.837 24.036 298.042 23.98C298.257 23.924 298.439 23.8447 298.588 23.742C298.747 23.6393 298.868 23.5227 298.952 23.392C299.036 23.2613 299.078 23.126 299.078 22.986C299.078 22.8647 299.045 22.7573 298.98 22.664C298.915 22.5707 298.817 22.5007 298.686 22.454C298.565 22.398 298.401 22.37 298.196 22.37C297.879 22.37 297.622 22.4587 297.426 22.636C297.23 22.8133 297.132 23.0467 297.132 23.336H294.318C294.318 22.7107 294.477 22.146 294.794 21.642C295.111 21.138 295.559 20.7367 296.138 20.438C296.726 20.1393 297.417 19.99 298.21 19.99C299.05 19.99 299.759 20.1113 300.338 20.354C300.917 20.5967 301.355 20.928 301.654 21.348C301.953 21.768 302.102 22.244 302.102 22.776C302.102 23.4013 301.887 23.9007 301.458 24.274C301.029 24.638 300.455 24.904 299.736 25.072C299.027 25.2307 298.238 25.31 297.37 25.31ZM298.07 30.28C297.407 30.28 296.815 30.1773 296.292 29.972C295.779 29.7667 295.345 29.4867 294.99 29.132C294.635 28.7773 294.365 28.3807 294.178 27.942C293.991 27.494 293.898 27.0367 293.898 26.57H296.922C296.922 26.8967 296.983 27.158 297.104 27.354C297.235 27.55 297.398 27.69 297.594 27.774C297.799 27.858 298.005 27.9 298.21 27.9C298.425 27.9 298.616 27.8767 298.784 27.83C298.961 27.774 299.101 27.6807 299.204 27.55C299.307 27.41 299.358 27.2233 299.358 26.99C299.358 26.85 299.325 26.7147 299.26 26.584C299.195 26.444 299.087 26.3227 298.938 26.22C298.789 26.108 298.583 26.024 298.322 25.968C298.07 25.9027 297.753 25.87 297.37 25.87V24.414C298.126 24.414 298.807 24.47 299.414 24.582C300.03 24.6847 300.557 24.8527 300.996 25.086C301.444 25.3193 301.785 25.618 302.018 25.982C302.261 26.3367 302.382 26.766 302.382 27.27C302.382 27.8487 302.214 28.3667 301.878 28.824C301.551 29.272 301.066 29.6267 300.422 29.888C299.787 30.1493 299.003 30.28 298.07 30.28Z" fill="black"/>
<path d="M318.113 25.205V24.6C318.516 24.6 318.857 24.5413 319.136 24.424C319.415 24.2993 319.627 24.138 319.774 23.94C319.921 23.7347 319.994 23.511 319.994 23.269C319.994 23.027 319.939 22.8143 319.829 22.631C319.719 22.4403 319.55 22.2937 319.323 22.191C319.103 22.0883 318.828 22.037 318.498 22.037C318.19 22.037 317.911 22.0883 317.662 22.191C317.42 22.2937 317.229 22.433 317.09 22.609C316.951 22.785 316.881 22.9867 316.881 23.214H315.99C315.99 22.8107 316.093 22.4587 316.298 22.158C316.511 21.8573 316.804 21.6227 317.178 21.454C317.559 21.278 317.996 21.19 318.487 21.19C319 21.19 319.44 21.2853 319.807 21.476C320.174 21.6667 320.456 21.916 320.654 22.224C320.852 22.532 320.951 22.8693 320.951 23.236C320.951 23.5073 320.881 23.764 320.742 24.006C320.61 24.2407 320.419 24.4497 320.17 24.633C319.921 24.809 319.62 24.9483 319.268 25.051C318.923 25.1537 318.538 25.205 318.113 25.205ZM318.443 29.11C317.988 29.11 317.589 29.055 317.244 28.945C316.899 28.835 316.61 28.6847 316.375 28.494C316.14 28.296 315.961 28.0687 315.836 27.812C315.719 27.548 315.66 27.2657 315.66 26.965H316.606C316.635 27.207 316.716 27.4233 316.848 27.614C316.987 27.8047 317.185 27.955 317.442 28.065C317.706 28.175 318.04 28.23 318.443 28.23C319.052 28.23 319.499 28.1053 319.785 27.856C320.071 27.6067 320.214 27.273 320.214 26.855C320.214 26.5397 320.122 26.2757 319.939 26.063C319.756 25.8503 319.506 25.6927 319.191 25.59C318.876 25.48 318.516 25.425 318.113 25.425V24.82C318.685 24.82 319.202 24.8933 319.664 25.04C320.126 25.1867 320.493 25.4177 320.764 25.733C321.035 26.041 321.171 26.4517 321.171 26.965C321.171 27.3977 321.061 27.7753 320.841 28.098C320.628 28.4207 320.317 28.67 319.906 28.846C319.503 29.022 319.015 29.11 318.443 29.11ZM322.892 27.515C322.892 27.691 322.94 27.8413 323.035 27.966C323.13 28.0833 323.259 28.175 323.42 28.241C323.581 28.2997 323.761 28.329 323.959 28.329C324.252 28.329 324.513 28.285 324.74 28.197C324.967 28.109 325.143 27.9697 325.268 27.779C325.4 27.5883 325.466 27.3353 325.466 27.02L325.642 27.57C325.642 27.8927 325.554 28.1713 325.378 28.406C325.209 28.6333 324.982 28.8093 324.696 28.934C324.41 29.0513 324.091 29.11 323.739 29.11C323.424 29.11 323.134 29.0513 322.87 28.934C322.606 28.8167 322.393 28.6443 322.232 28.417C322.078 28.1823 322.001 27.8927 322.001 27.548C322.001 27.1887 322.089 26.8843 322.265 26.635C322.441 26.3857 322.69 26.195 323.013 26.063C323.336 25.9237 323.717 25.854 324.157 25.854C324.48 25.854 324.755 25.898 324.982 25.986C325.217 26.0667 325.404 26.162 325.543 26.272C325.682 26.3747 325.778 26.459 325.829 26.525V27.042C325.58 26.866 325.327 26.7377 325.07 26.657C324.813 26.569 324.524 26.525 324.201 26.525C323.908 26.525 323.662 26.5653 323.464 26.646C323.273 26.7267 323.13 26.8403 323.035 26.987C322.94 27.1337 322.892 27.3097 322.892 27.515ZM322.892 25.128L322.463 24.457C322.654 24.3177 322.91 24.1783 323.233 24.039C323.556 23.8997 323.944 23.83 324.399 23.83C324.788 23.83 325.125 23.8923 325.411 24.017C325.704 24.1343 325.932 24.3067 326.093 24.534C326.262 24.7613 326.346 25.04 326.346 25.37V29H325.466V25.37C325.466 25.1133 325.356 24.9227 325.136 24.798C324.923 24.666 324.678 24.6 324.399 24.6C324.157 24.6 323.937 24.633 323.739 24.699C323.541 24.7577 323.369 24.831 323.222 24.919C323.083 24.9997 322.973 25.0693 322.892 25.128ZM328.352 26.36H329.815C330.167 26.36 330.482 26.3967 330.761 26.47C331.039 26.5433 331.259 26.6717 331.421 26.855C331.582 27.0383 331.663 27.295 331.663 27.625C331.663 28.0063 331.534 28.3327 331.278 28.604C331.028 28.868 330.614 29 330.035 29H328.352V28.23H329.815C330.145 28.23 330.387 28.1603 330.541 28.021C330.702 27.8817 330.783 27.713 330.783 27.515C330.783 27.4123 330.761 27.3207 330.717 27.24C330.68 27.1593 330.621 27.086 330.541 27.02C330.467 26.954 330.368 26.9063 330.244 26.877C330.126 26.8403 329.983 26.822 329.815 26.822H328.352V26.36ZM328.352 26.58V26.063H329.705C329.837 26.063 329.954 26.0483 330.057 26.019C330.167 25.9823 330.258 25.931 330.332 25.865C330.405 25.799 330.46 25.7257 330.497 25.645C330.541 25.557 330.563 25.4653 330.563 25.37C330.563 25.172 330.486 25.0143 330.332 24.897C330.178 24.7723 329.969 24.71 329.705 24.71H328.352V23.94H329.705C330.02 23.94 330.306 23.9877 330.563 24.083C330.827 24.171 331.039 24.3177 331.201 24.523C331.362 24.721 331.443 24.985 331.443 25.315C331.443 25.601 331.362 25.8393 331.201 26.03C331.039 26.2133 330.827 26.3527 330.563 26.448C330.306 26.536 330.02 26.58 329.705 26.58H328.352ZM327.835 23.94H328.715V29H327.835V23.94ZM332.94 26.69V25.942H336.317C336.288 25.678 336.214 25.447 336.097 25.249C335.987 25.0437 335.829 24.886 335.624 24.776C335.426 24.6587 335.18 24.6 334.887 24.6C334.594 24.6 334.326 24.6623 334.084 24.787C333.842 24.9117 333.648 25.0913 333.501 25.326C333.362 25.5533 333.292 25.8247 333.292 26.14L333.27 26.47C333.27 26.8587 333.336 27.1887 333.468 27.46C333.6 27.7313 333.787 27.9367 334.029 28.076C334.271 28.2153 334.557 28.285 334.887 28.285C335.136 28.285 335.356 28.2483 335.547 28.175C335.745 28.0943 335.921 27.988 336.075 27.856C336.229 27.7167 336.361 27.5553 336.471 27.372L337.186 27.823C337.017 28.0797 336.83 28.307 336.625 28.505C336.42 28.6957 336.17 28.846 335.877 28.956C335.584 29.0587 335.217 29.11 334.777 29.11C334.322 29.11 333.912 28.9963 333.545 28.769C333.186 28.5417 332.9 28.23 332.687 27.834C332.482 27.4307 332.379 26.976 332.379 26.47C332.379 26.3747 332.383 26.283 332.39 26.195C332.397 26.107 332.408 26.019 332.423 25.931C332.496 25.513 332.643 25.1463 332.863 24.831C333.083 24.5157 333.365 24.27 333.71 24.094C334.062 23.918 334.454 23.83 334.887 23.83C335.364 23.83 335.782 23.9363 336.141 24.149C336.5 24.3617 336.779 24.6623 336.977 25.051C337.175 25.4323 337.274 25.8907 337.274 26.426C337.274 26.47 337.274 26.514 337.274 26.558C337.274 26.602 337.27 26.646 337.263 26.69H332.94ZM339.305 31.42H338.425V23.94H339.305V31.42ZM343.54 26.47C343.54 27.0127 343.427 27.482 343.199 27.878C342.972 28.274 342.668 28.5783 342.286 28.791C341.912 29.0037 341.494 29.11 341.032 29.11C340.614 29.11 340.244 29.0037 339.921 28.791C339.606 28.5783 339.357 28.274 339.173 27.878C338.997 27.482 338.909 27.0127 338.909 26.47C338.909 25.92 338.997 25.4507 339.173 25.062C339.357 24.666 339.606 24.3617 339.921 24.149C340.244 23.9363 340.614 23.83 341.032 23.83C341.494 23.83 341.912 23.9363 342.286 24.149C342.668 24.3617 342.972 24.666 343.199 25.062C343.427 25.4507 343.54 25.92 343.54 26.47ZM342.649 26.47C342.649 26.0813 342.569 25.7513 342.407 25.48C342.253 25.2087 342.044 25.0033 341.78 24.864C341.524 24.7247 341.238 24.655 340.922 24.655C340.666 24.655 340.413 24.7247 340.163 24.864C339.914 25.0033 339.709 25.2087 339.547 25.48C339.386 25.7513 339.305 26.0813 339.305 26.47C339.305 26.8587 339.386 27.1887 339.547 27.46C339.709 27.7313 339.914 27.9367 340.163 28.076C340.413 28.2153 340.666 28.285 340.922 28.285C341.238 28.285 341.524 28.2153 341.78 28.076C342.044 27.9367 342.253 27.7313 342.407 27.46C342.569 27.1887 342.649 26.8587 342.649 26.47ZM348.659 28.175H350.804V23.94H351.684V29H344.754V23.94H345.634V28.175H347.779V23.94H348.659V28.175ZM353.458 26.69V25.942H356.835C356.805 25.678 356.732 25.447 356.615 25.249C356.505 25.0437 356.347 24.886 356.142 24.776C355.944 24.6587 355.698 24.6 355.405 24.6C355.111 24.6 354.844 24.6623 354.602 24.787C354.36 24.9117 354.165 25.0913 354.019 25.326C353.879 25.5533 353.81 25.8247 353.81 26.14L353.788 26.47C353.788 26.8587 353.854 27.1887 353.986 27.46C354.118 27.7313 354.305 27.9367 354.547 28.076C354.789 28.2153 355.075 28.285 355.405 28.285C355.654 28.285 355.874 28.2483 356.065 28.175C356.263 28.0943 356.439 27.988 356.593 27.856C356.747 27.7167 356.879 27.5553 356.989 27.372L357.704 27.823C357.535 28.0797 357.348 28.307 357.143 28.505C356.937 28.6957 356.688 28.846 356.395 28.956C356.101 29.0587 355.735 29.11 355.295 29.11C354.84 29.11 354.429 28.9963 354.063 28.769C353.703 28.5417 353.417 28.23 353.205 27.834C352.999 27.4307 352.897 26.976 352.897 26.47C352.897 26.3747 352.9 26.283 352.908 26.195C352.915 26.107 352.926 26.019 352.941 25.931C353.014 25.513 353.161 25.1463 353.381 24.831C353.601 24.5157 353.883 24.27 354.228 24.094C354.58 23.918 354.972 23.83 355.405 23.83C355.881 23.83 356.299 23.9363 356.659 24.149C357.018 24.3617 357.297 24.6623 357.495 25.051C357.693 25.4323 357.792 25.8907 357.792 26.426C357.792 26.47 357.792 26.514 357.792 26.558C357.792 26.602 357.788 26.646 357.781 26.69H353.458ZM359.515 26.745V25.92H363.255V26.745H359.515ZM362.683 23.94H363.563V29H362.683V23.94ZM358.998 23.94H359.878V29H358.998V23.94ZM369.453 24.82L365.273 29.385L365.328 28.12L369.508 23.555L369.453 24.82ZM366.153 23.94V28.175L365.273 29.385V23.94H366.153ZM369.508 23.555V29H368.628V24.765L369.508 23.555ZM371.333 26.69V25.942H374.71C374.68 25.678 374.607 25.447 374.49 25.249C374.38 25.0437 374.222 24.886 374.017 24.776C373.819 24.6587 373.573 24.6 373.28 24.6C372.986 24.6 372.719 24.6623 372.477 24.787C372.235 24.9117 372.04 25.0913 371.894 25.326C371.754 25.5533 371.685 25.8247 371.685 26.14L371.663 26.47C371.663 26.8587 371.729 27.1887 371.861 27.46C371.993 27.7313 372.18 27.9367 372.422 28.076C372.664 28.2153 372.95 28.285 373.28 28.285C373.529 28.285 373.749 28.2483 373.94 28.175C374.138 28.0943 374.314 27.988 374.468 27.856C374.622 27.7167 374.754 27.5553 374.864 27.372L375.579 27.823C375.41 28.0797 375.223 28.307 375.018 28.505C374.812 28.6957 374.563 28.846 374.27 28.956C373.976 29.0587 373.61 29.11 373.17 29.11C372.715 29.11 372.304 28.9963 371.938 28.769C371.578 28.5417 371.292 28.23 371.08 27.834C370.874 27.4307 370.772 26.976 370.772 26.47C370.772 26.3747 370.775 26.283 370.783 26.195C370.79 26.107 370.801 26.019 370.816 25.931C370.889 25.513 371.036 25.1463 371.256 24.831C371.476 24.5157 371.758 24.27 372.103 24.094C372.455 23.918 372.847 23.83 373.28 23.83C373.756 23.83 374.174 23.9363 374.534 24.149C374.893 24.3617 375.172 24.6623 375.37 25.051C375.568 25.4323 375.667 25.8907 375.667 26.426C375.667 26.47 375.667 26.514 375.667 26.558C375.667 26.602 375.663 26.646 375.656 26.69H371.333Z" fill="#C3C3C3"/>
<rect x="119" y="25" width="36" height="2" fill="url(#paint2_linear_68_13)"/>
<rect x="245" y="25" width="36" height="2" fill="#C3C3C3" fill-opacity="0.5"/>
<defs>
<linearGradient id="paint0_linear_68_13" x1="8" y1="13" x2="32" y2="37" gradientUnits="userSpaceOnUse">
<stop stop-color="#1E7F34"/>
<stop offset="1" stop-color="#2ECC71"/>
</linearGradient>
<linearGradient id="paint1_linear_68_13" x1="159" y1="13" x2="183" y2="37" gradientUnits="userSpaceOnUse">
<stop stop-color="#DA6AD0"/>
<stop offset="1" stop-color="#9780E5"/>
</linearGradient>
<linearGradient id="paint2_linear_68_13" x1="119" y1="25" x2="155" y2="27" gradientUnits="userSpaceOnUse">
<stop stop-color="#DA6AD0"/>
<stop offset="1" stop-color="#9780E5"/>
</linearGradient>
</defs>
</svg>
