<svg width="48" height="48" viewBox="0 0 48 48" fill="none" xmlns="http://www.w3.org/2000/svg">
<g clip-path="url(#clip0_83_2)">
<rect width="48" height="48" fill="white"/>
<rect width="48" height="48" fill="url(#paint0_radial_83_2)"/>
<path d="M8.60222 33V17.64L10.2822 19.32H5.24222V16.2H12.4902V33H8.60222ZM15.2647 33V30.48L21.7447 24.36C22.2567 23.896 22.6327 23.48 22.8727 23.112C23.1127 22.744 23.2727 22.408 23.3527 22.104C23.4487 21.8 23.4967 21.52 23.4967 21.264C23.4967 20.592 23.2647 20.08 22.8007 19.728C22.3527 19.36 21.6887 19.176 20.8087 19.176C20.1047 19.176 19.4487 19.312 18.8407 19.584C18.2487 19.856 17.7447 20.28 17.3287 20.856L14.4967 19.032C15.1367 18.072 16.0327 17.312 17.1847 16.752C18.3367 16.192 19.6647 15.912 21.1687 15.912C22.4167 15.912 23.5047 16.12 24.4327 16.536C25.3767 16.936 26.1047 17.504 26.6167 18.24C27.1447 18.976 27.4087 19.856 27.4087 20.88C27.4087 21.424 27.3367 21.968 27.1927 22.512C27.0647 23.04 26.7927 23.6 26.3767 24.192C25.9767 24.784 25.3847 25.448 24.6007 26.184L19.2247 31.248L18.4807 29.832H27.9607V33H15.2647ZM34.1986 30.144V19.056H37.2946V30.144H34.1986ZM30.0466 26.064V23.136H41.4706V26.064H30.0466Z" fill="white"/>
</g>
<defs>
<radialGradient id="paint0_radial_83_2" cx="0" cy="0" r="1" gradientUnits="userSpaceOnUse" gradientTransform="translate(24 24) rotate(90) scale(37.5)">
<stop stop-color="#9780E5"/>
<stop offset="1" stop-color="#DA6AD0"/>
</radialGradient>
<clipPath id="clip0_83_2">
<rect width="48" height="48" fill="white"/>
</clipPath>
</defs>
</svg>
