<?xml version="1.0" ?><svg data-name="Layer 1" id="Layer_1" viewBox="0 0 64 64" xmlns="http://www.w3.org/2000/svg"><defs><style>
      .cls-1 {
        fill: #f76c5e;
      }

      .cls-2 {
        fill: #ffbc0a;
      }

      .cls-3 {
        fill: #a3cef1;
      }

      .cls-4 {
        fill: #6096ba;
      }

      .cls-5 {
        fill: #274c77;
      }
    </style></defs><path class="cls-5" d="M58,21l2-6,2,6v22c0,1.1-.9,2-2,2h0c-1.1,0-2-.9-2-2V21Z"/><path class="cls-1" d="M58,41h4v2c0,1.1-.9,2-2,2-.55,0-1.05-.22-1.41-.59-.37-.36-.59-.86-.59-1.41v-2Z"/><polygon class="cls-1" points="58 21 62 21 60 15 58 21"/><path class="cls-5" d="M2,21l2-6,2,6v22c0,1.1-.9,2-2,2h0c-1.1,0-2-.9-2-2V21Z"/><path class="cls-1" d="M2,41H6v2c0,1.1-.9,2-2,2-.55,0-1.05-.22-1.41-.59-.37-.36-.59-.86-.59-1.41v-2Z"/><polygon class="cls-1" points="2 21 6 21 4 15 2 21"/><path class="cls-5" d="M32,61h-3l-2-2H10V29h4v24s12.15-3,18,8Z"/><path class="cls-5" d="M50,53V29h4v30h-17s-2,2-2,2h-3c5.85-11,18-8,18-8Z"/><path class="cls-4" d="M32,61c-5.85-11-18-8-18-8V26l6-2v25c6.63,0,12,5.37,12,12Z"/><path class="cls-4" d="M44,24l6,2v27s-12.15-3-18,8c0-6.63,5.37-12,12-12V24Z"/><path class="cls-3" d="M32,35c0-6.63-5.37-12-12-12v26c6.63,0,12,5.37,12,12,0-6.63,5.37-12,12-12V23c-6.63,0-12,5.37-12,12Z"/><path class="cls-5" d="M40.55,6.17l-3-2c-.34-.22-.77-.22-1.11,0l-3,2,1.11,1.66,1.21-.8c-.92,3.99-4.5,6.97-8.76,6.97v2c5.46,0,10-4.01,10.84-9.24l1.6,1.07,1.11-1.66Z"/><g><polygon class="cls-1" points="42.71 15.46 41.29 14.05 39.88 15.46 38.46 14.05 37.05 15.46 38.46 16.88 37.05 18.29 38.46 19.71 39.88 18.29 41.29 19.71 42.71 18.29 41.29 16.88 42.71 15.46"/><polygon class="cls-1" points="28.54 4.29 27.12 5.71 25.71 4.29 24.29 5.71 25.71 7.12 24.29 8.54 25.71 9.95 27.12 8.54 28.54 9.95 29.95 8.54 28.54 7.12 29.95 5.71 28.54 4.29"/></g><circle class="cls-2" cx="25" cy="15" r="2"/><path class="cls-4" d="M25,18c-1.65,0-3-1.35-3-3s1.35-3,3-3,3,1.35,3,3-1.35,3-3,3Zm0-4c-.55,0-1,.45-1,1s.45,1,1,1,1-.45,1-1-.45-1-1-1Z"/><rect class="cls-4" height="2" width="2" x="3" y="11"/><rect class="cls-4" height="2" width="2" x="3" y="7"/><rect class="cls-4" height="2" width="2" x="3" y="3"/><rect class="cls-4" height="2" width="2" x="59" y="11"/><rect class="cls-4" height="2" width="2" x="59" y="7"/><rect class="cls-4" height="2" width="2" x="59" y="3"/></svg>