<svg width="488" height="488" viewBox="0 0 488 488" fill="none" xmlns="http://www.w3.org/2000/svg">
<path d="M142.837 296.503C144.817 302.663 141.337 313.003 141.337 313.003L112.837 412.503C112.837 412.503 112.04 427.117 117.837 432.503C123.672 437.925 138.337 436.003 138.337 436.003C263.966 351.964 331.543 303.716 442.837 214.003C442.837 214.003 448.029 201.747 444.837 195.003C441.64 188.247 430.337 184.503 430.337 184.503C288.499 177.11 207.698 176.851 65.8371 183.003C65.8371 183.003 46.6892 185.633 42.8371 195.003C39.5899 202.902 46.8371 216.503 46.8371 216.503L135.337 286.003C135.337 286.003 141.295 291.705 142.837 296.503Z" fill="black"/>
<path d="M300.337 165.003H189.837L228.837 58.503C228.837 58.503 238.091 49.8152 245.337 50.003C252.238 50.1818 260.837 58.503 260.837 58.503L300.337 165.003Z" fill="black"/>
<path d="M257.337 373.503L345.337 309.003L376.337 414.003C376.337 414.003 376.819 426.742 371.837 432.003C366.432 437.712 352.337 437.003 352.337 437.003L257.337 373.503Z" fill="black"/>
</svg>
